<?xml version="1.0" encoding="UTF-8"?>
<svg width="101px" height="150px" viewBox="0 0 101 150" version="1.1" xmlns="http://www.w3.org/2000/svg" xmlns:xlink="http://www.w3.org/1999/xlink">
    <!-- Generator: Sketch 42 (36781) - http://www.bohemiancoding.com/sketch -->
    <title>Shape</title>
    <desc>Created with Sketch.</desc>
    <defs></defs>
    <g id="Page-1" stroke="none" stroke-width="1" fill="none" fill-rule="evenodd">
        <path d="M52.1075241,148.721361 C51.5762108,149.190565 50.9358823,149.426311 50.2952812,149.426311 C49.6546802,149.426311 49.0147604,149.190565 48.4830383,148.721361 C46.5154485,146.988799 0.295281336,99.1306251 0.295281336,56.2285968 C0.295281336,25.3887803 22.7266767,0.300788921 50.2952813,0.300788921 C77.8642948,0.300788921 100.295281,25.3887803 100.295281,56.2285968 C100.295281,99.1304727 54.0749776,146.988799 52.1075241,148.721361 L52.1075241,148.721361 Z M50.2952812,30.1053685 C37.4094011,30.1053685 26.9632834,41.794596 26.9632834,56.2142631 C26.9632834,70.6334727 37.4092649,82.3227002 50.2952812,82.3227002 C63.1812975,82.3227002 73.627279,70.6333201 73.627279,56.2142631 C73.6271428,41.7947484 63.1811613,30.1053685 50.2952812,30.1053685 L50.2952812,30.1053685 Z" id="Shape" fill="#8492FB"></path>
    </g>
</svg>