<?xml version="1.0" encoding="UTF-8"?>
<svg width="110px" height="182px" viewBox="0 0 110 182" version="1.1" xmlns="http://www.w3.org/2000/svg" xmlns:xlink="http://www.w3.org/1999/xlink">
    <!-- Generator: Sketch 42 (36781) - http://www.bohemiancoding.com/sketch -->
    <title>Robert</title>
    <desc>Created with Sketch.</desc>
    <defs>
        <rect id="path-1" x="0" y="0" width="110" height="182"></rect>
        <polygon id="path-3" points="38.0993023 38.2032726 38.0993023 0.27470119 0.424953488 0.27470119 0.424953488 38.2032726 38.0993023 38.2032726"></polygon>
        <path d="M0.707476362,0.197445327 C0.707476362,0.197445327 0.797889103,0.0598647403 0.980525378,0.0598647403 C1.16316165,0.0598647403 1.27508332,0.197445327 1.27508332,0.197445327 C1.27508332,0.197445327 1.1951645,0.257875991 1.19063899,0.402205415 C1.18611348,0.546534838 1.20434779,2.54528172 1.19063899,3.95443908 C1.17345817,5.72049327 1.22108819,5.72740506 1.22108819,5.72740506 C1.22108819,5.72740506 1.17910807,5.8204193 0.980525378,5.83061848 C0.781942685,5.84081765 0.707476362,5.70901857 0.707476362,5.70901857 C0.707476362,5.70901857 0.797889103,5.50887609 0.797889103,4.21101783 C0.797889103,2.91315957 0.79683421,1.84513677 0.797889103,1.25616205 C0.799622934,0.28811932 0.707476362,0.197445327 0.707476362,0.197445327 Z" id="path-5"></path>
        <mask id="mask-6" maskContentUnits="userSpaceOnUse" maskUnits="objectBoundingBox" x="0" y="0" width="0.567606961" height="5.77131655" fill="white">
            <use xlink:href="#path-5"></use>
        </mask>
        <path d="M0.707476362,0.197445327 C0.707476362,0.197445327 0.797889103,0.0598647403 0.980525378,0.0598647403 C1.16316165,0.0598647403 1.27508332,0.197445327 1.27508332,0.197445327 C1.27508332,0.197445327 1.1951645,0.257875991 1.19063899,0.402205415 C1.18611348,0.546534838 1.20434779,2.54528172 1.19063899,3.95443908 C1.17345817,5.72049327 1.22108819,5.72740506 1.22108819,5.72740506 C1.22108819,5.72740506 1.17910807,5.8204193 0.980525378,5.83061848 C0.781942685,5.84081765 0.707476362,5.70901857 0.707476362,5.70901857 C0.707476362,5.70901857 0.797889103,5.50887609 0.797889103,4.21101783 C0.797889103,2.91315957 0.79683421,1.84513677 0.797889103,1.25616205 C0.799622934,0.28811932 0.707476362,0.197445327 0.707476362,0.197445327 Z" id="path-7"></path>
        <mask id="mask-8" maskContentUnits="userSpaceOnUse" maskUnits="objectBoundingBox" x="0" y="0" width="0.567606961" height="5.77131655" fill="white">
            <use xlink:href="#path-7"></use>
        </mask>
        <path d="M0.707476362,0.197445327 C0.707476362,0.197445327 0.797889103,0.0598647403 0.980525378,0.0598647403 C1.16316165,0.0598647403 1.27508332,0.197445327 1.27508332,0.197445327 C1.27508332,0.197445327 1.1951645,0.257875991 1.19063899,0.402205415 C1.18611348,0.546534838 1.20434779,2.54528172 1.19063899,3.95443908 C1.17345817,5.72049327 1.22108819,5.72740506 1.22108819,5.72740506 C1.22108819,5.72740506 1.17910807,5.8204193 0.980525378,5.83061848 C0.781942685,5.84081765 0.707476362,5.70901857 0.707476362,5.70901857 C0.707476362,5.70901857 0.797889103,5.50887609 0.797889103,4.21101783 C0.797889103,2.91315957 0.79683421,1.84513677 0.797889103,1.25616205 C0.799622934,0.28811932 0.707476362,0.197445327 0.707476362,0.197445327 Z" id="path-9"></path>
        <mask id="mask-10" maskContentUnits="userSpaceOnUse" maskUnits="objectBoundingBox" x="0" y="0" width="0.567606961" height="5.77131655" fill="white">
            <use xlink:href="#path-9"></use>
        </mask>
        <path d="M0.707476362,0.197445327 C0.707476362,0.197445327 0.797889103,0.0598647403 0.980525378,0.0598647403 C1.16316165,0.0598647403 1.27508332,0.197445327 1.27508332,0.197445327 C1.27508332,0.197445327 1.1951645,0.257875991 1.19063899,0.402205415 C1.18611348,0.546534838 1.20434779,2.54528172 1.19063899,3.95443908 C1.17345817,5.72049327 1.22108819,5.72740506 1.22108819,5.72740506 C1.22108819,5.72740506 1.17910807,5.8204193 0.980525378,5.83061848 C0.781942685,5.84081765 0.707476362,5.70901857 0.707476362,5.70901857 C0.707476362,5.70901857 0.797889103,5.50887609 0.797889103,4.21101783 C0.797889103,2.91315957 0.79683421,1.84513677 0.797889103,1.25616205 C0.799622934,0.28811932 0.707476362,0.197445327 0.707476362,0.197445327 Z" id="path-11"></path>
        <mask id="mask-12" maskContentUnits="userSpaceOnUse" maskUnits="objectBoundingBox" x="0" y="0" width="0.567606961" height="5.77131655" fill="white">
            <use xlink:href="#path-11"></use>
        </mask>
        <path d="M0.707476362,0.197445327 C0.707476362,0.197445327 0.797889103,0.0598647403 0.980525378,0.0598647403 C1.16316165,0.0598647403 1.27508332,0.197445327 1.27508332,0.197445327 C1.27508332,0.197445327 1.1951645,0.257875991 1.19063899,0.402205415 C1.18611348,0.546534838 1.20434779,2.54528172 1.19063899,3.95443908 C1.17345817,5.72049327 1.22108819,5.72740506 1.22108819,5.72740506 C1.22108819,5.72740506 1.17910807,5.8204193 0.980525378,5.83061848 C0.781942685,5.84081765 0.707476362,5.70901857 0.707476362,5.70901857 C0.707476362,5.70901857 0.797889103,5.50887609 0.797889103,4.21101783 C0.797889103,2.91315957 0.79683421,1.84513677 0.797889103,1.25616205 C0.799622934,0.28811932 0.707476362,0.197445327 0.707476362,0.197445327 Z" id="path-13"></path>
        <mask id="mask-14" maskContentUnits="userSpaceOnUse" maskUnits="objectBoundingBox" x="0" y="0" width="0.567606961" height="5.77131655" fill="white">
            <use xlink:href="#path-13"></use>
        </mask>
        <path d="M0.707476362,0.197445327 C0.707476362,0.197445327 0.797889103,0.0598647403 0.980525378,0.0598647403 C1.16316165,0.0598647403 1.27508332,0.197445327 1.27508332,0.197445327 C1.27508332,0.197445327 1.1951645,0.257875991 1.19063899,0.402205415 C1.18611348,0.546534838 1.20434779,2.54528172 1.19063899,3.95443908 C1.17345817,5.72049327 1.22108819,5.72740506 1.22108819,5.72740506 C1.22108819,5.72740506 1.17910807,5.8204193 0.980525378,5.83061848 C0.781942685,5.84081765 0.707476362,5.70901857 0.707476362,5.70901857 C0.707476362,5.70901857 0.797889103,5.50887609 0.797889103,4.21101783 C0.797889103,2.91315957 0.79683421,1.84513677 0.797889103,1.25616205 C0.799622934,0.28811932 0.707476362,0.197445327 0.707476362,0.197445327 Z" id="path-15"></path>
        <mask id="mask-16" maskContentUnits="userSpaceOnUse" maskUnits="objectBoundingBox" x="0" y="0" width="0.567606961" height="5.77131655" fill="white">
            <use xlink:href="#path-15"></use>
        </mask>
        <path d="M0.707476362,0.197445327 C0.707476362,0.197445327 0.797889103,0.0598647403 0.980525378,0.0598647403 C1.16316165,0.0598647403 1.27508332,0.197445327 1.27508332,0.197445327 C1.27508332,0.197445327 1.1951645,0.257875991 1.19063899,0.402205415 C1.18611348,0.546534838 1.20434779,2.54528172 1.19063899,3.95443908 C1.17345817,5.72049327 1.22108819,5.72740506 1.22108819,5.72740506 C1.22108819,5.72740506 1.17910807,5.8204193 0.980525378,5.83061848 C0.781942685,5.84081765 0.707476362,5.70901857 0.707476362,5.70901857 C0.707476362,5.70901857 0.797889103,5.50887609 0.797889103,4.21101783 C0.797889103,2.91315957 0.79683421,1.84513677 0.797889103,1.25616205 C0.799622934,0.28811932 0.707476362,0.197445327 0.707476362,0.197445327 Z" id="path-17"></path>
        <mask id="mask-18" maskContentUnits="userSpaceOnUse" maskUnits="objectBoundingBox" x="0" y="0" width="0.567606961" height="5.77131655" fill="white">
            <use xlink:href="#path-17"></use>
        </mask>
        <path d="M0.707476362,0.197445327 C0.707476362,0.197445327 0.797889103,0.0598647403 0.980525378,0.0598647403 C1.16316165,0.0598647403 1.27508332,0.197445327 1.27508332,0.197445327 C1.27508332,0.197445327 1.1951645,0.257875991 1.19063899,0.402205415 C1.18611348,0.546534838 1.20434779,2.54528172 1.19063899,3.95443908 C1.17345817,5.72049327 1.22108819,5.72740506 1.22108819,5.72740506 C1.22108819,5.72740506 1.17910807,5.8204193 0.980525378,5.83061848 C0.781942685,5.84081765 0.707476362,5.70901857 0.707476362,5.70901857 C0.707476362,5.70901857 0.797889103,5.50887609 0.797889103,4.21101783 C0.797889103,2.91315957 0.79683421,1.84513677 0.797889103,1.25616205 C0.799622934,0.28811932 0.707476362,0.197445327 0.707476362,0.197445327 Z" id="path-19"></path>
        <mask id="mask-20" maskContentUnits="userSpaceOnUse" maskUnits="objectBoundingBox" x="0" y="0" width="0.567606961" height="5.77131655" fill="white">
            <use xlink:href="#path-19"></use>
        </mask>
        <path d="M0.707476362,0.197445327 C0.707476362,0.197445327 0.797889103,0.0598647403 0.980525378,0.0598647403 C1.16316165,0.0598647403 1.27508332,0.197445327 1.27508332,0.197445327 C1.27508332,0.197445327 1.1951645,0.257875991 1.19063899,0.402205415 C1.18611348,0.546534838 1.20434779,2.54528172 1.19063899,3.95443908 C1.17345817,5.72049327 1.22108819,5.72740506 1.22108819,5.72740506 C1.22108819,5.72740506 1.17910807,5.8204193 0.980525378,5.83061848 C0.781942685,5.84081765 0.707476362,5.70901857 0.707476362,5.70901857 C0.707476362,5.70901857 0.797889103,5.50887609 0.797889103,4.21101783 C0.797889103,2.91315957 0.79683421,1.84513677 0.797889103,1.25616205 C0.799622934,0.28811932 0.707476362,0.197445327 0.707476362,0.197445327 Z" id="path-21"></path>
        <mask id="mask-22" maskContentUnits="userSpaceOnUse" maskUnits="objectBoundingBox" x="0" y="0" width="0.567606961" height="5.77131655" fill="white">
            <use xlink:href="#path-21"></use>
        </mask>
        <path d="M0.707476362,0.197445327 C0.707476362,0.197445327 0.797889103,0.0598647403 0.980525378,0.0598647403 C1.16316165,0.0598647403 1.27508332,0.197445327 1.27508332,0.197445327 C1.27508332,0.197445327 1.1951645,0.257875991 1.19063899,0.402205415 C1.18611348,0.546534838 1.20434779,2.54528172 1.19063899,3.95443908 C1.17345817,5.72049327 1.22108819,5.72740506 1.22108819,5.72740506 C1.22108819,5.72740506 1.17910807,5.8204193 0.980525378,5.83061848 C0.781942685,5.84081765 0.707476362,5.70901857 0.707476362,5.70901857 C0.707476362,5.70901857 0.797889103,5.50887609 0.797889103,4.21101783 C0.797889103,2.91315957 0.79683421,1.84513677 0.797889103,1.25616205 C0.799622934,0.28811932 0.707476362,0.197445327 0.707476362,0.197445327 Z" id="path-23"></path>
        <mask id="mask-24" maskContentUnits="userSpaceOnUse" maskUnits="objectBoundingBox" x="0" y="0" width="0.567606961" height="5.77131655" fill="white">
            <use xlink:href="#path-23"></use>
        </mask>
    </defs>
    <g id="Robert" stroke="none" stroke-width="1" fill="none" fill-rule="evenodd">
        <g>
            <mask id="mask-2" fill="white">
                <use xlink:href="#path-1"></use>
            </mask>
            <use id="Mask" fill-opacity="0.288439764" fill="#D8D8D8" xlink:href="#path-1"></use>
            <g id="WD1-Copy-2" mask="url(#mask-2)">
                <g transform="translate(26.000000, 32.000000)">
                    <g id="Person-8" transform="translate(10.465116, 0.000000)">
                        <path d="M29.7977442,75.5643202 L29.7977442,65.7309869 L36.7040233,65.7309869 L36.7040233,75.5643202 C36.7040233,77.8920107 35.1581678,79.778606 33.2508837,79.778606 C31.3435997,79.778606 29.7977442,77.8920107 29.7977442,75.5643202 Z" id="Fill-10-Copy" fill="#F8D4AA"></path>
                        <path d="M1.89076744,75.5643202 L1.89076744,65.7309869 L8.79704651,65.7309869 L8.79704651,75.5643202 C8.79704651,77.8920107 7.25119105,79.778606 5.34390698,79.778606 C3.43662291,79.778606 1.89076744,77.8920107 1.89076744,75.5643202 Z" id="Fill-10-Copy" fill="#F8D4AA"></path>
                        <path d="M23.5826565,50.3530583 L14.9422272,50.3530583 C8.4662254,50.3530583 3.21593023,55.1184008 3.21593023,60.9962354 L3.21593023,66.0377403 C3.21593023,67.2751496 4.32128801,68.2784091 5.68462433,68.2784091 L32.8402594,68.2784091 C34.2035957,68.2784091 35.3089535,67.2751496 35.3089535,66.0377403 L35.3089535,60.9962354 C35.3089535,55.1184008 30.0586583,50.3530583 23.5826565,50.3530583" id="Fill-1" fill="#F8D4AA"></path>
                        <path d="M37.4016977,70.0103875 L37.4016977,63.6679496 C37.4016977,56.7483499 32.2040233,51.0556595 25.5377442,50.3530583 C25.4972791,53.8209624 22.705186,56.6207964 19.2621628,56.6207964 C15.8191395,56.6207964 13.0270465,53.8209624 12.9865814,50.3530583 C6.32030233,51.0556595 1.12262791,56.7483499 1.12262791,63.6679496 L1.12262791,70.0103875 L8.79704651,70.0103875 L8.79704651,72.8292488 L29.7272791,72.8292488 L29.7272791,70.0103875 L37.4016977,70.0103875 Z" id="Fill-3" fill="#3AACE1"></path>
                        <path d="M19.2621628,57.653606 C23.2235581,57.653606 26.4516977,54.4704155 26.5758837,50.5124988 C26.2333256,50.4478798 25.8886744,50.3902845 25.5377442,50.3530583 C25.4972791,53.809475 22.705186,56.6000345 19.2621628,56.6000345 C15.8191395,56.6000345 13.0270465,53.809475 12.9865814,50.3530583 C12.6356512,50.3902845 12.291,50.4478798 11.9484419,50.5124988 C12.0726279,54.4704155 15.3007674,57.653606 19.2621628,57.653606" id="Fill-8" fill="#85BAE4"></path>
                        <path d="M19.2621628,56.6000345 L19.2621628,56.6000345 C16.9500698,56.6000345 15.0761163,54.7134393 15.0761163,52.3857488 L15.0761163,42.5524155 L23.4482093,42.5524155 L23.4482093,52.3857488 C23.4482093,54.7134393 21.5742558,56.6000345 19.2621628,56.6000345" id="Fill-10" fill="#F8D4AA"></path>
                        <path d="M9.49472093,100.147654 L9.49472093,90.3143202 L17.866814,90.3143202 L17.866814,95.2309869 L17.866814,100.147654 C17.866814,102.475344 15.9928605,104.361939 13.6807674,104.361939 C11.3686744,104.361939 9.49472093,102.475344 9.49472093,100.147654 Z" id="Fill-10-Copy" fill="#F8D4AA"></path>
                        <path d="M20.6575116,100.147654 L20.6575116,90.3143202 L29.0296047,90.3143202 L29.0296047,100.147654 C29.0296047,102.475344 27.1556512,104.361939 24.8435581,104.361939 C22.5314651,104.361939 20.6575116,102.475344 20.6575116,100.147654 Z" id="Fill-10-Copy" fill="#F8D4AA"></path>
                        <path d="M23.4482093,48.873844 C23.4482093,48.873844 20.3233256,49.576225 19.2621628,49.576225 C18.201,49.576225 15.0761163,48.873844 15.0761163,48.873844 L15.0761163,47.4690821 C15.0761163,47.4690821 18.201,48.1714631 19.2621628,48.1714631 C20.3233256,48.1714631 23.4482093,47.4690821 23.4482093,47.4690821 L23.4482093,48.873844 Z" id="Fill-12" fill="#292929" opacity="0.200000003"></path>
                        <g id="Group-16" transform="translate(0.000000, 0.359619)">
                            <mask id="mask-4" fill="white">
                                <use xlink:href="#path-3"></use>
                            </mask>
                            <g id="Clip-15"></g>
                            <path d="M38.0993721,19.2389869 C38.0993721,29.7128917 29.6658837,38.2032726 19.2621628,38.2032726 C8.85844186,38.2032726 0.424953488,29.7128917 0.424953488,19.2389869 C0.424953488,8.76508214 8.85844186,0.27470119 19.2621628,0.27470119 C29.6658837,0.27470119 38.0993721,8.76508214 38.0993721,19.2389869" id="Fill-14" fill="#5F5C61" mask="url(#mask-4)"></path>
                        </g>
                        <path d="M38.029186,28.540056 C38.029186,30.4603655 36.4831395,32.0168417 34.5756977,32.0168417 C32.6689535,32.0168417 31.122907,30.4603655 31.122907,28.540056 C31.122907,26.6197464 32.6689535,25.0632702 34.5756977,25.0632702 C36.4831395,25.0632702 38.029186,26.6197464 38.029186,28.540056" id="Fill-17" fill="#EAC6A0"></path>
                        <path d="M7.40169767,28.540056 C7.40169767,30.4603655 5.85565116,32.0168417 3.9482093,32.0168417 C2.04146512,32.0168417 0.495418605,30.4603655 0.495418605,28.540056 C0.495418605,26.6197464 2.04146512,25.0632702 3.9482093,25.0632702 C5.85565116,25.0632702 7.40169767,26.6197464 7.40169767,28.540056" id="Fill-19" fill="#EAC6A0"></path>
                        <path d="M19.2621628,47.4690821 L19.2621628,47.4690821 C10.7854186,47.4690821 3.91332558,40.5506298 3.91332558,32.0167012 L3.91332558,18.6714631 C3.91332558,10.1375345 10.7854186,3.21908214 19.2621628,3.21908214 L19.2621628,3.21908214 C27.738907,3.21908214 34.611,10.1375345 34.611,18.6714631 L34.611,32.0167012 C34.611,40.5506298 27.738907,47.4690821 19.2621628,47.4690821" id="Fill-21" fill="#F8D4AA"></path>
                        <path d="M19.2621628,56.6000345 L19.2621628,56.6000345 C16.9500698,56.6000345 15.0761163,54.7134393 15.0761163,52.3857488 L15.0761163,42.5524155 L23.4482093,42.5524155 L23.4482093,52.3857488 C23.4482093,54.7134393 21.5742558,56.6000345 19.2621628,56.6000345" id="Combined-Shape" fill="#F8D4AA"></path>
                        <path d="M20.9196279,33.1775262 C20.6949767,33.2428476 20.3614884,33.3460976 20.0524186,33.4437286 C19.5368372,33.6059786 18.9870698,33.6059786 18.4714884,33.444431 C18.1617209,33.3475024 17.8268372,33.2442524 17.6028837,33.1796333" id="Stroke-23" stroke="#EBB78A" stroke-width="1.4" stroke-linecap="round"></path>
                        <path d="M0.0609767442,1.11193929 C0.0609767442,1.11193929 -0.626930233,7.48604643 2.61934884,12.8768202 C5.43865116,17.559594 10.2630698,19.3359155 11.0493488,19.598606 C11.8146977,19.8542726 17.0374884,21.0419988 24.7112093,20.2454988 C34.3377209,19.2467131 36.7412093,13.1296774 36.7412093,13.1296774 L29.5893488,5.33465357 L14.5516744,1.24468929 C14.5516744,1.24468929 5.31027907,7.49166548 0.0609767442,1.11193929" id="Fill-29" fill="#5F5C61"></path>
                        <polygon id="Fill-34" fill="#85BAE4" points="1.12255814 69.9452024 8.79697674 69.9452024 8.79697674 68.5404405 1.12255814 68.5404405"></polygon>
                        <polygon id="Fill-38" fill="#85BAE4" points="29.7272093 69.9452024 37.4016279 69.9452024 37.4016279 68.5404405 29.7272093 68.5404405"></polygon>
                        <polygon id="Fill-40" fill="#292929" opacity="0.200000003" points="35.6574419 71.5989916 36.7039535 73.75 36.7039535 69.9452024 34.6109302 69.9452024"></polygon>
                        <path d="M3.05517435,71.8476012 L1.99339918,74.1481559 C1.99339918,74.1481559 1.99339918,72.4638582 1.99339918,71.8476012 C1.99339918,71.2313442 1.99339918,69.9452024 1.99339918,69.9452024 L4.11694951,69.9452024 L3.05517435,71.8476012 Z" id="Fill-40" fill="#292929" opacity="0.200000003"></path>
                        <polygon id="Fill-40" fill="#292929" opacity="0.200000003" transform="translate(21.703953, 96.179131) scale(-1, 1) translate(-21.703953, -96.179131) " points="22.7504651 97.0675751 22.7504651 100.63925 22.7504651 91.7190119 20.6574419 91.7190119"></polygon>
                        <polygon id="Fill-40" fill="#292929" opacity="0.200000003" points="17.8667442 97.0675751 17.8667442 100.63925 17.8667442 91.7190119 15.7737209 91.7190119"></polygon>
                        <path d="M34.6147674,21.5790393 L34.6126744,29.2090036 C34.6119767,33.0875512 31.4884884,36.230706 27.6359302,36.230706 L19.2624419,36.230706 L10.8882558,36.230706 C7.03569767,36.230706 3.9122093,33.0875512 3.91151163,29.2090036 L3.9094186,21.5790393 L3.21593023,21.5790393 L3.21593023,34.8708964 C3.21593023,35.460194 3.2794186,36.0515988 3.44825581,36.6163131 C5.10802326,42.1468607 9.48732558,46.4686107 15.0045349,47.9604679 C15.6854651,48.1444917 18.7189535,48.8735631 19.2624419,48.8735631 C19.8052326,48.8735631 22.8387209,48.1444917 23.5196512,47.9604679 C29.0368605,46.4686107 33.4161628,42.1468607 35.0759302,36.6163131 C35.2454651,36.0515988 35.3089535,35.460194 35.3089535,34.8708964 L35.3089535,21.5790393 L34.6147674,21.5790393 Z" id="Fill-42" fill="#5F5C61"></path>
                        <path d="M23.2100233,38.9217944 C22.586424,40.4918666 21.0615375,41.6008298 19.2792458,41.6008298 C17.4973229,41.6008298 15.9724365,40.4918666 15.3488372,38.9217944 L23.2100233,38.9217944 Z" id="Fill-44" fill="#FEFEFE"></path>
                        <path d="M23.4122346,39.7550429 C23.5300574,39.5312363 23.6341341,39.2968145 23.7209302,39.0526619 L15.3488372,39.0526619 C15.4356333,39.2968145 15.5393173,39.5312363 15.6575329,39.7550429 L23.4122346,39.7550429 Z" id="Fill-46" fill="#292929" opacity="0.200000003"></path>
                        <path d="M27.9069767,26.3392857 C27.9069767,26.9208571 27.4381395,27.3928571 26.8604651,27.3928571 C26.2827907,27.3928571 25.8139535,26.9208571 25.8139535,26.3392857 C25.8139535,25.7577143 26.2827907,25.2857143 26.8604651,25.2857143 C27.4381395,25.2857143 27.9069767,25.7577143 27.9069767,26.3392857" id="Fill-54" fill="#2D2D2D"></path>
                        <path d="M13.255814,26.3392857 C13.255814,26.9208571 12.7869767,27.3928571 12.2093023,27.3928571 C11.6316279,27.3928571 11.1627907,26.9208571 11.1627907,26.3392857 C11.1627907,25.7577143 11.6316279,25.2857143 12.2093023,25.2857143 C12.7869767,25.2857143 13.255814,25.7577143 13.255814,26.3392857" id="Fill-54-Copy" fill="#2D2D2D"></path>
                        <path d="M12.8846512,22.485626 C11.4823256,22.3816736 10.2446512,23.1500784 9.76744186,24.128495" id="Stroke-60" stroke="#4D4C4E" stroke-width="1.4" stroke-linecap="round"></path>
                        <path d="M26.1851163,22.485626 C27.5874419,22.3816736 28.8251163,23.1500784 29.3023256,24.128495" id="Stroke-62" stroke="#4D4C4E" stroke-width="1.4" stroke-linecap="round"></path>
                        <path d="M8.37209302,61.8095238 L29.3023256,61.8095238 C29.3023256,61.8095238 29.782787,66.7064476 29.782787,70.3925198 C29.782787,72.2329133 29.9027298,74.1320401 29.782787,75.3881443 C29.6628441,76.6442485 29.3023256,77.2619048 29.3023256,77.2619048 L9.42430684,76.6349271 C9.42430684,76.6349271 8.37209302,73.058841 8.37209302,70.9605364 L8.37209302,61.8095238 Z" id="Rectangle" fill="#3BABE1"></path>
                        <g id="SwimTrunks" transform="translate(5.581395, 73.047619)">
                            <path d="M23.8749701,1.85812893 C23.839188,1.89857547 23.7970694,1.93605346 23.7571873,1.97464465 C23.8347152,2.05108491 23.8749701,2.12975157 23.8749701,2.20953145 C23.8749701,3.06484591 19.2762252,3.75800314 13.6036448,3.75800314 C7.93106435,3.75800314 3.33231953,3.06484591 3.33231953,2.20953145 C3.33231953,2.12975157 3.37257439,2.05108491 3.45010226,1.97464465 C3.41022013,1.93605346 3.36810162,1.89857547 3.33231953,1.85812893 C3.33231953,1.85812893 1.20216661,6.44788365 0.558834342,15.7602358 C0.558834342,15.7602358 3.03338993,18.9228585 12.2696435,18.9228585 L12.7992931,13.475934 L13.6036448,13.6518208 L14.4079965,13.475934 L14.9376461,18.9228585 C24.1738996,18.9228585 26.6484552,15.7602358 26.6484552,15.7602358 C26.005123,6.44788365 23.8749701,1.85812893 23.8749701,1.85812893" id="Fill-5" fill="#F6A623"></path>
                            <path d="M13.6036448,8.30152264 C18.0812523,8.30152264 21.9766553,7.67775535 25.265999,6.29255409 C24.5570663,3.3291956 23.8749701,1.85827736 23.8749701,1.85827736 C23.839188,1.8987239 23.7970694,1.93583082 23.7571873,1.97442201 C23.8347152,2.05123333 23.8749701,2.12952893 23.8749701,2.20967987 C23.8749701,3.06462327 19.2762252,3.75815157 13.6036448,3.75815157 C7.93106435,3.75815157 3.33231953,3.06462327 3.33231953,2.20967987 C3.33231953,2.12952893 3.37257439,2.05123333 3.45010226,1.97442201 C3.41022013,1.93583082 3.36810162,1.8987239 3.33231953,1.85827736 C3.33231953,1.85827736 2.65022332,3.3291956 1.94129054,6.29255409 C4.85715865,7.50223962 9.12603727,8.30152264 13.6036448,8.30152264" id="Fill-10" fill="#04679E"></path>
                            <path d="M23.8749701,1.85809182 C23.839188,1.89853836 23.7970694,1.93601635 23.7571873,1.97460755 C23.8347152,2.0510478 23.8749701,2.12971447 23.8749701,2.20949434 C23.8749701,2.62917358 22.7657251,3.00989057 20.9669293,3.28856352 C21.5908796,5.50533082 22.7034791,10.3103057 23.2103922,17.7535824 C25.7911759,16.8526264 26.6484552,15.7601987 26.6484552,15.7601987 C26.005123,6.44784654 23.8749701,1.85809182 23.8749701,1.85809182" id="Fill-18" fill-opacity="0.0899569746" fill="#010201"></path>
                            <path d="M8.68047563,10.663378 C8.37409143,7.61504465 10.0200679,5.49030252 10.0901411,5.40124591 C10.280979,5.15967987 10.6328363,5.11774906 10.8751109,5.30736541 C11.1177582,5.49698176 11.1602494,5.84615786 10.9701571,6.0877239 C10.9559933,6.10627736 9.53290953,7.96422075 9.79270245,10.5527994 C9.82363906,10.8585604 9.59962823,11.1312962 9.29212584,11.162095 C9.27348933,11.1639503 9.25448009,11.1646925 9.23584358,11.1646925 C8.95219592,11.1646925 8.70917585,10.9505855 8.68047563,10.663378 Z" id="Fill-14" fill="#02486F"></path>
                            <path d="M17.2353785,11.1646925 C17.216742,11.1646925 17.1977327,11.1639503 17.1790962,11.162095 C16.8715938,11.1312962 16.647583,10.8585604 16.6785196,10.5527994 C16.9383125,7.96422075 15.5156015,6.10627736 15.5014377,6.0877239 C15.3120908,5.84541572 15.3553275,5.49586855 15.5979748,5.30699434 C15.8406222,5.11812013 16.1906158,5.15967987 16.3814536,5.40124591 C16.4515269,5.49030252 18.0975033,7.61504465 17.7907464,10.663378 C17.7620462,10.9505855 17.5190261,11.1646925 17.2353785,11.1646925" id="Fill-16" fill="#02486F"></path>
                        </g>
                    </g>
                    <g id="shoe" transform="translate(18.139535, 96.226190)">
                        <path d="M3.2528309,2.11344428 C3.2528309,-0.171131933 5.80357844,0.00554084186 5.80357844,0.00554084186 C5.80357844,0.00554084186 8.37416643,-0.203741807 8.37416643,1.95011334 C8.37416643,4.10396848 8.66443713,8.66978238 8.4995447,11.384891 C8.33465227,14.0999996 6.43530486,14.5819694 6.43530486,14.5819694 C6.43530486,14.5819694 3.30034793,14.8770093 3.30034793,11.4569067 C3.30034793,11.4569067 3.2528309,4.39802049 3.2528309,2.11344428 Z" id="Path-4" fill="#D14747"></path>
                        <g id="Group-2" transform="translate(0.534389, 1.452806)" fill="#F55858">
                            <path d="M0.82916512,0.512014236 C0.82916512,0.512014236 1.36596042,1.04631526 0.946432809,4.43534132 C0.526905199,7.82436737 0.406760835,7.26965069 0.406760835,9.83952215 C0.406760835,12.4093936 0.641183564,13.325236 0.641183564,13.325236 C0.641183564,13.325236 0.944528662,16.5706689 3.74305183,16.5706689 C6.54157499,16.5706689 7.34040896,16.5822168 7.34040896,16.5822168 C7.34040896,16.5822168 9.56708324,16.7914376 9.89755487,13.4225757 C10.0731393,11.7939143 10.0839677,10.5083733 10.0839677,10.1739477 C10.0839677,10.0433828 6.11950366,13.219608 3.93659225,10.5758146 C1.75368083,7.93202124 3.9966986,1.8933178 3.74305183,1.62293192 C1.71761053,-0.536175861 0.901626289,0.258649487 0.901626289,0.258649487" id="Path-3"></path>
                            <path d="M0.82916512,0.512014236 C0.82916512,0.512014236 1.36596042,1.04631526 0.946432809,4.43534132 C0.526905199,7.82436737 0.406760835,7.26965069 0.406760835,9.83952215 C0.406760835,12.4093936 0.641183564,13.325236 0.641183564,13.325236 C0.641183564,13.325236 0.944528662,16.5706689 3.74305183,16.5706689 C6.54157499,16.5706689 7.34040896,16.5822168 7.34040896,16.5822168 C7.34040896,16.5822168 9.56708324,16.7914376 9.89755487,13.4225757 C10.0731393,11.7939143 10.0839677,10.5083733 10.0839677,10.1739477 C10.0839677,10.0433828 6.11950366,13.219608 3.93659225,10.5758146 C1.75368083,7.93202124 3.9966986,1.8933178 3.74305183,1.62293192 C1.71761053,-0.536175861 0.901626289,0.258649487 0.901626289,0.258649487" id="Path-3-Copy-2" transform="translate(5.245364, 8.350249) scale(-1, 1) translate(-5.245364, -8.350249) "></path>
                        </g>
                        <path d="M0.916435461,13.0753669 C0.916435461,15.8351688 0.972919123,17.1904226 1.7385643,18.3311373 C2.50420948,19.471852 3.80896421,20.3397503 5.89011634,20.3397503 C8.22379945,20.3397503 9.11840686,19.7137517 9.7451486,18.4637529 C10.3718903,17.2137542 10.7055815,16.0005506 10.7055815,13.2115069 C10.9006278,12.628334 6.47784897,15.9235593 0.916435461,13.0753669 Z" id="Path-2" stroke="#E7DDDD" stroke-width="0.5" fill="#FFFFFF" transform="translate(5.814114, 16.707559) rotate(-1.000000) translate(-5.814114, -16.707559) "></path>
                        <path d="M1.45821081,12.8738473 C1.45821081,15.3453051 1.50879306,16.558962 2.19444362,17.5804948 C2.88009418,18.6020276 4.04852814,19.3792479 5.91224147,19.3792479 C8.00210135,19.3792479 8.80324017,18.8186536 9.36449992,17.6992548 C9.92575967,16.5798559 10.2245868,15.4934079 10.2245868,12.9957634 C10.3992546,12.4735205 6.43856779,15.4244606 1.45821081,12.8738473 Z" id="Path-2-Copy" stroke="#F55858" stroke-width="0.5" fill="#FFFFFF" transform="translate(5.844180, 16.126548) rotate(-1.000000) translate(-5.844180, -16.126548) "></path>
                        <g id="shoestring" transform="translate(5.687446, 11.081960) rotate(90.000000) translate(-5.687446, -11.081960) translate(4.885862, 7.934213)">
                            <path d="M0.997520702,6.19284967 C1.15426104,6.19284967 1.28132418,5.94712442 1.28132418,5.64400695 C1.28132418,5.34088948 1.15426104,5.09516422 0.997520702,5.09516422 C0.840780368,5.09516422 0.713717222,5.34088948 0.713717222,5.64400695 C0.713717222,5.94712442 0.840780368,6.19284967 0.997520702,6.19284967 Z" id="Oval-3" fill="#D8D8D8" transform="translate(0.997521, 5.644007) rotate(90.000000) translate(-0.997521, -5.644007) "></path>
                            <path id="Oval-3-Copy" fill="#FEFCFC"></path>
                            <path d="M0.997520702,0.865893125 C1.15426104,0.865893125 1.28132418,0.620167866 1.28132418,0.317050397 C1.28132418,0.0139329288 1.15426104,-0.23179233 0.997520702,-0.23179233 C0.840780368,-0.23179233 0.713717222,0.0139329288 0.713717222,0.317050397 C0.713717222,0.620167866 0.840780368,0.865893125 0.997520702,0.865893125 Z" id="Oval-3-Copy-3" fill="#D8D8D8" transform="translate(0.997521, 0.317050) rotate(90.000000) translate(-0.997521, -0.317050) "></path>
                            <path id="Oval-3-Copy-2" fill="#FEFCFC"></path>
                            <use id="Rectangle-9" stroke="#8E8686" mask="url(#mask-6)" fill="#FFFFFF" xlink:href="#path-5"></use>
                        </g>
                        <g id="shoestring-copy" transform="translate(5.687446, 9.629154) rotate(90.000000) translate(-5.687446, -9.629154) translate(4.885862, 6.481407)">
                            <path d="M0.997520702,6.19284967 C1.15426104,6.19284967 1.28132418,5.94712442 1.28132418,5.64400695 C1.28132418,5.34088948 1.15426104,5.09516422 0.997520702,5.09516422 C0.840780368,5.09516422 0.713717222,5.34088948 0.713717222,5.64400695 C0.713717222,5.94712442 0.840780368,6.19284967 0.997520702,6.19284967 Z" id="Oval-3" fill="#D8D8D8" transform="translate(0.997521, 5.644007) rotate(90.000000) translate(-0.997521, -5.644007) "></path>
                            <path id="Oval-3-Copy" fill="#FEFCFC"></path>
                            <path d="M0.997520702,0.865893125 C1.15426104,0.865893125 1.28132418,0.620167866 1.28132418,0.317050397 C1.28132418,0.0139329288 1.15426104,-0.23179233 0.997520702,-0.23179233 C0.840780368,-0.23179233 0.713717222,0.0139329288 0.713717222,0.317050397 C0.713717222,0.620167866 0.840780368,0.865893125 0.997520702,0.865893125 Z" id="Oval-3-Copy-3" fill="#D8D8D8" transform="translate(0.997521, 0.317050) rotate(90.000000) translate(-0.997521, -0.317050) "></path>
                            <path id="Oval-3-Copy-2" fill="#FEFCFC"></path>
                            <use id="Rectangle-9" stroke="#8E8686" mask="url(#mask-8)" fill="#FFFFFF" xlink:href="#path-7"></use>
                        </g>
                        <g id="shoestring-copy-2" transform="translate(5.687446, 8.176348) rotate(90.000000) translate(-5.687446, -8.176348) translate(4.885862, 5.028601)">
                            <path d="M0.997520702,6.19284967 C1.15426104,6.19284967 1.28132418,5.94712442 1.28132418,5.64400695 C1.28132418,5.34088948 1.15426104,5.09516422 0.997520702,5.09516422 C0.840780368,5.09516422 0.713717222,5.34088948 0.713717222,5.64400695 C0.713717222,5.94712442 0.840780368,6.19284967 0.997520702,6.19284967 Z" id="Oval-3" fill="#D8D8D8" transform="translate(0.997521, 5.644007) rotate(90.000000) translate(-0.997521, -5.644007) "></path>
                            <path id="Oval-3-Copy" fill="#FEFCFC"></path>
                            <path d="M0.997520702,0.865893125 C1.15426104,0.865893125 1.28132418,0.620167866 1.28132418,0.317050397 C1.28132418,0.0139329288 1.15426104,-0.23179233 0.997520702,-0.23179233 C0.840780368,-0.23179233 0.713717222,0.0139329288 0.713717222,0.317050397 C0.713717222,0.620167866 0.840780368,0.865893125 0.997520702,0.865893125 Z" id="Oval-3-Copy-3" fill="#D8D8D8" transform="translate(0.997521, 0.317050) rotate(90.000000) translate(-0.997521, -0.317050) "></path>
                            <path id="Oval-3-Copy-2" fill="#FEFCFC"></path>
                            <use id="Rectangle-9" stroke="#8E8686" mask="url(#mask-10)" fill="#FFFFFF" xlink:href="#path-9"></use>
                        </g>
                        <g id="shoestring-copy-3" transform="translate(5.687446, 6.723541) rotate(90.000000) translate(-5.687446, -6.723541) translate(4.885862, 3.575794)">
                            <path d="M0.997520702,6.19284967 C1.15426104,6.19284967 1.28132418,5.94712442 1.28132418,5.64400695 C1.28132418,5.34088948 1.15426104,5.09516422 0.997520702,5.09516422 C0.840780368,5.09516422 0.713717222,5.34088948 0.713717222,5.64400695 C0.713717222,5.94712442 0.840780368,6.19284967 0.997520702,6.19284967 Z" id="Oval-3" fill="#D8D8D8" transform="translate(0.997521, 5.644007) rotate(90.000000) translate(-0.997521, -5.644007) "></path>
                            <path id="Oval-3-Copy" fill="#FEFCFC"></path>
                            <path d="M0.997520702,0.865893125 C1.15426104,0.865893125 1.28132418,0.620167866 1.28132418,0.317050397 C1.28132418,0.0139329288 1.15426104,-0.23179233 0.997520702,-0.23179233 C0.840780368,-0.23179233 0.713717222,0.0139329288 0.713717222,0.317050397 C0.713717222,0.620167866 0.840780368,0.865893125 0.997520702,0.865893125 Z" id="Oval-3-Copy-3" fill="#D8D8D8" transform="translate(0.997521, 0.317050) rotate(90.000000) translate(-0.997521, -0.317050) "></path>
                            <path id="Oval-3-Copy-2" fill="#FEFCFC"></path>
                            <use id="Rectangle-9" stroke="#8E8686" mask="url(#mask-12)" fill="#FFFFFF" xlink:href="#path-11"></use>
                        </g>
                        <g id="shoestring-copy-4" transform="translate(5.687446, 5.270735) rotate(90.000000) translate(-5.687446, -5.270735) translate(4.885862, 2.122988)">
                            <path d="M0.997520702,6.19284967 C1.15426104,6.19284967 1.28132418,5.94712442 1.28132418,5.64400695 C1.28132418,5.34088948 1.15426104,5.09516422 0.997520702,5.09516422 C0.840780368,5.09516422 0.713717222,5.34088948 0.713717222,5.64400695 C0.713717222,5.94712442 0.840780368,6.19284967 0.997520702,6.19284967 Z" id="Oval-3" fill="#D8D8D8" transform="translate(0.997521, 5.644007) rotate(90.000000) translate(-0.997521, -5.644007) "></path>
                            <path id="Oval-3-Copy" fill="#FEFCFC"></path>
                            <path d="M0.997520702,0.865893125 C1.15426104,0.865893125 1.28132418,0.620167866 1.28132418,0.317050397 C1.28132418,0.0139329288 1.15426104,-0.23179233 0.997520702,-0.23179233 C0.840780368,-0.23179233 0.713717222,0.0139329288 0.713717222,0.317050397 C0.713717222,0.620167866 0.840780368,0.865893125 0.997520702,0.865893125 Z" id="Oval-3-Copy-3" fill="#D8D8D8" transform="translate(0.997521, 0.317050) rotate(90.000000) translate(-0.997521, -0.317050) "></path>
                            <path id="Oval-3-Copy-2" fill="#FEFCFC"></path>
                            <use id="Rectangle-9" stroke="#8E8686" mask="url(#mask-14)" fill="#FFFFFF" xlink:href="#path-13"></use>
                        </g>
                        <g id="shoestring-copy-5" transform="translate(5.687446, 3.817929) rotate(90.000000) translate(-5.687446, -3.817929) translate(4.885862, 0.670182)">
                            <path d="M0.997520702,6.19284967 C1.15426104,6.19284967 1.28132418,5.94712442 1.28132418,5.64400695 C1.28132418,5.34088948 1.15426104,5.09516422 0.997520702,5.09516422 C0.840780368,5.09516422 0.713717222,5.34088948 0.713717222,5.64400695 C0.713717222,5.94712442 0.840780368,6.19284967 0.997520702,6.19284967 Z" id="Oval-3" fill="#D8D8D8" transform="translate(0.997521, 5.644007) rotate(90.000000) translate(-0.997521, -5.644007) "></path>
                            <path id="Oval-3-Copy" fill="#FEFCFC"></path>
                            <path d="M0.997520702,0.865893125 C1.15426104,0.865893125 1.28132418,0.620167866 1.28132418,0.317050397 C1.28132418,0.0139329288 1.15426104,-0.23179233 0.997520702,-0.23179233 C0.840780368,-0.23179233 0.713717222,0.0139329288 0.713717222,0.317050397 C0.713717222,0.620167866 0.840780368,0.865893125 0.997520702,0.865893125 Z" id="Oval-3-Copy-3" fill="#D8D8D8" transform="translate(0.997521, 0.317050) rotate(90.000000) translate(-0.997521, -0.317050) "></path>
                            <path id="Oval-3-Copy-2" fill="#FEFCFC"></path>
                        </g>
                        <path d="M2.12356417,3.96997163 C-0.302830407,6.28848257 2.62663607,7.34926728 0.650639481,9.43026147 C0.650639481,9.43026147 0.426922888,9.62260456 0.508649777,9.7877069 C0.590376665,9.95280924 0.752090323,10.088872 0.896237797,9.92641223 C1.04038527,9.76395242 1.32321718,9.35044205 1.47685308,8.94574733 C1.63048899,8.5410526 1.80214333,8.0660064 1.63949821,7.25535758 C1.47685308,6.44470875 1.47685308,6.17107623 1.47685308,6.17107623 C1.47685308,6.17107623 1.35278466,5.67900671 1.70984677,5.18902167 C1.92347855,4.86502217 2.337425,4.42822686 2.337425,4.42822686 C2.337425,4.42822686 2.89809968,4.04398618 2.58062062,3.86754293 C2.26314156,3.69109968 2.12356417,3.96997163 2.12356417,3.96997163 Z" id="Path-5" stroke="#979797" stroke-width="0.5" fill="#FFFFFF" transform="translate(1.584331, 6.904267) rotate(7.000000) translate(-1.584331, -6.904267) "></path>
                        <path d="M10.6541661,4.20139298 C9.79113134,5.02605506 9.75915459,5.75301005 9.79917272,6.41598104 C9.83115964,6.94590087 10.1718637,7.8794145 9.69589273,8.98896391 C9.57618286,9.26802298 9.42784706,9.6033697 9.3828425,9.72853518 C9.33783793,9.85370067 9.43157186,9.79175688 9.24032434,9.99316663 C9.24032434,9.99316663 9.01660775,10.1855097 9.09833463,10.3506121 C9.18006152,10.5157144 9.34177518,10.6517772 9.48592265,10.4893174 C9.63007013,10.3268576 9.98744461,9.3441232 10.1410805,8.93942847 C10.2947164,8.53473375 10.4663708,8.05968755 10.3037256,7.24903872 C10.1410805,6.4383899 10.1410805,6.16475738 10.1410805,6.16475738 C10.1410805,6.16475738 10.0170121,5.67268786 10.3740742,5.18270282 C10.587706,4.85870332 11.0016524,4.42190801 11.0016524,4.42190801 C11.0016524,4.42190801 11.5623271,4.03766733 11.244848,3.86122408 C10.927369,3.68478083 10.6541661,4.20139298 10.6541661,4.20139298 Z" id="Path-5-Copy" stroke="#979797" stroke-width="0.5" fill="#FFFFFF" transform="translate(10.211287, 7.193452) scale(-1, 1) rotate(7.000000) translate(-10.211287, -7.193452) "></path>
                    </g>
                    <g id="shoe-copy" transform="translate(29.569520, 96.226190)">
                        <path d="M3.2528309,2.11344428 C3.2528309,-0.171131933 5.80357844,0.00554084186 5.80357844,0.00554084186 C5.80357844,0.00554084186 8.37416643,-0.203741807 8.37416643,1.95011334 C8.37416643,4.10396848 8.66443713,8.66978238 8.4995447,11.384891 C8.33465227,14.0999996 6.43530486,14.5819694 6.43530486,14.5819694 C6.43530486,14.5819694 3.30034793,14.8770093 3.30034793,11.4569067 C3.30034793,11.4569067 3.2528309,4.39802049 3.2528309,2.11344428 Z" id="Path-4" fill="#D14747"></path>
                        <g id="Group-2" transform="translate(0.534389, 1.452806)" fill="#F55858">
                            <path d="M0.82916512,0.512014236 C0.82916512,0.512014236 1.36596042,1.04631526 0.946432809,4.43534132 C0.526905199,7.82436737 0.406760835,7.26965069 0.406760835,9.83952215 C0.406760835,12.4093936 0.641183564,13.325236 0.641183564,13.325236 C0.641183564,13.325236 0.944528662,16.5706689 3.74305183,16.5706689 C6.54157499,16.5706689 7.34040896,16.5822168 7.34040896,16.5822168 C7.34040896,16.5822168 9.56708324,16.7914376 9.89755487,13.4225757 C10.0731393,11.7939143 10.0839677,10.5083733 10.0839677,10.1739477 C10.0839677,10.0433828 6.11950366,13.219608 3.93659225,10.5758146 C1.75368083,7.93202124 3.9966986,1.8933178 3.74305183,1.62293192 C1.71761053,-0.536175861 0.901626289,0.258649487 0.901626289,0.258649487" id="Path-3"></path>
                            <path d="M0.82916512,0.512014236 C0.82916512,0.512014236 1.36596042,1.04631526 0.946432809,4.43534132 C0.526905199,7.82436737 0.406760835,7.26965069 0.406760835,9.83952215 C0.406760835,12.4093936 0.641183564,13.325236 0.641183564,13.325236 C0.641183564,13.325236 0.944528662,16.5706689 3.74305183,16.5706689 C6.54157499,16.5706689 7.34040896,16.5822168 7.34040896,16.5822168 C7.34040896,16.5822168 9.56708324,16.7914376 9.89755487,13.4225757 C10.0731393,11.7939143 10.0839677,10.5083733 10.0839677,10.1739477 C10.0839677,10.0433828 6.11950366,13.219608 3.93659225,10.5758146 C1.75368083,7.93202124 3.9966986,1.8933178 3.74305183,1.62293192 C1.71761053,-0.536175861 0.901626289,0.258649487 0.901626289,0.258649487" id="Path-3-Copy-2" transform="translate(5.245364, 8.350249) scale(-1, 1) translate(-5.245364, -8.350249) "></path>
                        </g>
                        <path d="M0.916435461,13.0753669 C0.916435461,15.8351688 0.972919123,17.1904226 1.7385643,18.3311373 C2.50420948,19.471852 3.80896421,20.3397503 5.89011634,20.3397503 C8.22379945,20.3397503 9.11840686,19.7137517 9.7451486,18.4637529 C10.3718903,17.2137542 10.7055815,16.0005506 10.7055815,13.2115069 C10.9006278,12.628334 6.47784897,15.9235593 0.916435461,13.0753669 Z" id="Path-2" stroke="#E7DDDD" stroke-width="0.5" fill="#FFFFFF" transform="translate(5.814114, 16.707559) rotate(-1.000000) translate(-5.814114, -16.707559) "></path>
                        <path d="M1.45821081,12.8738473 C1.45821081,15.3453051 1.50879306,16.558962 2.19444362,17.5804948 C2.88009418,18.6020276 4.04852814,19.3792479 5.91224147,19.3792479 C8.00210135,19.3792479 8.80324017,18.8186536 9.36449992,17.6992548 C9.92575967,16.5798559 10.2245868,15.4934079 10.2245868,12.9957634 C10.3992546,12.4735205 6.43856779,15.4244606 1.45821081,12.8738473 Z" id="Path-2-Copy" stroke="#F55858" stroke-width="0.5" fill="#FFFFFF" transform="translate(5.844180, 16.126548) rotate(-1.000000) translate(-5.844180, -16.126548) "></path>
                        <g id="shoestring" transform="translate(5.687446, 11.081960) rotate(90.000000) translate(-5.687446, -11.081960) translate(4.885862, 7.934213)">
                            <path d="M0.997520702,6.19284967 C1.15426104,6.19284967 1.28132418,5.94712442 1.28132418,5.64400695 C1.28132418,5.34088948 1.15426104,5.09516422 0.997520702,5.09516422 C0.840780368,5.09516422 0.713717222,5.34088948 0.713717222,5.64400695 C0.713717222,5.94712442 0.840780368,6.19284967 0.997520702,6.19284967 Z" id="Oval-3" fill="#D8D8D8" transform="translate(0.997521, 5.644007) rotate(90.000000) translate(-0.997521, -5.644007) "></path>
                            <path id="Oval-3-Copy" fill="#FEFCFC"></path>
                            <path d="M0.997520702,0.865893125 C1.15426104,0.865893125 1.28132418,0.620167866 1.28132418,0.317050397 C1.28132418,0.0139329288 1.15426104,-0.23179233 0.997520702,-0.23179233 C0.840780368,-0.23179233 0.713717222,0.0139329288 0.713717222,0.317050397 C0.713717222,0.620167866 0.840780368,0.865893125 0.997520702,0.865893125 Z" id="Oval-3-Copy-3" fill="#D8D8D8" transform="translate(0.997521, 0.317050) rotate(90.000000) translate(-0.997521, -0.317050) "></path>
                            <path id="Oval-3-Copy-2" fill="#FEFCFC"></path>
                            <use id="Rectangle-9" stroke="#8E8686" mask="url(#mask-16)" fill="#FFFFFF" xlink:href="#path-15"></use>
                        </g>
                        <g id="shoestring-copy" transform="translate(5.687446, 9.629154) rotate(90.000000) translate(-5.687446, -9.629154) translate(4.885862, 6.481407)">
                            <path d="M0.997520702,6.19284967 C1.15426104,6.19284967 1.28132418,5.94712442 1.28132418,5.64400695 C1.28132418,5.34088948 1.15426104,5.09516422 0.997520702,5.09516422 C0.840780368,5.09516422 0.713717222,5.34088948 0.713717222,5.64400695 C0.713717222,5.94712442 0.840780368,6.19284967 0.997520702,6.19284967 Z" id="Oval-3" fill="#D8D8D8" transform="translate(0.997521, 5.644007) rotate(90.000000) translate(-0.997521, -5.644007) "></path>
                            <path id="Oval-3-Copy" fill="#FEFCFC"></path>
                            <path d="M0.997520702,0.865893125 C1.15426104,0.865893125 1.28132418,0.620167866 1.28132418,0.317050397 C1.28132418,0.0139329288 1.15426104,-0.23179233 0.997520702,-0.23179233 C0.840780368,-0.23179233 0.713717222,0.0139329288 0.713717222,0.317050397 C0.713717222,0.620167866 0.840780368,0.865893125 0.997520702,0.865893125 Z" id="Oval-3-Copy-3" fill="#D8D8D8" transform="translate(0.997521, 0.317050) rotate(90.000000) translate(-0.997521, -0.317050) "></path>
                            <path id="Oval-3-Copy-2" fill="#FEFCFC"></path>
                            <use id="Rectangle-9" stroke="#8E8686" mask="url(#mask-18)" fill="#FFFFFF" xlink:href="#path-17"></use>
                        </g>
                        <g id="shoestring-copy-2" transform="translate(5.687446, 8.176348) rotate(90.000000) translate(-5.687446, -8.176348) translate(4.885862, 5.028601)">
                            <path d="M0.997520702,6.19284967 C1.15426104,6.19284967 1.28132418,5.94712442 1.28132418,5.64400695 C1.28132418,5.34088948 1.15426104,5.09516422 0.997520702,5.09516422 C0.840780368,5.09516422 0.713717222,5.34088948 0.713717222,5.64400695 C0.713717222,5.94712442 0.840780368,6.19284967 0.997520702,6.19284967 Z" id="Oval-3" fill="#D8D8D8" transform="translate(0.997521, 5.644007) rotate(90.000000) translate(-0.997521, -5.644007) "></path>
                            <path id="Oval-3-Copy" fill="#FEFCFC"></path>
                            <path d="M0.997520702,0.865893125 C1.15426104,0.865893125 1.28132418,0.620167866 1.28132418,0.317050397 C1.28132418,0.0139329288 1.15426104,-0.23179233 0.997520702,-0.23179233 C0.840780368,-0.23179233 0.713717222,0.0139329288 0.713717222,0.317050397 C0.713717222,0.620167866 0.840780368,0.865893125 0.997520702,0.865893125 Z" id="Oval-3-Copy-3" fill="#D8D8D8" transform="translate(0.997521, 0.317050) rotate(90.000000) translate(-0.997521, -0.317050) "></path>
                            <path id="Oval-3-Copy-2" fill="#FEFCFC"></path>
                            <use id="Rectangle-9" stroke="#8E8686" mask="url(#mask-20)" fill="#FFFFFF" xlink:href="#path-19"></use>
                        </g>
                        <g id="shoestring-copy-3" transform="translate(5.687446, 6.723541) rotate(90.000000) translate(-5.687446, -6.723541) translate(4.885862, 3.575794)">
                            <path d="M0.997520702,6.19284967 C1.15426104,6.19284967 1.28132418,5.94712442 1.28132418,5.64400695 C1.28132418,5.34088948 1.15426104,5.09516422 0.997520702,5.09516422 C0.840780368,5.09516422 0.713717222,5.34088948 0.713717222,5.64400695 C0.713717222,5.94712442 0.840780368,6.19284967 0.997520702,6.19284967 Z" id="Oval-3" fill="#D8D8D8" transform="translate(0.997521, 5.644007) rotate(90.000000) translate(-0.997521, -5.644007) "></path>
                            <path id="Oval-3-Copy" fill="#FEFCFC"></path>
                            <path d="M0.997520702,0.865893125 C1.15426104,0.865893125 1.28132418,0.620167866 1.28132418,0.317050397 C1.28132418,0.0139329288 1.15426104,-0.23179233 0.997520702,-0.23179233 C0.840780368,-0.23179233 0.713717222,0.0139329288 0.713717222,0.317050397 C0.713717222,0.620167866 0.840780368,0.865893125 0.997520702,0.865893125 Z" id="Oval-3-Copy-3" fill="#D8D8D8" transform="translate(0.997521, 0.317050) rotate(90.000000) translate(-0.997521, -0.317050) "></path>
                            <path id="Oval-3-Copy-2" fill="#FEFCFC"></path>
                            <use id="Rectangle-9" stroke="#8E8686" mask="url(#mask-22)" fill="#FFFFFF" xlink:href="#path-21"></use>
                        </g>
                        <g id="shoestring-copy-4" transform="translate(5.687446, 5.270735) rotate(90.000000) translate(-5.687446, -5.270735) translate(4.885862, 2.122988)">
                            <path d="M0.997520702,6.19284967 C1.15426104,6.19284967 1.28132418,5.94712442 1.28132418,5.64400695 C1.28132418,5.34088948 1.15426104,5.09516422 0.997520702,5.09516422 C0.840780368,5.09516422 0.713717222,5.34088948 0.713717222,5.64400695 C0.713717222,5.94712442 0.840780368,6.19284967 0.997520702,6.19284967 Z" id="Oval-3" fill="#D8D8D8" transform="translate(0.997521, 5.644007) rotate(90.000000) translate(-0.997521, -5.644007) "></path>
                            <path id="Oval-3-Copy" fill="#FEFCFC"></path>
                            <path d="M0.997520702,0.865893125 C1.15426104,0.865893125 1.28132418,0.620167866 1.28132418,0.317050397 C1.28132418,0.0139329288 1.15426104,-0.23179233 0.997520702,-0.23179233 C0.840780368,-0.23179233 0.713717222,0.0139329288 0.713717222,0.317050397 C0.713717222,0.620167866 0.840780368,0.865893125 0.997520702,0.865893125 Z" id="Oval-3-Copy-3" fill="#D8D8D8" transform="translate(0.997521, 0.317050) rotate(90.000000) translate(-0.997521, -0.317050) "></path>
                            <path id="Oval-3-Copy-2" fill="#FEFCFC"></path>
                            <use id="Rectangle-9" stroke="#8E8686" mask="url(#mask-24)" fill="#FFFFFF" xlink:href="#path-23"></use>
                        </g>
                        <g id="shoestring-copy-5" transform="translate(5.687446, 3.817929) rotate(90.000000) translate(-5.687446, -3.817929) translate(4.885862, 0.670182)">
                            <path d="M0.997520702,6.19284967 C1.15426104,6.19284967 1.28132418,5.94712442 1.28132418,5.64400695 C1.28132418,5.34088948 1.15426104,5.09516422 0.997520702,5.09516422 C0.840780368,5.09516422 0.713717222,5.34088948 0.713717222,5.64400695 C0.713717222,5.94712442 0.840780368,6.19284967 0.997520702,6.19284967 Z" id="Oval-3" fill="#D8D8D8" transform="translate(0.997521, 5.644007) rotate(90.000000) translate(-0.997521, -5.644007) "></path>
                            <path id="Oval-3-Copy" fill="#FEFCFC"></path>
                            <path d="M0.997520702,0.865893125 C1.15426104,0.865893125 1.28132418,0.620167866 1.28132418,0.317050397 C1.28132418,0.0139329288 1.15426104,-0.23179233 0.997520702,-0.23179233 C0.840780368,-0.23179233 0.713717222,0.0139329288 0.713717222,0.317050397 C0.713717222,0.620167866 0.840780368,0.865893125 0.997520702,0.865893125 Z" id="Oval-3-Copy-3" fill="#D8D8D8" transform="translate(0.997521, 0.317050) rotate(90.000000) translate(-0.997521, -0.317050) "></path>
                            <path id="Oval-3-Copy-2" fill="#FEFCFC"></path>
                        </g>
                        <path d="M2.12356417,3.96997163 C-0.302830407,6.28848257 2.62663607,7.34926728 0.650639481,9.43026147 C0.650639481,9.43026147 0.426922888,9.62260456 0.508649777,9.7877069 C0.590376665,9.95280924 0.752090323,10.088872 0.896237797,9.92641223 C1.04038527,9.76395242 1.32321718,9.35044205 1.47685308,8.94574733 C1.63048899,8.5410526 1.80214333,8.0660064 1.63949821,7.25535758 C1.47685308,6.44470875 1.47685308,6.17107623 1.47685308,6.17107623 C1.47685308,6.17107623 1.35278466,5.67900671 1.70984677,5.18902167 C1.92347855,4.86502217 2.337425,4.42822686 2.337425,4.42822686 C2.337425,4.42822686 2.89809968,4.04398618 2.58062062,3.86754293 C2.26314156,3.69109968 2.12356417,3.96997163 2.12356417,3.96997163 Z" id="Path-5" stroke="#979797" stroke-width="0.5" fill="#FFFFFF" transform="translate(1.584331, 6.904267) rotate(7.000000) translate(-1.584331, -6.904267) "></path>
                        <path d="M10.6541661,4.20139298 C9.79113134,5.02605506 9.75915459,5.75301005 9.79917272,6.41598104 C9.83115964,6.94590087 10.1718637,7.8794145 9.69589273,8.98896391 C9.57618286,9.26802298 9.42784706,9.6033697 9.3828425,9.72853518 C9.33783793,9.85370067 9.43157186,9.79175688 9.24032434,9.99316663 C9.24032434,9.99316663 9.01660775,10.1855097 9.09833463,10.3506121 C9.18006152,10.5157144 9.34177518,10.6517772 9.48592265,10.4893174 C9.63007013,10.3268576 9.98744461,9.3441232 10.1410805,8.93942847 C10.2947164,8.53473375 10.4663708,8.05968755 10.3037256,7.24903872 C10.1410805,6.4383899 10.1410805,6.16475738 10.1410805,6.16475738 C10.1410805,6.16475738 10.0170121,5.67268786 10.3740742,5.18270282 C10.587706,4.85870332 11.0016524,4.42190801 11.0016524,4.42190801 C11.0016524,4.42190801 11.5623271,4.03766733 11.244848,3.86122408 C10.927369,3.68478083 10.6541661,4.20139298 10.6541661,4.20139298 Z" id="Path-5-Copy" stroke="#979797" stroke-width="0.5" fill="#FFFFFF" transform="translate(10.211287, 7.193452) scale(-1, 1) rotate(7.000000) translate(-10.211287, -7.193452) "></path>
                    </g>
                </g>
            </g>
        </g>
    </g>
</svg>