<?xml version="1.0" encoding="UTF-8"?>
<svg width="110px" height="182px" viewBox="0 0 110 182" version="1.1" xmlns="http://www.w3.org/2000/svg" xmlns:xlink="http://www.w3.org/1999/xlink">
    <!-- Generator: Sketch 42 (36781) - http://www.bohemiancoding.com/sketch -->
    <title>Robert</title>
    <desc>Created with Sketch.</desc>
    <defs>
        <rect id="path-1" x="0" y="0" width="110" height="182"></rect>
        <polygon id="path-3" points="54.609 54.6916033 54.609 0.393260773 0.6091 0.393260773 0.6091 54.6916033 54.609 54.6916033"></polygon>
        <path d="M1.01404945,0.282661687 C1.01404945,0.282661687 1.14364105,0.085702046 1.40541971,0.085702046 C1.66719837,0.085702046 1.82761943,0.282661687 1.82761943,0.282661687 C1.82761943,0.282661687 1.71306912,0.369173907 1.70658256,0.575795147 C1.70009599,0.782416388 1.72623183,3.64381187 1.70658256,5.6611541 C1.68195671,8.18942795 1.7502264,8.19932283 1.7502264,8.19932283 C1.7502264,8.19932283 1.6900549,8.33248153 1.40541971,8.34708262 C1.12078452,8.3616837 1.01404945,8.17300084 1.01404945,8.17300084 C1.01404945,8.17300084 1.14364105,7.88647792 1.14364105,6.02847088 C1.14364105,4.17046385 1.14212903,2.64148806 1.14364105,1.79831496 C1.1461262,0.412470096 1.01404945,0.282661687 1.01404945,0.282661687 Z" id="path-5"></path>
        <mask id="mask-6" maskContentUnits="userSpaceOnUse" maskUnits="objectBoundingBox" x="0" y="0" width="0.813569978" height="8.26218629" fill="white">
            <use xlink:href="#path-5"></use>
        </mask>
        <path d="M1.01404945,0.282661687 C1.01404945,0.282661687 1.14364105,0.085702046 1.40541971,0.085702046 C1.66719837,0.085702046 1.82761943,0.282661687 1.82761943,0.282661687 C1.82761943,0.282661687 1.71306912,0.369173907 1.70658256,0.575795147 C1.70009599,0.782416388 1.72623183,3.64381187 1.70658256,5.6611541 C1.68195671,8.18942795 1.7502264,8.19932283 1.7502264,8.19932283 C1.7502264,8.19932283 1.6900549,8.33248153 1.40541971,8.34708262 C1.12078452,8.3616837 1.01404945,8.17300084 1.01404945,8.17300084 C1.01404945,8.17300084 1.14364105,7.88647792 1.14364105,6.02847088 C1.14364105,4.17046385 1.14212903,2.64148806 1.14364105,1.79831496 C1.1461262,0.412470096 1.01404945,0.282661687 1.01404945,0.282661687 Z" id="path-7"></path>
        <mask id="mask-8" maskContentUnits="userSpaceOnUse" maskUnits="objectBoundingBox" x="0" y="0" width="0.813569978" height="8.26218629" fill="white">
            <use xlink:href="#path-7"></use>
        </mask>
        <path d="M1.01404945,0.282661687 C1.01404945,0.282661687 1.14364105,0.085702046 1.40541971,0.085702046 C1.66719837,0.085702046 1.82761943,0.282661687 1.82761943,0.282661687 C1.82761943,0.282661687 1.71306912,0.369173907 1.70658256,0.575795147 C1.70009599,0.782416388 1.72623183,3.64381187 1.70658256,5.6611541 C1.68195671,8.18942795 1.7502264,8.19932283 1.7502264,8.19932283 C1.7502264,8.19932283 1.6900549,8.33248153 1.40541971,8.34708262 C1.12078452,8.3616837 1.01404945,8.17300084 1.01404945,8.17300084 C1.01404945,8.17300084 1.14364105,7.88647792 1.14364105,6.02847088 C1.14364105,4.17046385 1.14212903,2.64148806 1.14364105,1.79831496 C1.1461262,0.412470096 1.01404945,0.282661687 1.01404945,0.282661687 Z" id="path-9"></path>
        <mask id="mask-10" maskContentUnits="userSpaceOnUse" maskUnits="objectBoundingBox" x="0" y="0" width="0.813569978" height="8.26218629" fill="white">
            <use xlink:href="#path-9"></use>
        </mask>
        <path d="M1.01404945,0.282661687 C1.01404945,0.282661687 1.14364105,0.085702046 1.40541971,0.085702046 C1.66719837,0.085702046 1.82761943,0.282661687 1.82761943,0.282661687 C1.82761943,0.282661687 1.71306912,0.369173907 1.70658256,0.575795147 C1.70009599,0.782416388 1.72623183,3.64381187 1.70658256,5.6611541 C1.68195671,8.18942795 1.7502264,8.19932283 1.7502264,8.19932283 C1.7502264,8.19932283 1.6900549,8.33248153 1.40541971,8.34708262 C1.12078452,8.3616837 1.01404945,8.17300084 1.01404945,8.17300084 C1.01404945,8.17300084 1.14364105,7.88647792 1.14364105,6.02847088 C1.14364105,4.17046385 1.14212903,2.64148806 1.14364105,1.79831496 C1.1461262,0.412470096 1.01404945,0.282661687 1.01404945,0.282661687 Z" id="path-11"></path>
        <mask id="mask-12" maskContentUnits="userSpaceOnUse" maskUnits="objectBoundingBox" x="0" y="0" width="0.813569978" height="8.26218629" fill="white">
            <use xlink:href="#path-11"></use>
        </mask>
        <path d="M1.01404945,0.282661687 C1.01404945,0.282661687 1.14364105,0.085702046 1.40541971,0.085702046 C1.66719837,0.085702046 1.82761943,0.282661687 1.82761943,0.282661687 C1.82761943,0.282661687 1.71306912,0.369173907 1.70658256,0.575795147 C1.70009599,0.782416388 1.72623183,3.64381187 1.70658256,5.6611541 C1.68195671,8.18942795 1.7502264,8.19932283 1.7502264,8.19932283 C1.7502264,8.19932283 1.6900549,8.33248153 1.40541971,8.34708262 C1.12078452,8.3616837 1.01404945,8.17300084 1.01404945,8.17300084 C1.01404945,8.17300084 1.14364105,7.88647792 1.14364105,6.02847088 C1.14364105,4.17046385 1.14212903,2.64148806 1.14364105,1.79831496 C1.1461262,0.412470096 1.01404945,0.282661687 1.01404945,0.282661687 Z" id="path-13"></path>
        <mask id="mask-14" maskContentUnits="userSpaceOnUse" maskUnits="objectBoundingBox" x="0" y="0" width="0.813569978" height="8.26218629" fill="white">
            <use xlink:href="#path-13"></use>
        </mask>
        <path d="M1.01404945,0.282661687 C1.01404945,0.282661687 1.14364105,0.085702046 1.40541971,0.085702046 C1.66719837,0.085702046 1.82761943,0.282661687 1.82761943,0.282661687 C1.82761943,0.282661687 1.71306912,0.369173907 1.70658256,0.575795147 C1.70009599,0.782416388 1.72623183,3.64381187 1.70658256,5.6611541 C1.68195671,8.18942795 1.7502264,8.19932283 1.7502264,8.19932283 C1.7502264,8.19932283 1.6900549,8.33248153 1.40541971,8.34708262 C1.12078452,8.3616837 1.01404945,8.17300084 1.01404945,8.17300084 C1.01404945,8.17300084 1.14364105,7.88647792 1.14364105,6.02847088 C1.14364105,4.17046385 1.14212903,2.64148806 1.14364105,1.79831496 C1.1461262,0.412470096 1.01404945,0.282661687 1.01404945,0.282661687 Z" id="path-15"></path>
        <mask id="mask-16" maskContentUnits="userSpaceOnUse" maskUnits="objectBoundingBox" x="0" y="0" width="0.813569978" height="8.26218629" fill="white">
            <use xlink:href="#path-15"></use>
        </mask>
        <path d="M1.01404945,0.282661687 C1.01404945,0.282661687 1.14364105,0.085702046 1.40541971,0.085702046 C1.66719837,0.085702046 1.82761943,0.282661687 1.82761943,0.282661687 C1.82761943,0.282661687 1.71306912,0.369173907 1.70658256,0.575795147 C1.70009599,0.782416388 1.72623183,3.64381187 1.70658256,5.6611541 C1.68195671,8.18942795 1.7502264,8.19932283 1.7502264,8.19932283 C1.7502264,8.19932283 1.6900549,8.33248153 1.40541971,8.34708262 C1.12078452,8.3616837 1.01404945,8.17300084 1.01404945,8.17300084 C1.01404945,8.17300084 1.14364105,7.88647792 1.14364105,6.02847088 C1.14364105,4.17046385 1.14212903,2.64148806 1.14364105,1.79831496 C1.1461262,0.412470096 1.01404945,0.282661687 1.01404945,0.282661687 Z" id="path-17"></path>
        <mask id="mask-18" maskContentUnits="userSpaceOnUse" maskUnits="objectBoundingBox" x="0" y="0" width="0.813569978" height="8.26218629" fill="white">
            <use xlink:href="#path-17"></use>
        </mask>
        <path d="M1.01404945,0.282661687 C1.01404945,0.282661687 1.14364105,0.085702046 1.40541971,0.085702046 C1.66719837,0.085702046 1.82761943,0.282661687 1.82761943,0.282661687 C1.82761943,0.282661687 1.71306912,0.369173907 1.70658256,0.575795147 C1.70009599,0.782416388 1.72623183,3.64381187 1.70658256,5.6611541 C1.68195671,8.18942795 1.7502264,8.19932283 1.7502264,8.19932283 C1.7502264,8.19932283 1.6900549,8.33248153 1.40541971,8.34708262 C1.12078452,8.3616837 1.01404945,8.17300084 1.01404945,8.17300084 C1.01404945,8.17300084 1.14364105,7.88647792 1.14364105,6.02847088 C1.14364105,4.17046385 1.14212903,2.64148806 1.14364105,1.79831496 C1.1461262,0.412470096 1.01404945,0.282661687 1.01404945,0.282661687 Z" id="path-19"></path>
        <mask id="mask-20" maskContentUnits="userSpaceOnUse" maskUnits="objectBoundingBox" x="0" y="0" width="0.813569978" height="8.26218629" fill="white">
            <use xlink:href="#path-19"></use>
        </mask>
        <path d="M1.01404945,0.282661687 C1.01404945,0.282661687 1.14364105,0.085702046 1.40541971,0.085702046 C1.66719837,0.085702046 1.82761943,0.282661687 1.82761943,0.282661687 C1.82761943,0.282661687 1.71306912,0.369173907 1.70658256,0.575795147 C1.70009599,0.782416388 1.72623183,3.64381187 1.70658256,5.6611541 C1.68195671,8.18942795 1.7502264,8.19932283 1.7502264,8.19932283 C1.7502264,8.19932283 1.6900549,8.33248153 1.40541971,8.34708262 C1.12078452,8.3616837 1.01404945,8.17300084 1.01404945,8.17300084 C1.01404945,8.17300084 1.14364105,7.88647792 1.14364105,6.02847088 C1.14364105,4.17046385 1.14212903,2.64148806 1.14364105,1.79831496 C1.1461262,0.412470096 1.01404945,0.282661687 1.01404945,0.282661687 Z" id="path-21"></path>
        <mask id="mask-22" maskContentUnits="userSpaceOnUse" maskUnits="objectBoundingBox" x="0" y="0" width="0.813569978" height="8.26218629" fill="white">
            <use xlink:href="#path-21"></use>
        </mask>
        <path d="M1.01404945,0.282661687 C1.01404945,0.282661687 1.14364105,0.085702046 1.40541971,0.085702046 C1.66719837,0.085702046 1.82761943,0.282661687 1.82761943,0.282661687 C1.82761943,0.282661687 1.71306912,0.369173907 1.70658256,0.575795147 C1.70009599,0.782416388 1.72623183,3.64381187 1.70658256,5.6611541 C1.68195671,8.18942795 1.7502264,8.19932283 1.7502264,8.19932283 C1.7502264,8.19932283 1.6900549,8.33248153 1.40541971,8.34708262 C1.12078452,8.3616837 1.01404945,8.17300084 1.01404945,8.17300084 C1.01404945,8.17300084 1.14364105,7.88647792 1.14364105,6.02847088 C1.14364105,4.17046385 1.14212903,2.64148806 1.14364105,1.79831496 C1.1461262,0.412470096 1.01404945,0.282661687 1.01404945,0.282661687 Z" id="path-23"></path>
        <mask id="mask-24" maskContentUnits="userSpaceOnUse" maskUnits="objectBoundingBox" x="0" y="0" width="0.813569978" height="8.26218629" fill="white">
            <use xlink:href="#path-23"></use>
        </mask>
    </defs>
    <g id="Robert" stroke="none" stroke-width="1" fill="none" fill-rule="evenodd">
        <g>
            <mask id="mask-2" fill="white">
                <use xlink:href="#path-1"></use>
            </mask>
            <use id="Mask" fill-opacity="0.288439764" fill="#D8D8D8" xlink:href="#path-1"></use>
            <g id="WD1-Copy-2" mask="url(#mask-2)">
                <g transform="translate(13.000000, 8.044199)">
                    <g id="Person-8" transform="translate(15.000000, 0.000000)">
                        <path d="M42.7101,108.177482 L42.7101,94.1001337 L52.6091,94.1001337 L52.6091,108.177482 C52.6091,111.509791 50.3933738,114.210631 47.6596,114.210631 C44.9258262,114.210631 42.7101,111.509791 42.7101,108.177482 Z" id="Fill-10-Copy" fill="#F8D4AA"></path>
                        <path d="M2.7101,108.177482 L2.7101,94.1001337 L12.6091,94.1001337 L12.6091,108.177482 C12.6091,111.509791 10.3933738,114.210631 7.6596,114.210631 C4.92582617,114.210631 2.7101,111.509791 2.7101,108.177482 Z" id="Fill-10-Copy" fill="#F8D4AA"></path>
                        <path d="M33.8018077,72.0851724 L21.4171923,72.0851724 C12.1349231,72.0851724 4.6095,78.9072115 4.6095,87.3218884 L4.6095,94.5392802 C4.6095,96.3107489 6.19384615,97.7470099 8.14796154,97.7470099 L47.0710385,97.7470099 C49.0251538,97.7470099 50.6095,96.3107489 50.6095,94.5392802 L50.6095,87.3218884 C50.6095,78.9072115 43.0840769,72.0851724 33.8018077,72.0851724" id="Fill-1" fill="#F8D4AA"></path>
                        <path d="M53.6091,100.226501 L53.6091,91.1467004 C53.6091,81.240638 46.1591,73.0910125 36.6041,72.0851724 C36.5461,77.0498056 32.5441,81.0580331 27.6091,81.0580331 C22.6741,81.0580331 18.6721,77.0498056 18.6141,72.0851724 C9.0591,73.0910125 1.6091,81.240638 1.6091,91.1467004 L1.6091,100.226501 L12.6091,100.226501 L12.6091,104.261968 L42.6091,104.261968 L42.6091,100.226501 L53.6091,100.226501 Z" id="Fill-3" fill="#3AACE1"></path>
                        <path d="M27.6091,82.5365978 C33.2871,82.5365978 37.9141,77.9795591 38.0921,72.3134265 C37.6011,72.2209182 37.1071,72.1384652 36.6041,72.0851724 C36.5461,77.0333602 32.5441,81.0283105 27.6091,81.0283105 C22.6741,81.0283105 18.6721,77.0333602 18.6141,72.0851724 C18.1111,72.1384652 17.6171,72.2209182 17.1261,72.3134265 C17.3041,77.9795591 21.9311,82.5365978 27.6091,82.5365978" id="Fill-8" fill="#85BAE4"></path>
                        <path d="M27.6091,81.0283105 L27.6091,81.0283105 C24.2951,81.0283105 21.6091,78.3274707 21.6091,74.9951613 L21.6091,60.9178133 L33.6091,60.9178133 L33.6091,74.9951613 C33.6091,78.3274707 30.9231,81.0283105 27.6091,81.0283105" id="Fill-10" fill="#F8D4AA"></path>
                        <path d="M13.6091,143.370852 L13.6091,129.293504 L25.6091,129.293504 L25.6091,136.332178 L25.6091,143.370852 C25.6091,146.703161 22.9231,149.404001 19.6091,149.404001 C16.2951,149.404001 13.6091,146.703161 13.6091,143.370852 Z" id="Fill-10-Copy" fill="#F8D4AA"></path>
                        <path d="M29.6091,143.370852 L29.6091,129.293504 L41.6091,129.293504 L41.6091,143.370852 C41.6091,146.703161 38.9231,149.404001 35.6091,149.404001 C32.2951,149.404001 29.6091,146.703161 29.6091,143.370852 Z" id="Fill-10-Copy" fill="#F8D4AA"></path>
                        <path d="M33.6091,69.967537 C33.6091,69.967537 29.1301,70.9730619 27.6091,70.9730619 C26.0881,70.9730619 21.6091,69.967537 21.6091,69.967537 L21.6091,67.9564873 C21.6091,67.9564873 26.0881,68.9620122 27.6091,68.9620122 C29.1301,68.9620122 33.6091,67.9564873 33.6091,67.9564873 L33.6091,69.967537 Z" id="Fill-12" fill="#292929" opacity="0.200000003"></path>
                        <g id="Group-16" transform="translate(0.000000, 0.514829)">
                            <mask id="mask-4" fill="white">
                                <use xlink:href="#path-3"></use>
                            </mask>
                            <g id="Clip-15"></g>
                            <path d="M54.6091,27.542432 C54.6091,42.5368188 42.5211,54.6916033 27.6091,54.6916033 C12.6971,54.6916033 0.6091,42.5368188 0.6091,27.542432 C0.6091,12.5480453 12.6971,0.393260773 27.6091,0.393260773 C42.5211,0.393260773 54.6091,12.5480453 54.6091,27.542432" id="Fill-14" fill="#5F5C61" mask="url(#mask-4)"></path>
                        </g>
                        <path d="M54.5085,40.8577934 C54.5085,43.6068983 52.2925,45.8351414 49.5585,45.8351414 C46.8255,45.8351414 44.6095,43.6068983 44.6095,40.8577934 C44.6095,38.1086884 46.8255,35.8804453 49.5585,35.8804453 C52.2925,35.8804453 54.5085,38.1086884 54.5085,40.8577934" id="Fill-17" fill="#EAC6A0"></path>
                        <path d="M10.6091,40.8577934 C10.6091,43.6068983 8.3931,45.8351414 5.6591,45.8351414 C2.9261,45.8351414 0.7101,43.6068983 0.7101,40.8577934 C0.7101,38.1086884 2.9261,35.8804453 5.6591,35.8804453 C8.3931,35.8804453 10.6091,38.1086884 10.6091,40.8577934" id="Fill-19" fill="#EAC6A0"></path>
                        <path d="M27.6091,67.9564873 L27.6091,67.9564873 C15.4591,67.9564873 5.6091,58.0520674 5.6091,45.8349403 L5.6091,26.729968 C5.6091,14.5128409 15.4591,4.60842099 27.6091,4.60842099 L27.6091,4.60842099 C39.7591,4.60842099 49.6091,14.5128409 49.6091,26.729968 L49.6091,45.8349403 C49.6091,58.0520674 39.7591,67.9564873 27.6091,67.9564873" id="Fill-21" fill="#F8D4AA"></path>
                        <path d="M27.6091,81.0283105 L27.6091,81.0283105 C24.2951,81.0283105 21.6091,78.3274707 21.6091,74.9951613 L21.6091,60.9178133 L33.6091,60.9178133 L33.6091,74.9951613 C33.6091,78.3274707 30.9231,81.0283105 27.6091,81.0283105" id="Combined-Shape" fill="#F8D4AA"></path>
                        <path d="M29.9848,47.4967713 C29.6628,47.5902851 29.1848,47.7380972 28.7418,47.8778652 C28.0028,48.1101414 27.2148,48.1101414 26.4758,47.8788707 C26.0318,47.7401083 25.5518,47.5922961 25.2308,47.4997878" id="Stroke-23" stroke="#EBB78A" stroke-width="2" stroke-linecap="round"></path>
                        <path d="M0.0874,1.59184641 C0.0874,1.59184641 -0.8986,10.7169845 3.7544,18.4343878 C7.7954,25.1382221 14.7104,27.6811945 15.8374,28.0572608 C16.9344,28.4232718 24.4204,30.1236144 35.4194,28.9833492 C49.2174,27.5534928 52.6624,18.7963768 52.6624,18.7963768 L42.4114,7.63706188 L20.8574,1.78189061 C20.8574,1.78189061 7.6114,10.7250287 0.0874,1.59184641" id="Fill-29" fill="#5F5C61"></path>
                        <polygon id="Fill-34" fill="#85BAE4" points="1.609 100.133182 12.609 100.133182 12.609 98.1221326 1.609 98.1221326"></polygon>
                        <polygon id="Fill-38" fill="#85BAE4" points="42.609 100.133182 53.609 100.133182 53.609 98.1221326 42.609 98.1221326"></polygon>
                        <polygon id="Fill-40" fill="#292929" opacity="0.200000003" points="51.109 102.500738 52.609 105.58011 52.609 100.133182 49.609 100.133182"></polygon>
                        <path d="M4.37908323,102.856646 L2.85720549,106.150108 C2.85720549,106.150108 2.85720549,103.738877 2.85720549,102.856646 C2.85720549,101.974416 2.85720549,100.133182 2.85720549,100.133182 L5.90096097,100.133182 L4.37908323,102.856646 Z" id="Fill-40" fill="#292929" opacity="0.200000003"></path>
                        <polygon id="Fill-40" fill="#292929" opacity="0.200000003" transform="translate(31.109000, 137.689536) scale(-1, 1) translate(-31.109000, -137.689536) " points="32.609 138.961428 32.609 144.074619 32.609 131.304453 29.609 131.304453"></polygon>
                        <polygon id="Fill-40" fill="#292929" opacity="0.200000003" points="25.609 138.961428 25.609 144.074619 25.609 131.304453 22.609 131.304453"></polygon>
                        <path d="M49.6145,30.8924387 L49.6115,41.8154552 C49.6105,47.3679635 45.1335,51.8676873 39.6115,51.8676873 L27.6095,51.8676873 L15.6065,51.8676873 C10.0845,51.8676873 5.6075,47.3679635 5.6065,41.8154552 L5.6035,30.8924387 L4.6095,30.8924387 L4.6095,49.9209912 C4.6095,50.7646265 4.7005,51.6112785 4.9425,52.4197204 C7.3215,60.3372232 13.5985,66.5242177 21.5065,68.6599525 C22.4825,68.9234 26.8305,69.9671348 27.6095,69.9671348 C28.3875,69.9671348 32.7355,68.9234 33.7115,68.6599525 C41.6195,66.5242177 47.8965,60.3372232 50.2755,52.4197204 C50.5185,51.6112785 50.6095,50.7646265 50.6095,49.9209912 L50.6095,30.8924387 L49.6145,30.8924387 Z" id="Fill-42" fill="#5F5C61"></path>
                        <path d="M33.2677,55.7202354 C32.3738744,57.9679423 30.1882038,59.5555282 27.6335857,59.5555282 C25.0794962,59.5555282 22.8938256,57.9679423 22,55.7202354 L33.2677,55.7202354 Z" id="Fill-44" fill="#FEFEFE"></path>
                        <path d="M33.5575362,56.9131094 C33.7264155,56.5927092 33.8755923,56.2571121 34,55.9075845 L22,55.9075845 C22.1244077,56.2571121 22.2730215,56.5927092 22.4424638,56.9131094 L33.5575362,56.9131094 Z" id="Fill-46" fill="#292929" opacity="0.200000003"></path>
                        <path d="M40,37.7071823 C40,38.5397569 39.328,39.2154696 38.5,39.2154696 C37.672,39.2154696 37,38.5397569 37,37.7071823 C37,36.8746077 37.672,36.198895 38.5,36.198895 C39.328,36.198895 40,36.8746077 40,37.7071823" id="Fill-54" fill="#2D2D2D"></path>
                        <path d="M19,37.7071823 C19,38.5397569 18.328,39.2154696 17.5,39.2154696 C16.672,39.2154696 16,38.5397569 16,37.7071823 C16,36.8746077 16.672,36.198895 17.5,36.198895 C18.328,36.198895 19,36.8746077 19,37.7071823" id="Fill-54-Copy" fill="#2D2D2D"></path>
                        <path d="M18.468,32.1903034 C16.458,32.0414857 14.684,33.1415299 14,34.542226" id="Stroke-60" stroke="#4D4C4E" stroke-width="2" stroke-linecap="round"></path>
                        <path d="M37.532,32.1903034 C39.542,32.0414857 41.316,33.1415299 42,34.542226" id="Stroke-62" stroke="#4D4C4E" stroke-width="2" stroke-linecap="round"></path>
                        <path d="M12,88.4861878 L42,88.4861878 C42,88.4861878 42.6886613,95.4965981 42.6886613,100.77356 C42.6886613,103.408257 42.8605794,106.127037 42.6886613,107.925269 C42.5167432,109.723501 42,110.607735 42,110.607735 L13.5081731,109.710157 C13.5081731,109.710157 12,104.590651 12,101.586729 L12,88.4861878 Z" id="Rectangle" fill="#3BABE1"></path>
                        <g id="SwimTrunks" transform="translate(8.000000, 104.574586)">
                            <path d="M34.2207904,2.66008756 C34.1695027,2.71799062 34.1091329,2.77164391 34.0519685,2.82689086 C34.1630918,2.93632232 34.2207904,3.0489411 34.2207904,3.16315355 C34.2207904,4.38761722 27.6292562,5.37993745 19.4985575,5.37993745 C11.3678589,5.37993745 4.77632466,4.38761722 4.77632466,3.16315355 C4.77632466,3.0489411 4.83402329,2.93632232 4.94514658,2.82689086 C4.88798219,2.77164391 4.82761233,2.71799062 4.77632466,2.66008756 C4.77632466,2.66008756 1.72310548,9.23075618 0.80099589,22.5622704 C0.80099589,22.5622704 4.3478589,27.0898643 17.586489,27.0898643 L18.3456534,19.2920759 L19.4985575,19.5438745 L20.6514616,19.2920759 L21.410626,27.0898643 C34.6492562,27.0898643 38.1961192,22.5622704 38.1961192,22.5622704 C37.2740096,9.23075618 34.2207904,2.66008756 34.2207904,2.66008756" id="Fill-5" fill="#F6A623"></path>
                            <path d="M19.4985575,11.884416 C25.9164616,11.884416 31.4998726,10.991434 36.2145986,9.0083872 C35.1984616,4.76605883 34.2207904,2.66030005 34.2207904,2.66030005 C34.1695027,2.71820311 34.1091329,2.77132517 34.0519685,2.82657213 C34.1630918,2.93653481 34.2207904,3.04862237 34.2207904,3.16336604 C34.2207904,4.38729849 27.6292562,5.38014994 19.4985575,5.38014994 C11.3678589,5.38014994 4.77632466,4.38729849 4.77632466,3.16336604 C4.77632466,3.04862237 4.83402329,2.93653481 4.94514658,2.82657213 C4.88798219,2.77132517 4.82761233,2.71820311 4.77632466,2.66030005 C4.77632466,2.66030005 3.79865342,4.76605883 2.78251644,9.0083872 C6.9619274,10.7401666 13.0806534,11.884416 19.4985575,11.884416" id="Fill-10" fill="#04679E"></path>
                            <path d="M34.2207904,2.66003444 C34.1695027,2.7179375 34.1091329,2.77159078 34.0519685,2.82683774 C34.1630918,2.9362692 34.2207904,3.04888798 34.2207904,3.16310043 C34.2207904,3.76391102 32.6308726,4.30894344 30.0525986,4.70789017 C30.9469274,7.88140252 32.5416534,14.7601791 33.2682288,25.4159348 C36.9673521,24.126131 38.1961192,22.5622173 38.1961192,22.5622173 C37.2740096,9.23070305 34.2207904,2.66003444 34.2207904,2.66003444" id="Fill-18" fill-opacity="0.0899569746" fill="#010201"></path>
                            <path d="M12.4420151,15.2656356 C12.0028644,10.9016577 14.3620973,7.85988809 14.4625356,7.73239512 C14.7360699,7.38657046 15.2403986,7.32654252 15.5876589,7.59799629 C15.9354534,7.86945006 15.9963575,8.36932872 15.7238918,8.71515338 C15.7035904,8.74171442 13.663837,11.4015364 14.0362068,15.1073318 C14.0805493,15.5450577 13.7594671,15.9355049 13.3187137,15.9795962 C13.2920014,15.9822523 13.2647548,15.9833148 13.2380425,15.9833148 C12.8314808,15.9833148 12.4831521,15.6768004 12.4420151,15.2656356 Z" id="Fill-14" fill="#02486F"></path>
                            <path d="M24.7040425,15.9833148 C24.6773301,15.9833148 24.6500836,15.9822523 24.6233712,15.9795962 C24.1826178,15.9355049 23.8615356,15.5450577 23.9058781,15.1073318 C24.2782479,11.4015364 22.2390288,8.74171442 22.2187274,8.71515338 C21.9473301,8.36826628 22.0093027,7.8678564 22.3570973,7.59746507 C22.7048918,7.32707374 23.2065493,7.38657046 23.4800836,7.73239512 C23.5805219,7.85988809 25.9397548,10.9016577 25.5000699,15.2656356 C25.4589329,15.6768004 25.1106041,15.9833148 24.7040425,15.9833148" id="Fill-16" fill="#02486F"></path>
                        </g>
                    </g>
                    <g id="shoe" transform="translate(26.000000, 137.756906)">
                        <path d="M4.66239095,3.02559567 C4.66239095,-0.244991571 8.31846243,0.00793223995 8.31846243,0.00793223995 C8.31846243,0.00793223995 12.0029719,-0.291675694 12.0029719,2.79177195 C12.0029719,5.8752196 12.4190266,12.4116147 12.1826807,16.2985498 C11.9463349,20.1854849 9.22393697,20.8754703 9.22393697,20.8754703 C9.22393697,20.8754703 4.7304987,21.297848 4.7304987,16.4016471 C4.7304987,16.4016471 4.66239095,6.29618291 4.66239095,3.02559567 Z" id="Path-4" fill="#D14747"></path>
                        <g id="Group-2" transform="translate(0.765957, 2.079830)" fill="#F55858">
                            <path d="M1.18847001,0.732996876 C1.18847001,0.732996876 1.9578766,1.4978994 1.35655369,6.3496112 C0.755230786,11.201323 0.583023863,10.4071935 0.583023863,14.0862079 C0.583023863,17.7652223 0.919029775,19.0763375 0.919029775,19.0763375 C0.919029775,19.0763375 1.35382441,23.7224821 5.36504095,23.7224821 C9.37625749,23.7224821 10.5212528,23.739014 10.5212528,23.739014 C10.5212528,23.739014 13.7128193,24.0385334 14.1864953,19.2156884 C14.4381664,16.8841054 14.4536871,15.0437317 14.4536871,14.5649698 C14.4536871,14.3780537 8.77128858,18.9251211 5.64244889,15.1402804 C2.51360919,11.3554397 5.72860133,2.71046377 5.36504095,2.32338077 C2.46190843,-0.767586531 1.29233101,0.370281239 1.29233101,0.370281239" id="Path-3"></path>
                            <path d="M1.18847001,0.732996876 C1.18847001,0.732996876 1.9578766,1.4978994 1.35655369,6.3496112 C0.755230786,11.201323 0.583023863,10.4071935 0.583023863,14.0862079 C0.583023863,17.7652223 0.919029775,19.0763375 0.919029775,19.0763375 C0.919029775,19.0763375 1.35382441,23.7224821 5.36504095,23.7224821 C9.37625749,23.7224821 10.5212528,23.739014 10.5212528,23.739014 C10.5212528,23.739014 13.7128193,24.0385334 14.1864953,19.2156884 C14.4381664,16.8841054 14.4536871,15.0437317 14.4536871,14.5649698 C14.4536871,14.3780537 8.77128858,18.9251211 5.64244889,15.1402804 C2.51360919,11.3554397 5.72860133,2.71046377 5.36504095,2.32338077 C2.46190843,-0.767586531 1.29233101,0.370281239 1.29233101,0.370281239" id="Path-3-Copy-2" transform="translate(7.518355, 11.954172) scale(-1, 1) translate(-7.518355, -11.954172) "></path>
                        </g>
                        <path d="M1.31355749,18.7186262 C1.31355749,22.669544 1.39451741,24.6097182 2.49194216,26.2427593 C3.58936692,27.8758004 5.45951537,29.1182791 8.44250009,29.1182791 C11.7874459,29.1182791 13.0697165,28.2221028 13.9680463,26.4326112 C14.8663761,24.6431196 15.3446668,22.9063038 15.3446668,18.9135235 C15.6242332,18.0786563 9.28491686,22.7960834 1.31355749,18.7186262 Z" id="Path-2" stroke="#E7DDDD" stroke-width="0.5" fill="#FFFFFF" transform="translate(8.333564, 23.918453) rotate(-1.000000) translate(-8.333564, -23.918453) "></path>
                        <path d="M2.09010217,18.4301318 C2.09010217,21.9682577 2.16260339,23.7057225 3.14536919,25.1681435 C4.128135,26.6305645 5.80289033,27.743229 8.47421278,27.743229 C11.4696786,27.743229 12.6179776,26.9406851 13.4224499,25.3381596 C14.2269222,23.7356342 14.655241,22.1802809 14.655241,18.6046663 C14.9055983,17.857026 9.22861384,22.0815763 2.09010217,18.4301318 Z" id="Path-2-Copy" stroke="#F55858" stroke-width="0.5" fill="#FFFFFF" transform="translate(8.376658, 23.086680) rotate(-1.000000) translate(-8.376658, -23.086680) "></path>
                        <g id="shoestring" transform="translate(8.152005, 15.864876) rotate(90.000000) translate(-8.152005, -15.864876) translate(7.003069, 11.358578)">
                            <path d="M1.42977967,8.86565089 C1.65444082,8.86565089 1.83656466,8.5138719 1.83656466,8.07993054 C1.83656466,7.64598917 1.65444082,7.29421019 1.42977967,7.29421019 C1.20511853,7.29421019 1.02299468,7.64598917 1.02299468,8.07993054 C1.02299468,8.5138719 1.20511853,8.86565089 1.42977967,8.86565089 Z" id="Oval-3" fill="#D8D8D8" transform="translate(1.429780, 8.079931) rotate(90.000000) translate(-1.429780, -8.079931) "></path>
                            <path d="M0.877602659,8.08507084 C0.877602659,8.25821148 1.08333678,8.39856971 1.47484402,8.39856971 C1.86635127,8.39856971 2.0587008,8.25821148 2.0587008,8.08507084 C2.0587008,7.91193019 1.86635127,7.77157196 1.47484402,7.77157196 C1.08333678,7.77157196 0.877602659,7.91193019 0.877602659,8.08507084 Z" id="Oval-3-Copy" fill="#FEFCFC"></path>
                            <path d="M1.42977967,1.23960802 C1.65444082,1.23960802 1.83656466,0.887829041 1.83656466,0.453887674 C1.83656466,0.0199463072 1.65444082,-0.331832676 1.42977967,-0.331832676 C1.20511853,-0.331832676 1.02299468,0.0199463072 1.02299468,0.453887674 C1.02299468,0.887829041 1.20511853,1.23960802 1.42977967,1.23960802 Z" id="Oval-3-Copy-3" fill="#D8D8D8" transform="translate(1.429780, 0.453888) rotate(90.000000) translate(-1.429780, -0.453888) "></path>
                            <path d="M0.877602659,0.459027973 C0.877602659,0.63216862 1.08333678,0.772526845 1.47484402,0.772526845 C1.86635127,0.772526845 2.0587008,0.63216862 2.0587008,0.459027973 C2.0587008,0.285887327 1.86635127,0.145529102 1.47484402,0.145529102 C1.08333678,0.145529102 0.877602659,0.285887327 0.877602659,0.459027973 Z" id="Oval-3-Copy-2" fill="#FEFCFC"></path>
                            <use id="Rectangle-9" stroke="#8E8686" mask="url(#mask-6)" stroke-width="0.3" fill="#FFFFFF" xlink:href="#path-5"></use>
                        </g>
                        <g id="shoestring-copy" transform="translate(8.152005, 13.785046) rotate(90.000000) translate(-8.152005, -13.785046) translate(7.003069, 9.278748)">
                            <path d="M1.42977967,8.86565089 C1.65444082,8.86565089 1.83656466,8.5138719 1.83656466,8.07993054 C1.83656466,7.64598917 1.65444082,7.29421019 1.42977967,7.29421019 C1.20511853,7.29421019 1.02299468,7.64598917 1.02299468,8.07993054 C1.02299468,8.5138719 1.20511853,8.86565089 1.42977967,8.86565089 Z" id="Oval-3" fill="#D8D8D8" transform="translate(1.429780, 8.079931) rotate(90.000000) translate(-1.429780, -8.079931) "></path>
                            <path d="M0.877602659,8.08507084 C0.877602659,8.25821148 1.08333678,8.39856971 1.47484402,8.39856971 C1.86635127,8.39856971 2.0587008,8.25821148 2.0587008,8.08507084 C2.0587008,7.91193019 1.86635127,7.77157196 1.47484402,7.77157196 C1.08333678,7.77157196 0.877602659,7.91193019 0.877602659,8.08507084 Z" id="Oval-3-Copy" fill="#FEFCFC"></path>
                            <path d="M1.42977967,1.23960802 C1.65444082,1.23960802 1.83656466,0.887829041 1.83656466,0.453887674 C1.83656466,0.0199463072 1.65444082,-0.331832676 1.42977967,-0.331832676 C1.20511853,-0.331832676 1.02299468,0.0199463072 1.02299468,0.453887674 C1.02299468,0.887829041 1.20511853,1.23960802 1.42977967,1.23960802 Z" id="Oval-3-Copy-3" fill="#D8D8D8" transform="translate(1.429780, 0.453888) rotate(90.000000) translate(-1.429780, -0.453888) "></path>
                            <path d="M0.877602659,0.459027973 C0.877602659,0.63216862 1.08333678,0.772526845 1.47484402,0.772526845 C1.86635127,0.772526845 2.0587008,0.63216862 2.0587008,0.459027973 C2.0587008,0.285887327 1.86635127,0.145529102 1.47484402,0.145529102 C1.08333678,0.145529102 0.877602659,0.285887327 0.877602659,0.459027973 Z" id="Oval-3-Copy-2" fill="#FEFCFC"></path>
                            <use id="Rectangle-9" stroke="#8E8686" mask="url(#mask-8)" stroke-width="0.3" fill="#FFFFFF" xlink:href="#path-7"></use>
                        </g>
                        <g id="shoestring-copy-2" transform="translate(8.152005, 11.705216) rotate(90.000000) translate(-8.152005, -11.705216) translate(7.003069, 7.198918)">
                            <path d="M1.42977967,8.86565089 C1.65444082,8.86565089 1.83656466,8.5138719 1.83656466,8.07993054 C1.83656466,7.64598917 1.65444082,7.29421019 1.42977967,7.29421019 C1.20511853,7.29421019 1.02299468,7.64598917 1.02299468,8.07993054 C1.02299468,8.5138719 1.20511853,8.86565089 1.42977967,8.86565089 Z" id="Oval-3" fill="#D8D8D8" transform="translate(1.429780, 8.079931) rotate(90.000000) translate(-1.429780, -8.079931) "></path>
                            <path d="M0.877602659,8.08507084 C0.877602659,8.25821148 1.08333678,8.39856971 1.47484402,8.39856971 C1.86635127,8.39856971 2.0587008,8.25821148 2.0587008,8.08507084 C2.0587008,7.91193019 1.86635127,7.77157196 1.47484402,7.77157196 C1.08333678,7.77157196 0.877602659,7.91193019 0.877602659,8.08507084 Z" id="Oval-3-Copy" fill="#FEFCFC"></path>
                            <path d="M1.42977967,1.23960802 C1.65444082,1.23960802 1.83656466,0.887829041 1.83656466,0.453887674 C1.83656466,0.0199463072 1.65444082,-0.331832676 1.42977967,-0.331832676 C1.20511853,-0.331832676 1.02299468,0.0199463072 1.02299468,0.453887674 C1.02299468,0.887829041 1.20511853,1.23960802 1.42977967,1.23960802 Z" id="Oval-3-Copy-3" fill="#D8D8D8" transform="translate(1.429780, 0.453888) rotate(90.000000) translate(-1.429780, -0.453888) "></path>
                            <path d="M0.877602659,0.459027973 C0.877602659,0.63216862 1.08333678,0.772526845 1.47484402,0.772526845 C1.86635127,0.772526845 2.0587008,0.63216862 2.0587008,0.459027973 C2.0587008,0.285887327 1.86635127,0.145529102 1.47484402,0.145529102 C1.08333678,0.145529102 0.877602659,0.285887327 0.877602659,0.459027973 Z" id="Oval-3-Copy-2" fill="#FEFCFC"></path>
                            <use id="Rectangle-9" stroke="#8E8686" mask="url(#mask-10)" stroke-width="0.3" fill="#FFFFFF" xlink:href="#path-9"></use>
                        </g>
                        <g id="shoestring-copy-3" transform="translate(8.152005, 9.625386) rotate(90.000000) translate(-8.152005, -9.625386) translate(7.003069, 5.119088)">
                            <path d="M1.42977967,8.86565089 C1.65444082,8.86565089 1.83656466,8.5138719 1.83656466,8.07993054 C1.83656466,7.64598917 1.65444082,7.29421019 1.42977967,7.29421019 C1.20511853,7.29421019 1.02299468,7.64598917 1.02299468,8.07993054 C1.02299468,8.5138719 1.20511853,8.86565089 1.42977967,8.86565089 Z" id="Oval-3" fill="#D8D8D8" transform="translate(1.429780, 8.079931) rotate(90.000000) translate(-1.429780, -8.079931) "></path>
                            <path d="M0.877602659,8.08507084 C0.877602659,8.25821148 1.08333678,8.39856971 1.47484402,8.39856971 C1.86635127,8.39856971 2.0587008,8.25821148 2.0587008,8.08507084 C2.0587008,7.91193019 1.86635127,7.77157196 1.47484402,7.77157196 C1.08333678,7.77157196 0.877602659,7.91193019 0.877602659,8.08507084 Z" id="Oval-3-Copy" fill="#FEFCFC"></path>
                            <path d="M1.42977967,1.23960802 C1.65444082,1.23960802 1.83656466,0.887829041 1.83656466,0.453887674 C1.83656466,0.0199463072 1.65444082,-0.331832676 1.42977967,-0.331832676 C1.20511853,-0.331832676 1.02299468,0.0199463072 1.02299468,0.453887674 C1.02299468,0.887829041 1.20511853,1.23960802 1.42977967,1.23960802 Z" id="Oval-3-Copy-3" fill="#D8D8D8" transform="translate(1.429780, 0.453888) rotate(90.000000) translate(-1.429780, -0.453888) "></path>
                            <path d="M0.877602659,0.459027973 C0.877602659,0.63216862 1.08333678,0.772526845 1.47484402,0.772526845 C1.86635127,0.772526845 2.0587008,0.63216862 2.0587008,0.459027973 C2.0587008,0.285887327 1.86635127,0.145529102 1.47484402,0.145529102 C1.08333678,0.145529102 0.877602659,0.285887327 0.877602659,0.459027973 Z" id="Oval-3-Copy-2" fill="#FEFCFC"></path>
                            <use id="Rectangle-9" stroke="#8E8686" mask="url(#mask-12)" stroke-width="0.3" fill="#FFFFFF" xlink:href="#path-11"></use>
                        </g>
                        <g id="shoestring-copy-4" transform="translate(8.152005, 7.545556) rotate(90.000000) translate(-8.152005, -7.545556) translate(7.003069, 3.039258)">
                            <path d="M1.42977967,8.86565089 C1.65444082,8.86565089 1.83656466,8.5138719 1.83656466,8.07993054 C1.83656466,7.64598917 1.65444082,7.29421019 1.42977967,7.29421019 C1.20511853,7.29421019 1.02299468,7.64598917 1.02299468,8.07993054 C1.02299468,8.5138719 1.20511853,8.86565089 1.42977967,8.86565089 Z" id="Oval-3" fill="#D8D8D8" transform="translate(1.429780, 8.079931) rotate(90.000000) translate(-1.429780, -8.079931) "></path>
                            <path d="M0.877602659,8.08507084 C0.877602659,8.25821148 1.08333678,8.39856971 1.47484402,8.39856971 C1.86635127,8.39856971 2.0587008,8.25821148 2.0587008,8.08507084 C2.0587008,7.91193019 1.86635127,7.77157196 1.47484402,7.77157196 C1.08333678,7.77157196 0.877602659,7.91193019 0.877602659,8.08507084 Z" id="Oval-3-Copy" fill="#FEFCFC"></path>
                            <path d="M1.42977967,1.23960802 C1.65444082,1.23960802 1.83656466,0.887829041 1.83656466,0.453887674 C1.83656466,0.0199463072 1.65444082,-0.331832676 1.42977967,-0.331832676 C1.20511853,-0.331832676 1.02299468,0.0199463072 1.02299468,0.453887674 C1.02299468,0.887829041 1.20511853,1.23960802 1.42977967,1.23960802 Z" id="Oval-3-Copy-3" fill="#D8D8D8" transform="translate(1.429780, 0.453888) rotate(90.000000) translate(-1.429780, -0.453888) "></path>
                            <path d="M0.877602659,0.459027973 C0.877602659,0.63216862 1.08333678,0.772526845 1.47484402,0.772526845 C1.86635127,0.772526845 2.0587008,0.63216862 2.0587008,0.459027973 C2.0587008,0.285887327 1.86635127,0.145529102 1.47484402,0.145529102 C1.08333678,0.145529102 0.877602659,0.285887327 0.877602659,0.459027973 Z" id="Oval-3-Copy-2" fill="#FEFCFC"></path>
                            <use id="Rectangle-9" stroke="#8E8686" mask="url(#mask-14)" stroke-width="0.3" fill="#FFFFFF" xlink:href="#path-13"></use>
                        </g>
                        <g id="shoestring-copy-5" transform="translate(8.152005, 5.465726) rotate(90.000000) translate(-8.152005, -5.465726) translate(7.003069, 0.959428)">
                            <path d="M1.42977967,8.86565089 C1.65444082,8.86565089 1.83656466,8.5138719 1.83656466,8.07993054 C1.83656466,7.64598917 1.65444082,7.29421019 1.42977967,7.29421019 C1.20511853,7.29421019 1.02299468,7.64598917 1.02299468,8.07993054 C1.02299468,8.5138719 1.20511853,8.86565089 1.42977967,8.86565089 Z" id="Oval-3" fill="#D8D8D8" transform="translate(1.429780, 8.079931) rotate(90.000000) translate(-1.429780, -8.079931) "></path>
                            <path d="M0.877602659,8.08507084 C0.877602659,8.25821148 1.08333678,8.39856971 1.47484402,8.39856971 C1.86635127,8.39856971 2.0587008,8.25821148 2.0587008,8.08507084 C2.0587008,7.91193019 1.86635127,7.77157196 1.47484402,7.77157196 C1.08333678,7.77157196 0.877602659,7.91193019 0.877602659,8.08507084 Z" id="Oval-3-Copy" fill="#FEFCFC"></path>
                            <path d="M1.42977967,1.23960802 C1.65444082,1.23960802 1.83656466,0.887829041 1.83656466,0.453887674 C1.83656466,0.0199463072 1.65444082,-0.331832676 1.42977967,-0.331832676 C1.20511853,-0.331832676 1.02299468,0.0199463072 1.02299468,0.453887674 C1.02299468,0.887829041 1.20511853,1.23960802 1.42977967,1.23960802 Z" id="Oval-3-Copy-3" fill="#D8D8D8" transform="translate(1.429780, 0.453888) rotate(90.000000) translate(-1.429780, -0.453888) "></path>
                            <path d="M0.877602659,0.459027973 C0.877602659,0.63216862 1.08333678,0.772526845 1.47484402,0.772526845 C1.86635127,0.772526845 2.0587008,0.63216862 2.0587008,0.459027973 C2.0587008,0.285887327 1.86635127,0.145529102 1.47484402,0.145529102 C1.08333678,0.145529102 0.877602659,0.285887327 0.877602659,0.459027973 Z" id="Oval-3-Copy-2" fill="#FEFCFC"></path>
                        </g>
                        <path d="M3.04377532,5.68339042 C-0.434056917,9.00255843 3.76484503,10.5211722 0.932583256,13.5003125 C0.932583256,13.5003125 0.611922807,13.7756699 0.72906468,14.0120295 C0.846206553,14.2483891 1.07799613,14.4431759 1.28460751,14.2105993 C1.49121889,13.9780227 1.89661129,13.3860435 2.11682275,12.8066846 C2.33703422,12.2273258 2.5830721,11.5472522 2.34994743,10.3867316 C2.11682275,9.22621101 2.11682275,8.83448014 2.11682275,8.83448014 C2.11682275,8.83448014 1.93899135,8.13003601 2.45078037,7.42857602 C2.75698592,6.96474005 3.35030917,6.33942619 3.35030917,6.33942619 C3.35030917,6.33942619 4.15394287,5.78934926 3.69888955,5.53675403 C3.24383623,5.2841588 3.04377532,5.68339042 3.04377532,5.68339042 Z" id="Path-5" stroke="#979797" stroke-width="0.15" fill="#FFFFFF" transform="translate(2.270874, 9.884112) rotate(7.000000) translate(-2.270874, -9.884112) "></path>
                        <path d="M15.2709714,6.014692 C14.0339549,7.19527387 13.9881216,8.2359788 14.0454809,9.18508458 C14.0913288,9.943715 14.5796713,11.2801282 13.8974462,12.8685533 C13.7258621,13.2680527 13.5132474,13.7481333 13.4487409,13.9273196 C13.3842344,14.1065058 13.5185863,14.0178274 13.2444649,14.3061646 C13.2444649,14.3061646 12.9238044,14.5815219 13.0409463,14.8178816 C13.1580882,15.0542412 13.3898778,15.249028 13.5964891,15.0164514 C13.8031005,14.7838748 14.3153373,13.3769974 14.5355487,12.7976386 C14.7557602,12.2182798 15.0017981,11.5382061 14.7686734,10.3776856 C14.5355487,9.21716498 14.5355487,8.82543411 14.5355487,8.82543411 C14.5355487,8.82543411 14.3577173,8.12098998 14.8695064,7.41952999 C15.1757119,6.95569401 15.7690351,6.33038015 15.7690351,6.33038015 C15.7690351,6.33038015 16.5726688,5.78030322 16.1176155,5.527708 C15.6625622,5.27511277 15.2709714,6.014692 15.2709714,6.014692 Z" id="Path-5-Copy" stroke="#979797" stroke-width="0.15" fill="#FFFFFF" transform="translate(14.636178, 10.298107) scale(-1, 1) rotate(7.000000) translate(-14.636178, -10.298107) "></path>
                    </g>
                    <g id="shoe-copy" transform="translate(42.382979, 137.756906)">
                        <path d="M4.66239095,3.02559567 C4.66239095,-0.244991571 8.31846243,0.00793223995 8.31846243,0.00793223995 C8.31846243,0.00793223995 12.0029719,-0.291675694 12.0029719,2.79177195 C12.0029719,5.8752196 12.4190266,12.4116147 12.1826807,16.2985498 C11.9463349,20.1854849 9.22393697,20.8754703 9.22393697,20.8754703 C9.22393697,20.8754703 4.7304987,21.297848 4.7304987,16.4016471 C4.7304987,16.4016471 4.66239095,6.29618291 4.66239095,3.02559567 Z" id="Path-4" fill="#D14747"></path>
                        <g id="Group-2" transform="translate(0.765957, 2.079830)" fill="#F55858">
                            <path d="M1.18847001,0.732996876 C1.18847001,0.732996876 1.9578766,1.4978994 1.35655369,6.3496112 C0.755230786,11.201323 0.583023863,10.4071935 0.583023863,14.0862079 C0.583023863,17.7652223 0.919029775,19.0763375 0.919029775,19.0763375 C0.919029775,19.0763375 1.35382441,23.7224821 5.36504095,23.7224821 C9.37625749,23.7224821 10.5212528,23.739014 10.5212528,23.739014 C10.5212528,23.739014 13.7128193,24.0385334 14.1864953,19.2156884 C14.4381664,16.8841054 14.4536871,15.0437317 14.4536871,14.5649698 C14.4536871,14.3780537 8.77128858,18.9251211 5.64244889,15.1402804 C2.51360919,11.3554397 5.72860133,2.71046377 5.36504095,2.32338077 C2.46190843,-0.767586531 1.29233101,0.370281239 1.29233101,0.370281239" id="Path-3"></path>
                            <path d="M1.18847001,0.732996876 C1.18847001,0.732996876 1.9578766,1.4978994 1.35655369,6.3496112 C0.755230786,11.201323 0.583023863,10.4071935 0.583023863,14.0862079 C0.583023863,17.7652223 0.919029775,19.0763375 0.919029775,19.0763375 C0.919029775,19.0763375 1.35382441,23.7224821 5.36504095,23.7224821 C9.37625749,23.7224821 10.5212528,23.739014 10.5212528,23.739014 C10.5212528,23.739014 13.7128193,24.0385334 14.1864953,19.2156884 C14.4381664,16.8841054 14.4536871,15.0437317 14.4536871,14.5649698 C14.4536871,14.3780537 8.77128858,18.9251211 5.64244889,15.1402804 C2.51360919,11.3554397 5.72860133,2.71046377 5.36504095,2.32338077 C2.46190843,-0.767586531 1.29233101,0.370281239 1.29233101,0.370281239" id="Path-3-Copy-2" transform="translate(7.518355, 11.954172) scale(-1, 1) translate(-7.518355, -11.954172) "></path>
                        </g>
                        <path d="M1.31355749,18.7186262 C1.31355749,22.669544 1.39451741,24.6097182 2.49194216,26.2427593 C3.58936692,27.8758004 5.45951537,29.1182791 8.44250009,29.1182791 C11.7874459,29.1182791 13.0697165,28.2221028 13.9680463,26.4326112 C14.8663761,24.6431196 15.3446668,22.9063038 15.3446668,18.9135235 C15.6242332,18.0786563 9.28491686,22.7960834 1.31355749,18.7186262 Z" id="Path-2" stroke="#E7DDDD" stroke-width="0.4" fill="#FFFFFF" transform="translate(8.333564, 23.918453) rotate(-1.000000) translate(-8.333564, -23.918453) "></path>
                        <path d="M2.09010217,18.4301318 C2.09010217,21.9682577 2.16260339,23.7057225 3.14536919,25.1681435 C4.128135,26.6305645 5.80289033,27.743229 8.47421278,27.743229 C11.4696786,27.743229 12.6179776,26.9406851 13.4224499,25.3381596 C14.2269222,23.7356342 14.655241,22.1802809 14.655241,18.6046663 C14.9055983,17.857026 9.22861384,22.0815763 2.09010217,18.4301318 Z" id="Path-2-Copy" stroke="#F55858" stroke-width="0.5" fill="#FFFFFF" transform="translate(8.376658, 23.086680) rotate(-1.000000) translate(-8.376658, -23.086680) "></path>
                        <g id="shoestring" transform="translate(8.152005, 15.864876) rotate(90.000000) translate(-8.152005, -15.864876) translate(7.003069, 11.358578)">
                            <path d="M1.42977967,8.86565089 C1.65444082,8.86565089 1.83656466,8.5138719 1.83656466,8.07993054 C1.83656466,7.64598917 1.65444082,7.29421019 1.42977967,7.29421019 C1.20511853,7.29421019 1.02299468,7.64598917 1.02299468,8.07993054 C1.02299468,8.5138719 1.20511853,8.86565089 1.42977967,8.86565089 Z" id="Oval-3" fill="#D8D8D8" transform="translate(1.429780, 8.079931) rotate(90.000000) translate(-1.429780, -8.079931) "></path>
                            <path d="M0.877602659,8.08507084 C0.877602659,8.25821148 1.08333678,8.39856971 1.47484402,8.39856971 C1.86635127,8.39856971 2.0587008,8.25821148 2.0587008,8.08507084 C2.0587008,7.91193019 1.86635127,7.77157196 1.47484402,7.77157196 C1.08333678,7.77157196 0.877602659,7.91193019 0.877602659,8.08507084 Z" id="Oval-3-Copy" fill="#FEFCFC"></path>
                            <path d="M1.42977967,1.23960802 C1.65444082,1.23960802 1.83656466,0.887829041 1.83656466,0.453887674 C1.83656466,0.0199463072 1.65444082,-0.331832676 1.42977967,-0.331832676 C1.20511853,-0.331832676 1.02299468,0.0199463072 1.02299468,0.453887674 C1.02299468,0.887829041 1.20511853,1.23960802 1.42977967,1.23960802 Z" id="Oval-3-Copy-3" fill="#D8D8D8" transform="translate(1.429780, 0.453888) rotate(90.000000) translate(-1.429780, -0.453888) "></path>
                            <path d="M0.877602659,0.459027973 C0.877602659,0.63216862 1.08333678,0.772526845 1.47484402,0.772526845 C1.86635127,0.772526845 2.0587008,0.63216862 2.0587008,0.459027973 C2.0587008,0.285887327 1.86635127,0.145529102 1.47484402,0.145529102 C1.08333678,0.145529102 0.877602659,0.285887327 0.877602659,0.459027973 Z" id="Oval-3-Copy-2" fill="#FEFCFC"></path>
                            <use id="Rectangle-9" stroke="#8E8686" mask="url(#mask-16)" stroke-width="0.3" fill="#FFFFFF" xlink:href="#path-15"></use>
                        </g>
                        <g id="shoestring-copy" transform="translate(8.152005, 13.785046) rotate(90.000000) translate(-8.152005, -13.785046) translate(7.003069, 9.278748)">
                            <path d="M1.42977967,8.86565089 C1.65444082,8.86565089 1.83656466,8.5138719 1.83656466,8.07993054 C1.83656466,7.64598917 1.65444082,7.29421019 1.42977967,7.29421019 C1.20511853,7.29421019 1.02299468,7.64598917 1.02299468,8.07993054 C1.02299468,8.5138719 1.20511853,8.86565089 1.42977967,8.86565089 Z" id="Oval-3" fill="#D8D8D8" transform="translate(1.429780, 8.079931) rotate(90.000000) translate(-1.429780, -8.079931) "></path>
                            <path d="M0.877602659,8.08507084 C0.877602659,8.25821148 1.08333678,8.39856971 1.47484402,8.39856971 C1.86635127,8.39856971 2.0587008,8.25821148 2.0587008,8.08507084 C2.0587008,7.91193019 1.86635127,7.77157196 1.47484402,7.77157196 C1.08333678,7.77157196 0.877602659,7.91193019 0.877602659,8.08507084 Z" id="Oval-3-Copy" fill="#FEFCFC"></path>
                            <path d="M1.42977967,1.23960802 C1.65444082,1.23960802 1.83656466,0.887829041 1.83656466,0.453887674 C1.83656466,0.0199463072 1.65444082,-0.331832676 1.42977967,-0.331832676 C1.20511853,-0.331832676 1.02299468,0.0199463072 1.02299468,0.453887674 C1.02299468,0.887829041 1.20511853,1.23960802 1.42977967,1.23960802 Z" id="Oval-3-Copy-3" fill="#D8D8D8" transform="translate(1.429780, 0.453888) rotate(90.000000) translate(-1.429780, -0.453888) "></path>
                            <path d="M0.877602659,0.459027973 C0.877602659,0.63216862 1.08333678,0.772526845 1.47484402,0.772526845 C1.86635127,0.772526845 2.0587008,0.63216862 2.0587008,0.459027973 C2.0587008,0.285887327 1.86635127,0.145529102 1.47484402,0.145529102 C1.08333678,0.145529102 0.877602659,0.285887327 0.877602659,0.459027973 Z" id="Oval-3-Copy-2" fill="#FEFCFC"></path>
                            <use id="Rectangle-9" stroke="#8E8686" mask="url(#mask-18)" stroke-width="0.3" fill="#FFFFFF" xlink:href="#path-17"></use>
                        </g>
                        <g id="shoestring-copy-2" transform="translate(8.152005, 11.705216) rotate(90.000000) translate(-8.152005, -11.705216) translate(7.003069, 7.198918)">
                            <path d="M1.42977967,8.86565089 C1.65444082,8.86565089 1.83656466,8.5138719 1.83656466,8.07993054 C1.83656466,7.64598917 1.65444082,7.29421019 1.42977967,7.29421019 C1.20511853,7.29421019 1.02299468,7.64598917 1.02299468,8.07993054 C1.02299468,8.5138719 1.20511853,8.86565089 1.42977967,8.86565089 Z" id="Oval-3" fill="#D8D8D8" transform="translate(1.429780, 8.079931) rotate(90.000000) translate(-1.429780, -8.079931) "></path>
                            <path d="M0.877602659,8.08507084 C0.877602659,8.25821148 1.08333678,8.39856971 1.47484402,8.39856971 C1.86635127,8.39856971 2.0587008,8.25821148 2.0587008,8.08507084 C2.0587008,7.91193019 1.86635127,7.77157196 1.47484402,7.77157196 C1.08333678,7.77157196 0.877602659,7.91193019 0.877602659,8.08507084 Z" id="Oval-3-Copy" fill="#FEFCFC"></path>
                            <path d="M1.42977967,1.23960802 C1.65444082,1.23960802 1.83656466,0.887829041 1.83656466,0.453887674 C1.83656466,0.0199463072 1.65444082,-0.331832676 1.42977967,-0.331832676 C1.20511853,-0.331832676 1.02299468,0.0199463072 1.02299468,0.453887674 C1.02299468,0.887829041 1.20511853,1.23960802 1.42977967,1.23960802 Z" id="Oval-3-Copy-3" fill="#D8D8D8" transform="translate(1.429780, 0.453888) rotate(90.000000) translate(-1.429780, -0.453888) "></path>
                            <path d="M0.877602659,0.459027973 C0.877602659,0.63216862 1.08333678,0.772526845 1.47484402,0.772526845 C1.86635127,0.772526845 2.0587008,0.63216862 2.0587008,0.459027973 C2.0587008,0.285887327 1.86635127,0.145529102 1.47484402,0.145529102 C1.08333678,0.145529102 0.877602659,0.285887327 0.877602659,0.459027973 Z" id="Oval-3-Copy-2" fill="#FEFCFC"></path>
                            <use id="Rectangle-9" stroke="#8E8686" mask="url(#mask-20)" stroke-width="0.3" fill="#FFFFFF" xlink:href="#path-19"></use>
                        </g>
                        <g id="shoestring-copy-3" transform="translate(8.152005, 9.625386) rotate(90.000000) translate(-8.152005, -9.625386) translate(7.003069, 5.119088)">
                            <path d="M1.42977967,8.86565089 C1.65444082,8.86565089 1.83656466,8.5138719 1.83656466,8.07993054 C1.83656466,7.64598917 1.65444082,7.29421019 1.42977967,7.29421019 C1.20511853,7.29421019 1.02299468,7.64598917 1.02299468,8.07993054 C1.02299468,8.5138719 1.20511853,8.86565089 1.42977967,8.86565089 Z" id="Oval-3" fill="#D8D8D8" transform="translate(1.429780, 8.079931) rotate(90.000000) translate(-1.429780, -8.079931) "></path>
                            <path d="M0.877602659,8.08507084 C0.877602659,8.25821148 1.08333678,8.39856971 1.47484402,8.39856971 C1.86635127,8.39856971 2.0587008,8.25821148 2.0587008,8.08507084 C2.0587008,7.91193019 1.86635127,7.77157196 1.47484402,7.77157196 C1.08333678,7.77157196 0.877602659,7.91193019 0.877602659,8.08507084 Z" id="Oval-3-Copy" fill="#FEFCFC"></path>
                            <path d="M1.42977967,1.23960802 C1.65444082,1.23960802 1.83656466,0.887829041 1.83656466,0.453887674 C1.83656466,0.0199463072 1.65444082,-0.331832676 1.42977967,-0.331832676 C1.20511853,-0.331832676 1.02299468,0.0199463072 1.02299468,0.453887674 C1.02299468,0.887829041 1.20511853,1.23960802 1.42977967,1.23960802 Z" id="Oval-3-Copy-3" fill="#D8D8D8" transform="translate(1.429780, 0.453888) rotate(90.000000) translate(-1.429780, -0.453888) "></path>
                            <path d="M0.877602659,0.459027973 C0.877602659,0.63216862 1.08333678,0.772526845 1.47484402,0.772526845 C1.86635127,0.772526845 2.0587008,0.63216862 2.0587008,0.459027973 C2.0587008,0.285887327 1.86635127,0.145529102 1.47484402,0.145529102 C1.08333678,0.145529102 0.877602659,0.285887327 0.877602659,0.459027973 Z" id="Oval-3-Copy-2" fill="#FEFCFC"></path>
                            <use id="Rectangle-9" stroke="#8E8686" mask="url(#mask-22)" stroke-width="0.3" fill="#FFFFFF" xlink:href="#path-21"></use>
                        </g>
                        <g id="shoestring-copy-4" transform="translate(8.152005, 7.545556) rotate(90.000000) translate(-8.152005, -7.545556) translate(7.003069, 3.039258)">
                            <path d="M1.42977967,8.86565089 C1.65444082,8.86565089 1.83656466,8.5138719 1.83656466,8.07993054 C1.83656466,7.64598917 1.65444082,7.29421019 1.42977967,7.29421019 C1.20511853,7.29421019 1.02299468,7.64598917 1.02299468,8.07993054 C1.02299468,8.5138719 1.20511853,8.86565089 1.42977967,8.86565089 Z" id="Oval-3" fill="#D8D8D8" transform="translate(1.429780, 8.079931) rotate(90.000000) translate(-1.429780, -8.079931) "></path>
                            <path d="M0.877602659,8.08507084 C0.877602659,8.25821148 1.08333678,8.39856971 1.47484402,8.39856971 C1.86635127,8.39856971 2.0587008,8.25821148 2.0587008,8.08507084 C2.0587008,7.91193019 1.86635127,7.77157196 1.47484402,7.77157196 C1.08333678,7.77157196 0.877602659,7.91193019 0.877602659,8.08507084 Z" id="Oval-3-Copy" fill="#FEFCFC"></path>
                            <path d="M1.42977967,1.23960802 C1.65444082,1.23960802 1.83656466,0.887829041 1.83656466,0.453887674 C1.83656466,0.0199463072 1.65444082,-0.331832676 1.42977967,-0.331832676 C1.20511853,-0.331832676 1.02299468,0.0199463072 1.02299468,0.453887674 C1.02299468,0.887829041 1.20511853,1.23960802 1.42977967,1.23960802 Z" id="Oval-3-Copy-3" fill="#D8D8D8" transform="translate(1.429780, 0.453888) rotate(90.000000) translate(-1.429780, -0.453888) "></path>
                            <path d="M0.877602659,0.459027973 C0.877602659,0.63216862 1.08333678,0.772526845 1.47484402,0.772526845 C1.86635127,0.772526845 2.0587008,0.63216862 2.0587008,0.459027973 C2.0587008,0.285887327 1.86635127,0.145529102 1.47484402,0.145529102 C1.08333678,0.145529102 0.877602659,0.285887327 0.877602659,0.459027973 Z" id="Oval-3-Copy-2" fill="#FEFCFC"></path>
                            <use id="Rectangle-9" stroke="#8E8686" mask="url(#mask-24)" stroke-width="0.3" fill="#FFFFFF" xlink:href="#path-23"></use>
                        </g>
                        <g id="shoestring-copy-5" transform="translate(8.152005, 5.465726) rotate(90.000000) translate(-8.152005, -5.465726) translate(7.003069, 0.959428)">
                            <path d="M1.42977967,8.86565089 C1.65444082,8.86565089 1.83656466,8.5138719 1.83656466,8.07993054 C1.83656466,7.64598917 1.65444082,7.29421019 1.42977967,7.29421019 C1.20511853,7.29421019 1.02299468,7.64598917 1.02299468,8.07993054 C1.02299468,8.5138719 1.20511853,8.86565089 1.42977967,8.86565089 Z" id="Oval-3" fill="#D8D8D8" transform="translate(1.429780, 8.079931) rotate(90.000000) translate(-1.429780, -8.079931) "></path>
                            <path d="M0.877602659,8.08507084 C0.877602659,8.25821148 1.08333678,8.39856971 1.47484402,8.39856971 C1.86635127,8.39856971 2.0587008,8.25821148 2.0587008,8.08507084 C2.0587008,7.91193019 1.86635127,7.77157196 1.47484402,7.77157196 C1.08333678,7.77157196 0.877602659,7.91193019 0.877602659,8.08507084 Z" id="Oval-3-Copy" fill="#FEFCFC"></path>
                            <path d="M1.42977967,1.23960802 C1.65444082,1.23960802 1.83656466,0.887829041 1.83656466,0.453887674 C1.83656466,0.0199463072 1.65444082,-0.331832676 1.42977967,-0.331832676 C1.20511853,-0.331832676 1.02299468,0.0199463072 1.02299468,0.453887674 C1.02299468,0.887829041 1.20511853,1.23960802 1.42977967,1.23960802 Z" id="Oval-3-Copy-3" fill="#D8D8D8" transform="translate(1.429780, 0.453888) rotate(90.000000) translate(-1.429780, -0.453888) "></path>
                            <path d="M0.877602659,0.459027973 C0.877602659,0.63216862 1.08333678,0.772526845 1.47484402,0.772526845 C1.86635127,0.772526845 2.0587008,0.63216862 2.0587008,0.459027973 C2.0587008,0.285887327 1.86635127,0.145529102 1.47484402,0.145529102 C1.08333678,0.145529102 0.877602659,0.285887327 0.877602659,0.459027973 Z" id="Oval-3-Copy-2" fill="#FEFCFC"></path>
                        </g>
                        <path d="M3.04377532,5.68339042 C-0.434056917,9.00255843 3.76484503,10.5211722 0.932583256,13.5003125 C0.932583256,13.5003125 0.611922807,13.7756699 0.72906468,14.0120295 C0.846206553,14.2483891 1.07799613,14.4431759 1.28460751,14.2105993 C1.49121889,13.9780227 1.89661129,13.3860435 2.11682275,12.8066846 C2.33703422,12.2273258 2.5830721,11.5472522 2.34994743,10.3867316 C2.11682275,9.22621101 2.11682275,8.83448014 2.11682275,8.83448014 C2.11682275,8.83448014 1.93899135,8.13003601 2.45078037,7.42857602 C2.75698592,6.96474005 3.35030917,6.33942619 3.35030917,6.33942619 C3.35030917,6.33942619 4.15394287,5.78934926 3.69888955,5.53675403 C3.24383623,5.2841588 3.04377532,5.68339042 3.04377532,5.68339042 Z" id="Path-5" stroke="#979797" stroke-width="0.15" fill="#FFFFFF" transform="translate(2.270874, 9.884112) rotate(7.000000) translate(-2.270874, -9.884112) "></path>
                        <path d="M15.2709714,6.014692 C14.0339549,7.19527387 13.9881216,8.2359788 14.0454809,9.18508458 C14.0913288,9.943715 14.5796713,11.2801282 13.8974462,12.8685533 C13.7258621,13.2680527 13.5132474,13.7481333 13.4487409,13.9273196 C13.3842344,14.1065058 13.5185863,14.0178274 13.2444649,14.3061646 C13.2444649,14.3061646 12.9238044,14.5815219 13.0409463,14.8178816 C13.1580882,15.0542412 13.3898778,15.249028 13.5964891,15.0164514 C13.8031005,14.7838748 14.3153373,13.3769974 14.5355487,12.7976386 C14.7557602,12.2182798 15.0017981,11.5382061 14.7686734,10.3776856 C14.5355487,9.21716498 14.5355487,8.82543411 14.5355487,8.82543411 C14.5355487,8.82543411 14.3577173,8.12098998 14.8695064,7.41952999 C15.1757119,6.95569401 15.7690351,6.33038015 15.7690351,6.33038015 C15.7690351,6.33038015 16.5726688,5.78030322 16.1176155,5.527708 C15.6625622,5.27511277 15.2709714,6.014692 15.2709714,6.014692 Z" id="Path-5-Copy" stroke="#979797" stroke-width="0.15" fill="#FFFFFF" transform="translate(14.636178, 10.298107) scale(-1, 1) rotate(7.000000) translate(-14.636178, -10.298107) "></path>
                    </g>
                </g>
            </g>
        </g>
    </g>
</svg>