<?xml version="1.0" encoding="UTF-8"?>
<svg width="240px" height="371px" viewBox="0 0 240 371" version="1.1" xmlns="http://www.w3.org/2000/svg" xmlns:xlink="http://www.w3.org/1999/xlink">
    <!-- Generator: Sketch 42 (36781) - http://www.bohemiancoding.com/sketch -->
    <title>Group 3 Copy 10</title>
    <desc>Created with Sketch.</desc>
    <defs>
        <linearGradient x1="50%" y1="0%" x2="50%" y2="100%" id="linearGradient-1">
            <stop stop-color="#FFE900" offset="0%"></stop>
            <stop stop-color="#FFCE00" offset="100%"></stop>
        </linearGradient>
        <path d="M2.51620496,23.0005511 C2.51620496,13.0625151 10.577355,5.00614514 20.5172085,5.00614514 L69.4833272,5.00614514 L124.920449,5.00614514 C134.861571,5.00614514 142.920442,13.0557233 142.920442,23.0005511 L142.920442,132.86713 C142.920442,142.805166 134.867411,150.861536 124.924063,150.861536 L20.512584,150.861536 C10.5734583,150.861536 2.51620496,142.811958 2.51620496,132.86713 L2.51620496,23.0005511 Z" id="path-2"></path>
        <filter x="-50%" y="-50%" width="200%" height="200%" filterUnits="objectBoundingBox" id="filter-3">
            <feOffset dx="0" dy="2" in="SourceAlpha" result="shadowOffsetOuter1"></feOffset>
            <feGaussianBlur stdDeviation="25" in="shadowOffsetOuter1" result="shadowBlurOuter1"></feGaussianBlur>
            <feColorMatrix values="0 0 0 0 0.580392157   0 0 0 0 0.501960784   0 0 0 0 0.850980392  0 0 0 1 0" type="matrix" in="shadowBlurOuter1"></feColorMatrix>
        </filter>
        <path d="M2.51620496,167.403788 C2.51620496,157.461966 8.49307929,154.805977 15.8675329,161.472922 L129.569114,264.265919 C136.942849,270.932215 134.867411,276.336315 124.924063,276.336315 L20.512584,276.336315 C10.5734583,276.336315 2.51620496,268.275588 2.51620496,258.335054 L2.51620496,167.403788 Z" id="path-4"></path>
        <filter x="-50%" y="-50%" width="200%" height="200%" filterUnits="objectBoundingBox" id="filter-5">
            <feOffset dx="0" dy="2" in="SourceAlpha" result="shadowOffsetOuter1"></feOffset>
            <feGaussianBlur stdDeviation="25" in="shadowOffsetOuter1" result="shadowBlurOuter1"></feGaussianBlur>
            <feColorMatrix values="0 0 0 0 0.498039216   0 0 0 0 0.698039216   0 0 0 0 0.933333333  0 0 0 1 0" type="matrix" in="shadowBlurOuter1"></feColorMatrix>
        </filter>
        <path d="M11.8218926,164.805243 C11.8218926,154.863422 17.798767,152.207433 25.1732206,158.874378 L138.874801,261.667375 C146.248536,268.33367 144.173099,273.73777 134.22975,273.73777 L29.8182717,273.73777 C19.879146,273.73777 11.8218926,265.677043 11.8218926,255.736509 L11.8218926,164.805243 Z" id="path-6"></path>
        <filter x="-50%" y="-50%" width="200%" height="200%" filterUnits="objectBoundingBox" id="filter-7">
            <feOffset dx="0" dy="2" in="SourceAlpha" result="shadowOffsetOuter1"></feOffset>
            <feGaussianBlur stdDeviation="25" in="shadowOffsetOuter1" result="shadowBlurOuter1"></feGaussianBlur>
            <feColorMatrix values="0 0 0 0 0.666666667   0 0 0 0 0.839215686   0 0 0 0 0.290196078  0 0 0 1 0" type="matrix" in="shadowBlurOuter1"></feColorMatrix>
        </filter>
        <linearGradient x1="0%" y1="6.24500451e-15%" x2="101.999998%" y2="100.999999%" id="linearGradient-8">
            <stop stop-color="#3567FF" offset="0%"></stop>
            <stop stop-color="#6133FF" offset="99.2008131%"></stop>
        </linearGradient>
        <rect id="path-9" x="0" y="0" width="146.443129" height="283.047756" rx="18"></rect>
        <linearGradient x1="50%" y1="-2.48949813e-15%" x2="50%" y2="100%" id="linearGradient-11">
            <stop stop-color="#FFFFFF" stop-opacity="0.447690217" offset="0%"></stop>
            <stop stop-color="#FFFFFF" stop-opacity="0" offset="100%"></stop>
        </linearGradient>
        <path d="M0,18.0014496 C0,8.0595235 8.0558089,2.84217094e-14 17.9934773,2.84217094e-14 L128.449651,2.84217094e-14 C138.387174,2.84217094e-14 146.443129,8.05267887 146.443129,18.0014496 L146.443129,283.047756 L0,283.047756 L0,18.0014496 Z" id="path-12"></path>
        <filter x="-50%" y="-50%" width="200%" height="200%" filterUnits="objectBoundingBox" id="filter-13">
            <feOffset dx="0" dy="2" in="SourceAlpha" result="shadowOffsetOuter1"></feOffset>
            <feGaussianBlur stdDeviation="21" in="shadowOffsetOuter1" result="shadowBlurOuter1"></feGaussianBlur>
            <feColorMatrix values="0 0 0 0 0.556862745   0 0 0 0 0.474509804   0 0 0 0 0.843137255  0 0 0 1 0" type="matrix" in="shadowBlurOuter1"></feColorMatrix>
        </filter>
        <linearGradient x1="50%" y1="0%" x2="50%" y2="28.7864056%" id="linearGradient-14">
            <stop stop-color="#A9D3F7" offset="0%"></stop>
            <stop stop-color="#70A8EC" offset="100%"></stop>
        </linearGradient>
        <ellipse id="path-15" cx="219.916314" cy="255.034783" rx="219.916314" ry="255.034783"></ellipse>
        <filter x="-50%" y="-50%" width="200%" height="200%" filterUnits="objectBoundingBox" id="filter-17">
            <feOffset dx="0" dy="2" in="SourceAlpha" result="shadowOffsetOuter1"></feOffset>
            <feGaussianBlur stdDeviation="13.5" in="shadowOffsetOuter1" result="shadowBlurOuter1"></feGaussianBlur>
            <feColorMatrix values="0 0 0 0 0.666666667   0 0 0 0 0.839215686   0 0 0 0 0.290196078  0 0 0 0.554545969 0" type="matrix" in="shadowBlurOuter1"></feColorMatrix>
        </filter>
        <filter x="-50%" y="-50%" width="200%" height="200%" filterUnits="objectBoundingBox" id="filter-18">
            <feOffset dx="0" dy="76" in="SourceAlpha" result="shadowOffsetInner1"></feOffset>
            <feComposite in="shadowOffsetInner1" in2="SourceAlpha" operator="arithmetic" k2="-1" k3="1" result="shadowInnerInner1"></feComposite>
            <feColorMatrix values="0 0 0 0 1   0 0 0 0 1   0 0 0 0 1  0 0 0 0.093580163 0" type="matrix" in="shadowInnerInner1"></feColorMatrix>
        </filter>
        <linearGradient x1="50%" y1="0%" x2="50%" y2="100%" id="linearGradient-19">
            <stop stop-color="#B4ED50" offset="0%"></stop>
            <stop stop-color="#429321" offset="100%"></stop>
        </linearGradient>
        <path d="M159.301331,9.81050458 C178.556282,3.42148113 198.891753,0 219.916314,0 C254.633855,0 287.472428,9.32949698 316.669564,25.9445731 L294.176205,106.834463 C294.176205,106.834463 293.389491,62.3987677 267.219603,83.2837415 C241.049716,104.168715 228.152659,74.5319977 213.726839,62.3987691 C199.301018,50.2655406 230.896542,54.3892815 228.661882,50.8537211 C226.427222,47.3181606 220.167934,45.9828477 203.351114,45.9828477 C186.534294,45.9828477 174.989533,18.9994832 167.356161,13.3372151 C164.987888,11.5804826 162.124563,10.4853988 159.301331,9.81050458 Z" id="path-20"></path>
        <filter x="-50%" y="-50%" width="200%" height="200%" filterUnits="objectBoundingBox" id="filter-22">
            <feOffset dx="0" dy="2" in="SourceAlpha" result="shadowOffsetOuter1"></feOffset>
            <feColorMatrix values="0 0 0 0 0.268537249   0 0 0 0 0.566253447   0 0 0 0 0.915497449  0 0 0 0.608101223 0" type="matrix" in="shadowOffsetOuter1"></feColorMatrix>
        </filter>
        <path d="M249.291137,40.4144478 C252.951711,51.3872896 255.704637,63.7263853 266.995888,60.0154996 C278.287139,56.3046139 281.12678,43.035342 277.621481,37.9410058 C274.116183,32.8466697 259.581408,19.2564719 255.49397,25.5376557 C251.406532,31.8188395 245.630562,29.441606 249.291137,40.4144478 Z" id="path-23"></path>
        <filter x="-50%" y="-50%" width="200%" height="200%" filterUnits="objectBoundingBox" id="filter-24">
            <feOffset dx="-1" dy="2" in="SourceAlpha" result="shadowOffsetOuter1"></feOffset>
            <feColorMatrix values="0 0 0 0 0   0 0 0 0 0   0 0 0 0 0  0 0 0 0.15 0" type="matrix" in="shadowOffsetOuter1"></feColorMatrix>
        </filter>
        <ellipse id="path-25" cx="261.433695" cy="32.9736046" rx="2.76782546" ry="1.45900905"></ellipse>
        <filter x="-50%" y="-50%" width="200%" height="200%" filterUnits="objectBoundingBox" id="filter-26">
            <feOffset dx="0" dy="2" in="SourceAlpha" result="shadowOffsetOuter1"></feOffset>
            <feGaussianBlur stdDeviation="2" in="shadowOffsetOuter1" result="shadowBlurOuter1"></feGaussianBlur>
            <feColorMatrix values="0 0 0 0 0   0 0 0 0 0   0 0 0 0 0  0 0 0 0.127094656 0" type="matrix" in="shadowBlurOuter1"></feColorMatrix>
        </filter>
        <ellipse id="path-27" cx="33.2139055" cy="213.598925" rx="8.55509686" ry="4.66882897"></ellipse>
        <filter x="-50%" y="-50%" width="200%" height="200%" filterUnits="objectBoundingBox" id="filter-28">
            <feOffset dx="0" dy="2" in="SourceAlpha" result="shadowOffsetOuter1"></feOffset>
            <feColorMatrix values="0 0 0 0 0.28627451   0 0 0 0 0.521568627   0 0 0 0 0.811764706  0 0 0 0.536005435 0" type="matrix" in="shadowOffsetOuter1"></feColorMatrix>
        </filter>
        <ellipse id="path-29" cx="32.962285" cy="212.72352" rx="2.76782546" ry="1.45900905"></ellipse>
        <filter x="-50%" y="-50%" width="200%" height="200%" filterUnits="objectBoundingBox" id="filter-30">
            <feOffset dx="0" dy="2" in="SourceAlpha" result="shadowOffsetOuter1"></feOffset>
            <feGaussianBlur stdDeviation="2" in="shadowOffsetOuter1" result="shadowBlurOuter1"></feGaussianBlur>
            <feColorMatrix values="0 0 0 0 0   0 0 0 0 0   0 0 0 0 0  0 0 0 0.261888587 0" type="matrix" in="shadowBlurOuter1"></feColorMatrix>
        </filter>
        <path d="M34.265812,211.244973 C34.265812,211.244973 65.3033803,183.89377 115.783982,183.89377" id="path-31"></path>
        <filter x="-50%" y="-50%" width="200%" height="200%" filterUnits="objectBoundingBox" id="filter-32">
            <feMorphology radius="0.5" operator="dilate" in="SourceAlpha" result="shadowSpreadOuter1"></feMorphology>
            <feOffset dx="0" dy="1" in="shadowSpreadOuter1" result="shadowOffsetOuter1"></feOffset>
            <feMorphology radius="1" operator="erode" in="SourceAlpha" result="shadowInner"></feMorphology>
            <feOffset dx="0" dy="1" in="shadowInner" result="shadowInner"></feOffset>
            <feComposite in="shadowOffsetOuter1" in2="shadowInner" operator="out" result="shadowOffsetOuter1"></feComposite>
            <feGaussianBlur stdDeviation="1" in="shadowOffsetOuter1" result="shadowBlurOuter1"></feGaussianBlur>
            <feColorMatrix values="0 0 0 0 0   0 0 0 0 0   0 0 0 0 0  0 0 0 0.27306952 0" type="matrix" in="shadowBlurOuter1"></feColorMatrix>
        </filter>
    </defs>
    <g id="Page-1" stroke="none" stroke-width="1" fill="none" fill-rule="evenodd" opacity="0.783004982">
        <g id="Bg" transform="translate(-1161.000000, -185.000000)">
            <g transform="translate(117.881395, 227.923557)" id="Group-3-Copy-10">
                <g transform="translate(1090.217997, 0.000000)">
                    <g id="Rectangle">
                        <use fill="black" fill-opacity="1" filter="url(#filter-3)" xlink:href="#path-2"></use>
                        <use fill="url(#linearGradient-1)" fill-rule="evenodd" xlink:href="#path-2"></use>
                    </g>
                    <g id="Rectangle-Copy-2">
                        <use fill="black" fill-opacity="1" filter="url(#filter-5)" xlink:href="#path-4"></use>
                        <use fill="url(#linearGradient-1)" fill-rule="evenodd" xlink:href="#path-4"></use>
                    </g>
                    <g id="Rectangle-Copy-3" transform="translate(77.555580, 214.468695) scale(-1, -1) translate(-77.555580, -214.468695) ">
                        <use fill="black" fill-opacity="1" filter="url(#filter-7)" xlink:href="#path-6"></use>
                        <use fill="url(#linearGradient-1)" fill-rule="evenodd" xlink:href="#path-6"></use>
                    </g>
                    <mask id="mask-10" fill="white">
                        <use xlink:href="#path-9"></use>
                    </mask>
                    <use id="Mask" fill="url(#linearGradient-8)" xlink:href="#path-9"></use>
                    <g id="Combined-Shape" opacity="0.519181437" mask="url(#mask-10)">
                        <use fill="black" fill-opacity="1" filter="url(#filter-13)" xlink:href="#path-12"></use>
                        <use fill="url(#linearGradient-11)" fill-rule="evenodd" xlink:href="#path-12"></use>
                    </g>
                    <path d="M34.6163945,138.631143 L34.4099874,138.398902 C34.4099874,138.398902 34.0303457,138.256028 33.7674223,138.565683 C33.3243842,139.088225 32.7287522,139.789217 32.7287522,139.789217 L29.8100571,139.29969 L29.4434387,139.68875 L31.6075192,141.14168 L30.8150632,142.042468 L29.4852116,142.146351 L29.2301513,142.253079 L30.5924384,143.126829 L31.3195321,144.714948 L31.4197869,144.416393 L31.5043156,142.937849 C31.5043156,142.937849 33.7403928,140.304645 34.6173774,139.271798 C34.8314019,139.019634 34.6163945,138.631143 34.6163945,138.631143 L34.6163945,138.631143 L34.6163945,138.631143 Z M32.4031695,142.068652 L33.4838582,144.411555 L33.770371,144.03644 L33.4720635,140.933062 L32.4031695,142.068652 L32.4031695,142.068652 L32.4031695,142.068652 Z" id="Shape" fill="#FFFFFF" mask="url(#mask-10)" transform="translate(31.971198, 141.540471) rotate(40.000000) translate(-31.971198, -141.540471) "></path>
                    <g id="Group-2" mask="url(#mask-10)">
                        <g transform="translate(-146.946370, 151.153338)">
                            <mask id="mask-16" fill="white">
                                <use xlink:href="#path-15"></use>
                            </mask>
                            <g id="Mask" stroke="none" fill="none">
                                <use fill="black" fill-opacity="1" filter="url(#filter-17)" xlink:href="#path-15"></use>
                                <use fill="url(#linearGradient-14)" fill-rule="evenodd" xlink:href="#path-15"></use>
                                <use fill="black" fill-opacity="1" filter="url(#filter-18)" xlink:href="#path-15"></use>
                            </g>
                            <mask id="mask-21" fill="white">
                                <use xlink:href="#path-20"></use>
                            </mask>
                            <g id="Combined-Shape" stroke="none" fill="none">
                                <use fill="black" fill-opacity="1" filter="url(#filter-22)" xlink:href="#path-20"></use>
                                <use fill="url(#linearGradient-19)" fill-rule="evenodd" xlink:href="#path-20"></use>
                            </g>
                            <g id="Path-3" stroke="none" fill="none" mask="url(#mask-21)">
                                <use fill="black" fill-opacity="1" filter="url(#filter-24)" xlink:href="#path-23"></use>
                                <use fill="#F3E87A" fill-rule="evenodd" xlink:href="#path-23"></use>
                            </g>
                            <g id="Oval-5" stroke="none" fill="none" mask="url(#mask-21)" fill-opacity="1">
                                <use fill="black" filter="url(#filter-26)" xlink:href="#path-25"></use>
                            </g>
                            <ellipse id="Oval-4" stroke="none" fill="#D2C11C" fill-rule="evenodd" mask="url(#mask-21)" cx="264.956382" cy="42.0194607" rx="4.78078942" ry="3.50162173"></ellipse>
                        </g>
                    </g>
                    <g id="Oval-3" mask="url(#mask-10)">
                        <use fill="black" fill-opacity="1" filter="url(#filter-28)" xlink:href="#path-27"></use>
                        <use fill="#AAD64A" fill-rule="evenodd" xlink:href="#path-27"></use>
                    </g>
                    <g id="Oval-5" mask="url(#mask-10)" fill-opacity="1" fill="black">
                        <use filter="url(#filter-30)" xlink:href="#path-29"></use>
                    </g>
                    <path d="M114.816084,183.672087 C114.79202,183.693338 114.763018,183.704016 114.734004,183.704016 C114.704991,183.704016 114.676007,183.693338 114.651925,183.672087 C114.562809,183.593617 112.46942,181.426039 112.46942,179.482934 C112.46942,178.086146 113.485376,176.949869 114.734004,176.949869 C115.982652,176.949869 116.998589,178.086146 116.998589,179.482934 C116.998589,181.426032 114.905193,183.593617 114.816084,183.672087 L114.816084,183.672087 Z M114.734004,178.299769 C114.150381,178.299769 113.677259,178.829194 113.677259,179.482285 C113.677259,180.135355 114.150375,180.66478 114.734004,180.66478 C115.317634,180.66478 115.79075,180.135348 115.79075,179.482285 C115.790744,178.8292 115.317628,178.299769 114.734004,178.299769 L114.734004,178.299769 Z" id="Shape-Copy" fill="#FFFFFF" mask="url(#mask-10)"></path>
                    <path d="M33.3414057,210.624739 C33.3040252,210.65775 33.2589749,210.674336 33.2139055,210.674336 C33.168836,210.674336 33.1238146,210.65775 33.0864053,210.624739 C32.9479757,210.502845 29.6961603,207.135788 29.6961603,204.11742 C29.6961603,201.947687 31.274319,200.182624 33.2139055,200.182624 C35.1535208,200.182624 36.7316507,201.947687 36.7316507,204.11742 C36.7316507,207.135777 33.4798257,210.502845 33.3414057,210.624739 L33.3414057,210.624739 Z M33.2139055,202.279523 C32.3073206,202.279523 31.572385,203.101917 31.572385,204.116411 C31.572385,205.130873 32.307311,205.953268 33.2139055,205.953268 C34.1204999,205.953268 34.8554259,205.130863 34.8554259,204.116411 C34.8554164,203.101928 34.1204903,202.279523 33.2139055,202.279523 L33.2139055,202.279523 Z" id="Shape" fill="#FFFFFF" mask="url(#mask-10)"></path>
                    <path d="M33.2593301,210.077765 C33.2593301,210.077765 59.2698431,170.28463 114.7775,182.726563" id="Path-4" stroke="#FFFFFF" stroke-linecap="round" stroke-linejoin="round" stroke-dasharray="4,4" mask="url(#mask-10)"></path>
                    <g id="Path-4-Copy" mask="url(#mask-10)">
                        <use fill="black" fill-opacity="1" filter="url(#filter-32)" xlink:href="#path-31"></use>
                        <use stroke-opacity="0" stroke="#000000" stroke-width="1" stroke-linecap="round" stroke-linejoin="round" stroke-dasharray="4,4" xlink:href="#path-31"></use>
                    </g>
                    <path d="M-11.3297992,160.399169 C-11.3297992,160.399169 2.88287902,144.062674 30.4270696,143.368456" id="Path-5" stroke="#FFFFFF" stroke-width="0.5" stroke-linecap="round" stroke-linejoin="round" stroke-dasharray="4,4" mask="url(#mask-10)" transform="translate(9.548635, 151.883812) rotate(-4.000000) translate(-9.548635, -151.883812) "></path>
                </g>
            </g>
        </g>
    </g>
</svg>