<?xml version="1.0" encoding="UTF-8"?>
<svg width="86px" height="173px" viewBox="0 0 86 173" version="1.1" xmlns="http://www.w3.org/2000/svg" xmlns:xlink="http://www.w3.org/1999/xlink">
    <!-- Generator: Sketch 42 (36781) - http://www.bohemiancoding.com/sketch -->
    <title>WD2</title>
    <desc>Created with Sketch.</desc>
    <defs>
        <polygon id="path-1" points="54.609 54.3911 54.609 0.3911 0.6091 0.3911 0.6091 54.3911 54.609 54.3911"></polygon>
        <path d="M1.01404945,0.281108601 C1.01404945,0.281108601 1.14364105,0.0852311556 1.40541971,0.0852311556 C1.66719837,0.0852311556 1.82761943,0.281108601 1.82761943,0.281108601 C1.82761943,0.281108601 1.71306912,0.367145479 1.70658256,0.572631438 C1.70009599,0.778117397 1.72623183,3.62379093 1.70658256,5.63004886 C1.68195671,8.14443109 1.7502264,8.15427161 1.7502264,8.15427161 C1.7502264,8.15427161 1.6900549,8.28669866 1.40541971,8.30121952 C1.12078452,8.31574039 1.01404945,8.12809424 1.01404945,8.12809424 C1.01404945,8.12809424 1.14364105,7.84314562 1.14364105,5.99534742 C1.14364105,4.14754921 1.14212903,2.62697439 1.14364105,1.78843411 C1.1461262,0.410203777 1.01404945,0.281108601 1.01404945,0.281108601 Z" id="path-3"></path>
        <mask id="mask-4" maskContentUnits="userSpaceOnUse" maskUnits="objectBoundingBox" x="0" y="0" width="0.813569978" height="8.21678966" fill="white">
            <use xlink:href="#path-3"></use>
        </mask>
        <path d="M1.01404945,0.281108601 C1.01404945,0.281108601 1.14364105,0.0852311556 1.40541971,0.0852311556 C1.66719837,0.0852311556 1.82761943,0.281108601 1.82761943,0.281108601 C1.82761943,0.281108601 1.71306912,0.367145479 1.70658256,0.572631438 C1.70009599,0.778117397 1.72623183,3.62379093 1.70658256,5.63004886 C1.68195671,8.14443109 1.7502264,8.15427161 1.7502264,8.15427161 C1.7502264,8.15427161 1.6900549,8.28669866 1.40541971,8.30121952 C1.12078452,8.31574039 1.01404945,8.12809424 1.01404945,8.12809424 C1.01404945,8.12809424 1.14364105,7.84314562 1.14364105,5.99534742 C1.14364105,4.14754921 1.14212903,2.62697439 1.14364105,1.78843411 C1.1461262,0.410203777 1.01404945,0.281108601 1.01404945,0.281108601 Z" id="path-5"></path>
        <mask id="mask-6" maskContentUnits="userSpaceOnUse" maskUnits="objectBoundingBox" x="0" y="0" width="0.813569978" height="8.21678966" fill="white">
            <use xlink:href="#path-5"></use>
        </mask>
        <path d="M1.01404945,0.281108601 C1.01404945,0.281108601 1.14364105,0.0852311556 1.40541971,0.0852311556 C1.66719837,0.0852311556 1.82761943,0.281108601 1.82761943,0.281108601 C1.82761943,0.281108601 1.71306912,0.367145479 1.70658256,0.572631438 C1.70009599,0.778117397 1.72623183,3.62379093 1.70658256,5.63004886 C1.68195671,8.14443109 1.7502264,8.15427161 1.7502264,8.15427161 C1.7502264,8.15427161 1.6900549,8.28669866 1.40541971,8.30121952 C1.12078452,8.31574039 1.01404945,8.12809424 1.01404945,8.12809424 C1.01404945,8.12809424 1.14364105,7.84314562 1.14364105,5.99534742 C1.14364105,4.14754921 1.14212903,2.62697439 1.14364105,1.78843411 C1.1461262,0.410203777 1.01404945,0.281108601 1.01404945,0.281108601 Z" id="path-7"></path>
        <mask id="mask-8" maskContentUnits="userSpaceOnUse" maskUnits="objectBoundingBox" x="0" y="0" width="0.813569978" height="8.21678966" fill="white">
            <use xlink:href="#path-7"></use>
        </mask>
        <path d="M1.01404945,0.281108601 C1.01404945,0.281108601 1.14364105,0.0852311556 1.40541971,0.0852311556 C1.66719837,0.0852311556 1.82761943,0.281108601 1.82761943,0.281108601 C1.82761943,0.281108601 1.71306912,0.367145479 1.70658256,0.572631438 C1.70009599,0.778117397 1.72623183,3.62379093 1.70658256,5.63004886 C1.68195671,8.14443109 1.7502264,8.15427161 1.7502264,8.15427161 C1.7502264,8.15427161 1.6900549,8.28669866 1.40541971,8.30121952 C1.12078452,8.31574039 1.01404945,8.12809424 1.01404945,8.12809424 C1.01404945,8.12809424 1.14364105,7.84314562 1.14364105,5.99534742 C1.14364105,4.14754921 1.14212903,2.62697439 1.14364105,1.78843411 C1.1461262,0.410203777 1.01404945,0.281108601 1.01404945,0.281108601 Z" id="path-9"></path>
        <mask id="mask-10" maskContentUnits="userSpaceOnUse" maskUnits="objectBoundingBox" x="0" y="0" width="0.813569978" height="8.21678966" fill="white">
            <use xlink:href="#path-9"></use>
        </mask>
        <path d="M1.01404945,0.281108601 C1.01404945,0.281108601 1.14364105,0.0852311556 1.40541971,0.0852311556 C1.66719837,0.0852311556 1.82761943,0.281108601 1.82761943,0.281108601 C1.82761943,0.281108601 1.71306912,0.367145479 1.70658256,0.572631438 C1.70009599,0.778117397 1.72623183,3.62379093 1.70658256,5.63004886 C1.68195671,8.14443109 1.7502264,8.15427161 1.7502264,8.15427161 C1.7502264,8.15427161 1.6900549,8.28669866 1.40541971,8.30121952 C1.12078452,8.31574039 1.01404945,8.12809424 1.01404945,8.12809424 C1.01404945,8.12809424 1.14364105,7.84314562 1.14364105,5.99534742 C1.14364105,4.14754921 1.14212903,2.62697439 1.14364105,1.78843411 C1.1461262,0.410203777 1.01404945,0.281108601 1.01404945,0.281108601 Z" id="path-11"></path>
        <mask id="mask-12" maskContentUnits="userSpaceOnUse" maskUnits="objectBoundingBox" x="0" y="0" width="0.813569978" height="8.21678966" fill="white">
            <use xlink:href="#path-11"></use>
        </mask>
        <path d="M1.01404945,0.281108601 C1.01404945,0.281108601 1.14364105,0.0852311556 1.40541971,0.0852311556 C1.66719837,0.0852311556 1.82761943,0.281108601 1.82761943,0.281108601 C1.82761943,0.281108601 1.71306912,0.367145479 1.70658256,0.572631438 C1.70009599,0.778117397 1.72623183,3.62379093 1.70658256,5.63004886 C1.68195671,8.14443109 1.7502264,8.15427161 1.7502264,8.15427161 C1.7502264,8.15427161 1.6900549,8.28669866 1.40541971,8.30121952 C1.12078452,8.31574039 1.01404945,8.12809424 1.01404945,8.12809424 C1.01404945,8.12809424 1.14364105,7.84314562 1.14364105,5.99534742 C1.14364105,4.14754921 1.14212903,2.62697439 1.14364105,1.78843411 C1.1461262,0.410203777 1.01404945,0.281108601 1.01404945,0.281108601 Z" id="path-13"></path>
        <mask id="mask-14" maskContentUnits="userSpaceOnUse" maskUnits="objectBoundingBox" x="0" y="0" width="0.813569978" height="8.21678966" fill="white">
            <use xlink:href="#path-13"></use>
        </mask>
        <path d="M1.01404945,0.281108601 C1.01404945,0.281108601 1.14364105,0.0852311556 1.40541971,0.0852311556 C1.66719837,0.0852311556 1.82761943,0.281108601 1.82761943,0.281108601 C1.82761943,0.281108601 1.71306912,0.367145479 1.70658256,0.572631438 C1.70009599,0.778117397 1.72623183,3.62379093 1.70658256,5.63004886 C1.68195671,8.14443109 1.7502264,8.15427161 1.7502264,8.15427161 C1.7502264,8.15427161 1.6900549,8.28669866 1.40541971,8.30121952 C1.12078452,8.31574039 1.01404945,8.12809424 1.01404945,8.12809424 C1.01404945,8.12809424 1.14364105,7.84314562 1.14364105,5.99534742 C1.14364105,4.14754921 1.14212903,2.62697439 1.14364105,1.78843411 C1.1461262,0.410203777 1.01404945,0.281108601 1.01404945,0.281108601 Z" id="path-15"></path>
        <mask id="mask-16" maskContentUnits="userSpaceOnUse" maskUnits="objectBoundingBox" x="0" y="0" width="0.813569978" height="8.21678966" fill="white">
            <use xlink:href="#path-15"></use>
        </mask>
        <path d="M1.01404945,0.281108601 C1.01404945,0.281108601 1.14364105,0.0852311556 1.40541971,0.0852311556 C1.66719837,0.0852311556 1.82761943,0.281108601 1.82761943,0.281108601 C1.82761943,0.281108601 1.71306912,0.367145479 1.70658256,0.572631438 C1.70009599,0.778117397 1.72623183,3.62379093 1.70658256,5.63004886 C1.68195671,8.14443109 1.7502264,8.15427161 1.7502264,8.15427161 C1.7502264,8.15427161 1.6900549,8.28669866 1.40541971,8.30121952 C1.12078452,8.31574039 1.01404945,8.12809424 1.01404945,8.12809424 C1.01404945,8.12809424 1.14364105,7.84314562 1.14364105,5.99534742 C1.14364105,4.14754921 1.14212903,2.62697439 1.14364105,1.78843411 C1.1461262,0.410203777 1.01404945,0.281108601 1.01404945,0.281108601 Z" id="path-17"></path>
        <mask id="mask-18" maskContentUnits="userSpaceOnUse" maskUnits="objectBoundingBox" x="0" y="0" width="0.813569978" height="8.21678966" fill="white">
            <use xlink:href="#path-17"></use>
        </mask>
        <path d="M1.01404945,0.281108601 C1.01404945,0.281108601 1.14364105,0.0852311556 1.40541971,0.0852311556 C1.66719837,0.0852311556 1.82761943,0.281108601 1.82761943,0.281108601 C1.82761943,0.281108601 1.71306912,0.367145479 1.70658256,0.572631438 C1.70009599,0.778117397 1.72623183,3.62379093 1.70658256,5.63004886 C1.68195671,8.14443109 1.7502264,8.15427161 1.7502264,8.15427161 C1.7502264,8.15427161 1.6900549,8.28669866 1.40541971,8.30121952 C1.12078452,8.31574039 1.01404945,8.12809424 1.01404945,8.12809424 C1.01404945,8.12809424 1.14364105,7.84314562 1.14364105,5.99534742 C1.14364105,4.14754921 1.14212903,2.62697439 1.14364105,1.78843411 C1.1461262,0.410203777 1.01404945,0.281108601 1.01404945,0.281108601 Z" id="path-19"></path>
        <mask id="mask-20" maskContentUnits="userSpaceOnUse" maskUnits="objectBoundingBox" x="0" y="0" width="0.813569978" height="8.21678966" fill="white">
            <use xlink:href="#path-19"></use>
        </mask>
        <path d="M1.01404945,0.281108601 C1.01404945,0.281108601 1.14364105,0.0852311556 1.40541971,0.0852311556 C1.66719837,0.0852311556 1.82761943,0.281108601 1.82761943,0.281108601 C1.82761943,0.281108601 1.71306912,0.367145479 1.70658256,0.572631438 C1.70009599,0.778117397 1.72623183,3.62379093 1.70658256,5.63004886 C1.68195671,8.14443109 1.7502264,8.15427161 1.7502264,8.15427161 C1.7502264,8.15427161 1.6900549,8.28669866 1.40541971,8.30121952 C1.12078452,8.31574039 1.01404945,8.12809424 1.01404945,8.12809424 C1.01404945,8.12809424 1.14364105,7.84314562 1.14364105,5.99534742 C1.14364105,4.14754921 1.14212903,2.62697439 1.14364105,1.78843411 C1.1461262,0.410203777 1.01404945,0.281108601 1.01404945,0.281108601 Z" id="path-21"></path>
        <mask id="mask-22" maskContentUnits="userSpaceOnUse" maskUnits="objectBoundingBox" x="0" y="0" width="0.813569978" height="8.21678966" fill="white">
            <use xlink:href="#path-21"></use>
        </mask>
    </defs>
    <g id="Robert" stroke="none" stroke-width="1" fill="none" fill-rule="evenodd">
        <g id="Walk_Down" transform="translate(0.000000, -187.000000)">
            <g id="WD2" transform="translate(0.000000, 182.000000)">
                <g id="shadow-copy-2" transform="translate(0.000000, 163.000000)">
                    <ellipse id="Oval-Copy" fill="#F7F9FA" cx="43" cy="5" rx="43" ry="5"></ellipse>
                    <ellipse id="Oval" fill="#E9EAEC" cx="42.5" cy="5" rx="17.5" ry="2"></ellipse>
                </g>
                <g id="Person-8" transform="translate(15.000000, 0.000000)">
                    <path d="M42.7101,108.5831 L42.7101,94.5831 L52.6091,94.5831 L52.6091,108.5831 C52.6091,111.8971 50.3933738,114.5831 47.6596,114.5831 C44.9258262,114.5831 42.7101,111.8971 42.7101,108.5831 Z" id="Fill-10-Copy" fill="#F8D4AA"></path>
                    <polygon id="Fill-40" fill="#292929" opacity="0.200000003" points="51.109 106.937547 52.609 110 52.609 104.583 49.609 104.583"></polygon>
                    <path d="M4.37908323,107.2915 L2.85720549,110.566866 C2.85720549,110.566866 2.85720549,108.168883 2.85720549,107.2915 C2.85720549,106.414117 2.85720549,104.583 2.85720549,104.583 L5.90096097,104.583 L4.37908323,107.2915 Z" id="Fill-40" fill="#292929" opacity="0.200000003"></path>
                    <path d="M20.6091,76.5831 C10.1161,76.5831 1.6091,85.0901 1.6091,95.5831 L1.6091,104.5831 C1.6091,105.715606 15.0193821,102.442315 28.3404459,102.413599 C41.6615097,102.384883 53.6091,105.659594 53.6091,104.5831 L53.6091,103.893004 L53.6091,95.5831 C53.6091,85.0901 45.1021,76.5831 34.6091,76.5831 L20.6091,76.5831 Z" id="Fill-1" fill="#F8D4AA"></path>
                    <path d="M2.7101,112.5831 L2.7101,98.5831 L12.6091,98.5831 L12.6091,112.5831 C12.6091,115.8971 10.3933738,118.5831 7.6596,118.5831 C4.92582617,118.5831 2.7101,115.8971 2.7101,112.5831 Z" id="Fill-10-Copy" fill="#F8D4AA"></path>
                    <path d="M53.6091,104.5831 L53.6091,95.5831 C53.6091,85.7641 46.1591,77.6861 36.6041,76.6891 C36.5461,81.6101 32.5441,85.5831 27.6091,85.5831 C22.6741,85.5831 18.6721,81.6101 18.6141,76.6891 C9.0591,77.6861 1.6091,85.7641 1.6091,95.5831 L1.6091,104.5831 L12.6091,104.5831 L12.6091,108.5831 L42.6091,108.5831 L42.6091,104.5831 L53.6091,104.5831 Z" id="Fill-3" fill="#3AACE1"></path>
                    <path d="M12,93 L42,93 C42,93 42.6886613,99.9718915 42.6886613,105.219859 C42.6886613,107.84008 42.8605794,110.543922 42.6886613,112.332273 C42.5167432,114.120625 42,115 42,115 L13.5081731,114.107354 C13.5081731,114.107354 12,109.015977 12,106.02856 L12,93 Z" id="Rectangle" fill="#3BABE1"></path>
                    <path d="M27.6091,87.0831 C33.2871,87.0831 37.9141,82.5511 38.0921,76.9161 C37.6011,76.8241 37.1071,76.7421 36.6041,76.6891 C36.5461,81.6101 32.5441,85.5831 27.6091,85.5831 C22.6741,85.5831 18.6721,81.6101 18.6141,76.6891 C18.1111,76.7421 17.6171,76.8241 17.1261,76.9161 C17.3041,82.5511 21.9311,87.0831 27.6091,87.0831" id="Fill-8" fill="#85BAE4"></path>
                    <path d="M27.6091,85.5831 L27.6091,85.5831 C24.2951,85.5831 21.6091,82.8971 21.6091,79.5831 L21.6091,65.5831 L33.6091,65.5831 L33.6091,79.5831 C33.6091,82.8971 30.9231,85.5831 27.6091,85.5831" id="Fill-10" fill="#F8D4AA"></path>
                    <path d="M33.6091,74.5831 C33.6091,74.5831 29.1301,75.5831 27.6091,75.5831 C26.0881,75.5831 21.6091,74.5831 21.6091,74.5831 L21.6091,72.5831 C21.6091,72.5831 26.0881,73.5831 27.6091,73.5831 C29.1301,73.5831 33.6091,72.5831 33.6091,72.5831 L33.6091,74.5831 Z" id="Fill-12" fill="#292929" opacity="0.200000003"></path>
                    <g id="Group-16" transform="translate(0.000000, 5.512000)">
                        <mask id="mask-2" fill="white">
                            <use xlink:href="#path-1"></use>
                        </mask>
                        <g id="Clip-15"></g>
                        <path d="M54.6091,27.3911 C54.6091,42.3031 42.5211,54.3911 27.6091,54.3911 C12.6971,54.3911 0.6091,42.3031 0.6091,27.3911 C0.6091,12.4791 12.6971,0.3911 27.6091,0.3911 C42.5211,0.3911 54.6091,12.4791 54.6091,27.3911" id="Fill-14" fill="#5F5C61" mask="url(#mask-2)"></path>
                    </g>
                    <path d="M54.5085,45.6333 C54.5085,48.3673 52.2925,50.5833 49.5585,50.5833 C46.8255,50.5833 44.6095,48.3673 44.6095,45.6333 C44.6095,42.8993 46.8255,40.6833 49.5585,40.6833 C52.2925,40.6833 54.5085,42.8993 54.5085,45.6333" id="Fill-17" fill="#EAC6A0"></path>
                    <path d="M10.6091,45.6333 C10.6091,48.3673 8.3931,50.5833 5.6591,50.5833 C2.9261,50.5833 0.7101,48.3673 0.7101,45.6333 C0.7101,42.8993 2.9261,40.6833 5.6591,40.6833 C8.3931,40.6833 10.6091,42.8993 10.6091,45.6333" id="Fill-19" fill="#EAC6A0"></path>
                    <path d="M27.6091,72.5831 L27.6091,72.5831 C15.4591,72.5831 5.6091,62.7331 5.6091,50.5831 L5.6091,31.5831 C5.6091,19.4331 15.4591,9.5831 27.6091,9.5831 L27.6091,9.5831 C39.7591,9.5831 49.6091,19.4331 49.6091,31.5831 L49.6091,50.5831 C49.6091,62.7331 39.7591,72.5831 27.6091,72.5831" id="Fill-21" fill="#F8D4AA"></path>
                    <path d="M29.9848,52.2358 C29.6628,52.3288 29.1848,52.4758 28.7418,52.6148 C28.0028,52.8458 27.2148,52.8458 26.4758,52.6158 C26.0318,52.4778 25.5518,52.3308 25.2308,52.2388" id="Stroke-23" stroke="#EBB78A" stroke-width="2" stroke-linecap="round"></path>
                    <path d="M12.8063,47.9082 C12.8283,46.1552 14.0773,44.6012 15.8663,44.2582 C17.4863,43.9482 19.0623,44.7262 19.8413,46.0792" id="Stroke-25" stroke="#4D4C4E" stroke-width="2" stroke-linecap="round"></path>
                    <path d="M42.4119,47.9082 C42.3899,46.1552 41.1409,44.6012 39.3519,44.2582 C37.7319,43.9482 36.1559,44.7262 35.3769,46.0792" id="Stroke-27" stroke="#4D4C4E" stroke-width="2" stroke-linecap="round"></path>
                    <path d="M0.0874,6.5831 C0.0874,6.5831 -0.8986,15.6581 3.7544,23.3331 C7.7954,30.0001 14.7104,32.5291 15.8374,32.9031 C16.9344,33.2671 24.4204,34.9581 35.4194,33.8241 C49.2174,32.4021 52.6624,23.6931 52.6624,23.6931 L42.4114,12.5951 L20.8574,6.7721 C20.8574,6.7721 7.6114,15.6661 0.0874,6.5831" id="Fill-29" fill="#5F5C61"></path>
                    <polygon id="Fill-34" fill="#85BAE4" points="1.609 104.583 12.609 104.583 12.609 102.583 1.609 102.583"></polygon>
                    <path d="" id="Fill-36" fill="#292929" opacity="0.200000003"></path>
                    <polygon id="Fill-38" fill="#85BAE4" points="42.609 104.583 53.609 104.583 53.609 102.583 42.609 102.583"></polygon>
                    <path d="M45.609,102.583 L42.609,102.583 L45.609,102.583 Z" id="Fill-40" fill="#292929" opacity="0.200000003"></path>
                    <path d="M49.6145,35.7227 L49.6115,46.5857 C49.6105,52.1077 45.1335,56.5827 39.6115,56.5827 L27.6095,56.5827 L15.6065,56.5827 C10.0845,56.5827 5.6075,52.1077 5.6065,46.5857 L5.6035,35.7227 L4.6095,35.7227 L4.6095,54.6467 C4.6095,55.4857 4.7005,56.3277 4.9425,57.1317 C7.3215,65.0057 13.5985,71.1587 21.5065,73.2827 C22.4825,73.5447 26.8305,74.5827 27.6095,74.5827 C28.3875,74.5827 32.7355,73.5447 33.7115,73.2827 C41.6195,71.1587 47.8965,65.0057 50.2755,57.1317 C50.5185,56.3277 50.6095,55.4857 50.6095,54.6467 L50.6095,35.7227 L49.6145,35.7227 Z" id="Fill-42" fill="#5F5C61"></path>
                    <path d="M38.2677,60.0123 C36.5767,64.2413 32.4417,67.2283 27.6087,67.2283 C22.7767,67.2283 18.6417,64.2413 16.9507,60.0123 L38.2677,60.0123 Z" id="Fill-44" fill="#FEFEFE"></path>
                    <path d="M13.6091,147.5831 L13.6091,133.5831 L25.6091,133.5831 L25.6091,140.5831 L25.6091,147.5831 C25.6091,150.8971 22.9231,153.5831 19.6091,153.5831 C16.2951,153.5831 13.6091,150.8971 13.6091,147.5831 Z" id="Fill-10-Copy" fill="#F8D4AA"></path>
                    <path d="M29.6091,147.5831 L29.6091,133.5831 L41.6091,133.5831 L41.6091,140.5831 L41.6091,147.5831 C41.6091,150.8971 38.9231,153.5831 35.6091,153.5831 C32.2951,153.5831 29.6091,150.8971 29.6091,147.5831 Z" id="Fill-10-Copy" fill="#F8D4AA"></path>
                    <g id="SwimTrunks" transform="translate(8.000000, 109.000000)">
                        <path d="M34.2207904,2.6454717 C34.1695027,2.7030566 34.1091329,2.75641509 34.0519685,2.81135849 C34.1630918,2.92018868 34.2207904,3.03218868 34.2207904,3.14577358 C34.2207904,4.36350943 27.6292562,5.35037736 19.4985575,5.35037736 C11.3678589,5.35037736 4.77632466,4.36350943 4.77632466,3.14577358 C4.77632466,3.03218868 4.83402329,2.92018868 4.94514658,2.81135849 C4.88798219,2.75641509 4.82761233,2.7030566 4.77632466,2.6454717 C4.77632466,2.6454717 1.72310548,9.18003774 0.80099589,22.4383019 C0.80099589,22.4383019 4.3478589,26.9410189 17.586489,26.9410189 L18.3456534,19.1860755 L19.4985575,19.4364906 L20.6514616,19.1860755 L21.410626,26.9410189 C34.6492562,26.9410189 38.1961192,22.4383019 38.1961192,22.4383019 C37.2740096,9.18003774 34.2207904,2.6454717 34.2207904,2.6454717" id="Fill-5" fill="#F6A623"></path>
                        <path d="M19.4985575,11.819117 C25.9164616,11.819117 31.4998726,10.9310415 36.2145986,8.95889057 C35.1984616,4.7398717 34.2207904,2.64568302 34.2207904,2.64568302 C34.1695027,2.70326792 34.1091329,2.75609811 34.0519685,2.81104151 C34.1630918,2.9204 34.2207904,3.0318717 34.2207904,3.14598491 C34.2207904,4.36319245 27.6292562,5.35058868 19.4985575,5.35058868 C11.3678589,5.35058868 4.77632466,4.36319245 4.77632466,3.14598491 C4.77632466,3.0318717 4.83402329,2.9204 4.94514658,2.81104151 C4.88798219,2.75609811 4.82761233,2.70326792 4.77632466,2.64568302 C4.77632466,2.64568302 3.79865342,4.7398717 2.78251644,8.95889057 C6.9619274,10.6811547 13.0806534,11.819117 19.4985575,11.819117" id="Fill-10" fill="#04679E"></path>
                        <path d="M34.2207904,2.64541887 C34.1695027,2.70300377 34.1091329,2.75636226 34.0519685,2.81130566 C34.1630918,2.92013585 34.2207904,3.03213585 34.2207904,3.14572075 C34.2207904,3.74323019 32.6308726,4.28526792 30.0525986,4.68202264 C30.9469274,7.83809811 32.5416534,14.6790792 33.2682288,25.2762868 C36.9673521,23.9935698 38.1961192,22.4382491 38.1961192,22.4382491 C37.2740096,9.17998491 34.2207904,2.64541887 34.2207904,2.64541887" id="Fill-18" fill-opacity="0.0899569746" fill="#010201"></path>
                        <path d="M12.4420151,15.1817585 C12.0028644,10.8417585 14.3620973,7.81670189 14.4625356,7.68990943 C14.7360699,7.34598491 15.2403986,7.28628679 15.5876589,7.55624906 C15.9354534,7.82621132 15.9963575,8.3233434 15.7238918,8.66726792 C15.7035904,8.69368302 13.663837,11.3388906 14.0362068,15.0243245 C14.0805493,15.4596453 13.7594671,15.8479472 13.3187137,15.8917962 C13.2920014,15.8944377 13.2647548,15.8954943 13.2380425,15.8954943 C12.8314808,15.8954943 12.4831521,15.5906642 12.4420151,15.1817585 Z" id="Fill-14" fill="#02486F"></path>
                        <path d="M24.7040425,15.8954943 C24.6773301,15.8954943 24.6500836,15.8944377 24.6233712,15.8917962 C24.1826178,15.8479472 23.8615356,15.4596453 23.9058781,15.0243245 C24.2782479,11.3388906 22.2390288,8.69368302 22.2187274,8.66726792 C21.9473301,8.32228679 22.0093027,7.82462642 22.3570973,7.55572075 C22.7048918,7.28681509 23.2065493,7.34598491 23.4800836,7.68990943 C23.5805219,7.81670189 25.9397548,10.8417585 25.5000699,15.1817585 C25.4589329,15.5906642 25.1106041,15.8954943 24.7040425,15.8954943" id="Fill-16" fill="#02486F"></path>
                    </g>
                </g>
                <g id="shoe" transform="translate(26.000000, 148.352901)">
                    <path d="M4.66239095,3.00897152 C4.66239095,-0.243645464 8.31846243,0.00788865621 8.31846243,0.00788865621 C8.31846243,0.00788865621 12.0029719,-0.290073081 12.0029719,2.77643255 C12.0029719,5.84293818 12.4190266,12.343419 12.1826807,16.2089973 C11.9463349,20.0745757 9.22393697,20.7607699 9.22393697,20.7607699 C9.22393697,20.7607699 4.7304987,21.1808268 4.7304987,16.3115281 C4.7304987,16.3115281 4.66239095,6.26158849 4.66239095,3.00897152 Z" id="Path-4" fill="#D14747"></path>
                    <g id="Group-2" transform="translate(0.765957, 2.068402)" fill="#F55858">
                        <path d="M1.18847001,0.72896942 C1.18847001,0.72896942 1.9578766,1.48966918 1.35655369,6.31472323 C0.755230786,11.1397773 0.583023863,10.3500112 0.583023863,14.0088112 C0.583023863,17.6676112 0.919029775,18.9715225 0.919029775,18.9715225 C0.919029775,18.9715225 1.35382441,23.5921388 5.36504095,23.5921388 C9.37625749,23.5921388 10.5212528,23.6085799 10.5212528,23.6085799 C10.5212528,23.6085799 13.7128193,23.9064535 14.1864953,19.1101077 C14.4381664,16.7913355 14.4536871,14.9610739 14.4536871,14.4849425 C14.4536871,14.2990534 8.77128858,18.8211369 5.64244889,15.057092 C2.51360919,11.2930472 5.72860133,2.69557111 5.36504095,2.31061494 C2.46190843,-0.763369022 1.29233101,0.368246727 1.29233101,0.368246727" id="Path-3"></path>
                        <path d="M1.18847001,0.72896942 C1.18847001,0.72896942 1.9578766,1.48966918 1.35655369,6.31472323 C0.755230786,11.1397773 0.583023863,10.3500112 0.583023863,14.0088112 C0.583023863,17.6676112 0.919029775,18.9715225 0.919029775,18.9715225 C0.919029775,18.9715225 1.35382441,23.5921388 5.36504095,23.5921388 C9.37625749,23.5921388 10.5212528,23.6085799 10.5212528,23.6085799 C10.5212528,23.6085799 13.7128193,23.9064535 14.1864953,19.1101077 C14.4381664,16.7913355 14.4536871,14.9610739 14.4536871,14.4849425 C14.4536871,14.2990534 8.77128858,18.8211369 5.64244889,15.057092 C2.51360919,11.2930472 5.72860133,2.69557111 5.36504095,2.31061494 C2.46190843,-0.763369022 1.29233101,0.368246727 1.29233101,0.368246727" id="Path-3-Copy-2" transform="translate(7.518355, 11.888490) scale(-1, 1) translate(-7.518355, -11.888490) "></path>
                    </g>
                    <path d="M1.31355749,18.6157766 C1.31355749,22.544986 1.39451741,24.4745 2.49194216,26.0985683 C3.58936692,27.7226367 5.45951537,28.9582886 8.44250009,28.9582886 C11.7874459,28.9582886 13.0697165,28.0670363 13.9680463,26.287377 C14.8663761,24.5077178 15.3446668,22.7804449 15.3446668,18.809603 C15.6242332,17.979323 9.28491686,22.6708302 1.31355749,18.6157766 Z" id="Path-2" stroke="#E7DDDD" stroke-width="0.5" fill="#FFFFFF" transform="translate(8.333564, 23.787033) rotate(-1.000000) translate(-8.333564, -23.787033) "></path>
                    <path d="M2.09010217,18.3288674 C2.09010217,21.847553 2.16260339,23.5754713 3.14536919,25.029857 C4.128135,26.4842427 5.80289033,27.5907936 8.47421278,27.5907936 C11.4696786,27.5907936 12.6179776,26.7926594 13.4224499,25.198939 C14.2269222,23.6052186 14.655241,22.0584112 14.655241,18.5024429 C14.9055983,17.7589105 9.22861384,21.960249 2.09010217,18.3288674 Z" id="Path-2-Copy" stroke="#F55858" stroke-width="0.5" fill="#FFFFFF" transform="translate(8.376658, 22.959831) rotate(-1.000000) translate(-8.376658, -22.959831) "></path>
                    <g id="shoestring" transform="translate(8.152005, 15.777706) rotate(90.000000) translate(-8.152005, -15.777706) translate(7.003069, 11.296168)">
                        <path d="M1.42977967,8.81693852 C1.65444082,8.81693852 1.83656466,8.46709239 1.83656466,8.03553531 C1.83656466,7.60397824 1.65444082,7.25413211 1.42977967,7.25413211 C1.20511853,7.25413211 1.02299468,7.60397824 1.02299468,8.03553531 C1.02299468,8.46709239 1.20511853,8.81693852 1.42977967,8.81693852 Z" id="Oval-3" fill="#D8D8D8" transform="translate(1.429780, 8.035535) rotate(90.000000) translate(-1.429780, -8.035535) "></path>
                        <path d="M0.877602659,8.04064737 C0.877602659,8.21283669 1.08333678,8.35242372 1.47484402,8.35242372 C1.86635127,8.35242372 2.0587008,8.21283669 2.0587008,8.04064737 C2.0587008,7.86845805 1.86635127,7.72887102 1.47484402,7.72887102 C1.08333678,7.72887102 0.877602659,7.86845805 0.877602659,8.04064737 Z" id="Oval-3-Copy" fill="#FEFCFC"></path>
                        <path d="M1.42977967,1.23279699 C1.65444082,1.23279699 1.83656466,0.88295086 1.83656466,0.451393786 C1.83656466,0.0198367121 1.65444082,-0.33000942 1.42977967,-0.33000942 C1.20511853,-0.33000942 1.02299468,0.0198367121 1.02299468,0.451393786 C1.02299468,0.88295086 1.20511853,1.23279699 1.42977967,1.23279699 Z" id="Oval-3-Copy-3" fill="#D8D8D8" transform="translate(1.429780, 0.451394) rotate(90.000000) translate(-1.429780, -0.451394) "></path>
                        <path d="M0.877602659,0.456505842 C0.877602659,0.628695166 1.08333678,0.768282192 1.47484402,0.768282192 C1.86635127,0.768282192 2.0587008,0.628695166 2.0587008,0.456505842 C2.0587008,0.284316518 1.86635127,0.144729491 1.47484402,0.144729491 C1.08333678,0.144729491 0.877602659,0.284316518 0.877602659,0.456505842 Z" id="Oval-3-Copy-2" fill="#FEFCFC"></path>
                        <use id="Rectangle-9" stroke="#8E8686" mask="url(#mask-4)" stroke-width="0.3" fill="#FFFFFF" xlink:href="#path-3"></use>
                    </g>
                    <g id="shoestring-copy" transform="translate(8.152005, 13.709304) rotate(90.000000) translate(-8.152005, -13.709304) translate(7.003069, 9.227766)">
                        <path d="M1.42977967,8.81693852 C1.65444082,8.81693852 1.83656466,8.46709239 1.83656466,8.03553531 C1.83656466,7.60397824 1.65444082,7.25413211 1.42977967,7.25413211 C1.20511853,7.25413211 1.02299468,7.60397824 1.02299468,8.03553531 C1.02299468,8.46709239 1.20511853,8.81693852 1.42977967,8.81693852 Z" id="Oval-3" fill="#D8D8D8" transform="translate(1.429780, 8.035535) rotate(90.000000) translate(-1.429780, -8.035535) "></path>
                        <path d="M0.877602659,8.04064737 C0.877602659,8.21283669 1.08333678,8.35242372 1.47484402,8.35242372 C1.86635127,8.35242372 2.0587008,8.21283669 2.0587008,8.04064737 C2.0587008,7.86845805 1.86635127,7.72887102 1.47484402,7.72887102 C1.08333678,7.72887102 0.877602659,7.86845805 0.877602659,8.04064737 Z" id="Oval-3-Copy" fill="#FEFCFC"></path>
                        <path d="M1.42977967,1.23279699 C1.65444082,1.23279699 1.83656466,0.88295086 1.83656466,0.451393786 C1.83656466,0.0198367121 1.65444082,-0.33000942 1.42977967,-0.33000942 C1.20511853,-0.33000942 1.02299468,0.0198367121 1.02299468,0.451393786 C1.02299468,0.88295086 1.20511853,1.23279699 1.42977967,1.23279699 Z" id="Oval-3-Copy-3" fill="#D8D8D8" transform="translate(1.429780, 0.451394) rotate(90.000000) translate(-1.429780, -0.451394) "></path>
                        <path d="M0.877602659,0.456505842 C0.877602659,0.628695166 1.08333678,0.768282192 1.47484402,0.768282192 C1.86635127,0.768282192 2.0587008,0.628695166 2.0587008,0.456505842 C2.0587008,0.284316518 1.86635127,0.144729491 1.47484402,0.144729491 C1.08333678,0.144729491 0.877602659,0.284316518 0.877602659,0.456505842 Z" id="Oval-3-Copy-2" fill="#FEFCFC"></path>
                        <use id="Rectangle-9" stroke="#8E8686" mask="url(#mask-6)" stroke-width="0.3" fill="#FFFFFF" xlink:href="#path-5"></use>
                    </g>
                    <g id="shoestring-copy-2" transform="translate(8.152005, 11.640902) rotate(90.000000) translate(-8.152005, -11.640902) translate(7.003069, 7.159364)">
                        <path d="M1.42977967,8.81693852 C1.65444082,8.81693852 1.83656466,8.46709239 1.83656466,8.03553531 C1.83656466,7.60397824 1.65444082,7.25413211 1.42977967,7.25413211 C1.20511853,7.25413211 1.02299468,7.60397824 1.02299468,8.03553531 C1.02299468,8.46709239 1.20511853,8.81693852 1.42977967,8.81693852 Z" id="Oval-3" fill="#D8D8D8" transform="translate(1.429780, 8.035535) rotate(90.000000) translate(-1.429780, -8.035535) "></path>
                        <path d="M0.877602659,8.04064737 C0.877602659,8.21283669 1.08333678,8.35242372 1.47484402,8.35242372 C1.86635127,8.35242372 2.0587008,8.21283669 2.0587008,8.04064737 C2.0587008,7.86845805 1.86635127,7.72887102 1.47484402,7.72887102 C1.08333678,7.72887102 0.877602659,7.86845805 0.877602659,8.04064737 Z" id="Oval-3-Copy" fill="#FEFCFC"></path>
                        <path d="M1.42977967,1.23279699 C1.65444082,1.23279699 1.83656466,0.88295086 1.83656466,0.451393786 C1.83656466,0.0198367121 1.65444082,-0.33000942 1.42977967,-0.33000942 C1.20511853,-0.33000942 1.02299468,0.0198367121 1.02299468,0.451393786 C1.02299468,0.88295086 1.20511853,1.23279699 1.42977967,1.23279699 Z" id="Oval-3-Copy-3" fill="#D8D8D8" transform="translate(1.429780, 0.451394) rotate(90.000000) translate(-1.429780, -0.451394) "></path>
                        <path d="M0.877602659,0.456505842 C0.877602659,0.628695166 1.08333678,0.768282192 1.47484402,0.768282192 C1.86635127,0.768282192 2.0587008,0.628695166 2.0587008,0.456505842 C2.0587008,0.284316518 1.86635127,0.144729491 1.47484402,0.144729491 C1.08333678,0.144729491 0.877602659,0.284316518 0.877602659,0.456505842 Z" id="Oval-3-Copy-2" fill="#FEFCFC"></path>
                        <use id="Rectangle-9" stroke="#8E8686" mask="url(#mask-8)" stroke-width="0.3" fill="#FFFFFF" xlink:href="#path-7"></use>
                    </g>
                    <g id="shoestring-copy-3" transform="translate(8.152005, 9.572499) rotate(90.000000) translate(-8.152005, -9.572499) translate(7.003069, 5.090961)">
                        <path d="M1.42977967,8.81693852 C1.65444082,8.81693852 1.83656466,8.46709239 1.83656466,8.03553531 C1.83656466,7.60397824 1.65444082,7.25413211 1.42977967,7.25413211 C1.20511853,7.25413211 1.02299468,7.60397824 1.02299468,8.03553531 C1.02299468,8.46709239 1.20511853,8.81693852 1.42977967,8.81693852 Z" id="Oval-3" fill="#D8D8D8" transform="translate(1.429780, 8.035535) rotate(90.000000) translate(-1.429780, -8.035535) "></path>
                        <path d="M0.877602659,8.04064737 C0.877602659,8.21283669 1.08333678,8.35242372 1.47484402,8.35242372 C1.86635127,8.35242372 2.0587008,8.21283669 2.0587008,8.04064737 C2.0587008,7.86845805 1.86635127,7.72887102 1.47484402,7.72887102 C1.08333678,7.72887102 0.877602659,7.86845805 0.877602659,8.04064737 Z" id="Oval-3-Copy" fill="#FEFCFC"></path>
                        <path d="M1.42977967,1.23279699 C1.65444082,1.23279699 1.83656466,0.88295086 1.83656466,0.451393786 C1.83656466,0.0198367121 1.65444082,-0.33000942 1.42977967,-0.33000942 C1.20511853,-0.33000942 1.02299468,0.0198367121 1.02299468,0.451393786 C1.02299468,0.88295086 1.20511853,1.23279699 1.42977967,1.23279699 Z" id="Oval-3-Copy-3" fill="#D8D8D8" transform="translate(1.429780, 0.451394) rotate(90.000000) translate(-1.429780, -0.451394) "></path>
                        <path d="M0.877602659,0.456505842 C0.877602659,0.628695166 1.08333678,0.768282192 1.47484402,0.768282192 C1.86635127,0.768282192 2.0587008,0.628695166 2.0587008,0.456505842 C2.0587008,0.284316518 1.86635127,0.144729491 1.47484402,0.144729491 C1.08333678,0.144729491 0.877602659,0.284316518 0.877602659,0.456505842 Z" id="Oval-3-Copy-2" fill="#FEFCFC"></path>
                        <use id="Rectangle-9" stroke="#8E8686" mask="url(#mask-10)" stroke-width="0.3" fill="#FFFFFF" xlink:href="#path-9"></use>
                    </g>
                    <g id="shoestring-copy-4" transform="translate(8.152005, 7.504097) rotate(90.000000) translate(-8.152005, -7.504097) translate(7.003069, 3.022559)">
                        <path d="M1.42977967,8.81693852 C1.65444082,8.81693852 1.83656466,8.46709239 1.83656466,8.03553531 C1.83656466,7.60397824 1.65444082,7.25413211 1.42977967,7.25413211 C1.20511853,7.25413211 1.02299468,7.60397824 1.02299468,8.03553531 C1.02299468,8.46709239 1.20511853,8.81693852 1.42977967,8.81693852 Z" id="Oval-3" fill="#D8D8D8" transform="translate(1.429780, 8.035535) rotate(90.000000) translate(-1.429780, -8.035535) "></path>
                        <path d="M0.877602659,8.04064737 C0.877602659,8.21283669 1.08333678,8.35242372 1.47484402,8.35242372 C1.86635127,8.35242372 2.0587008,8.21283669 2.0587008,8.04064737 C2.0587008,7.86845805 1.86635127,7.72887102 1.47484402,7.72887102 C1.08333678,7.72887102 0.877602659,7.86845805 0.877602659,8.04064737 Z" id="Oval-3-Copy" fill="#FEFCFC"></path>
                        <path d="M1.42977967,1.23279699 C1.65444082,1.23279699 1.83656466,0.88295086 1.83656466,0.451393786 C1.83656466,0.0198367121 1.65444082,-0.33000942 1.42977967,-0.33000942 C1.20511853,-0.33000942 1.02299468,0.0198367121 1.02299468,0.451393786 C1.02299468,0.88295086 1.20511853,1.23279699 1.42977967,1.23279699 Z" id="Oval-3-Copy-3" fill="#D8D8D8" transform="translate(1.429780, 0.451394) rotate(90.000000) translate(-1.429780, -0.451394) "></path>
                        <path d="M0.877602659,0.456505842 C0.877602659,0.628695166 1.08333678,0.768282192 1.47484402,0.768282192 C1.86635127,0.768282192 2.0587008,0.628695166 2.0587008,0.456505842 C2.0587008,0.284316518 1.86635127,0.144729491 1.47484402,0.144729491 C1.08333678,0.144729491 0.877602659,0.284316518 0.877602659,0.456505842 Z" id="Oval-3-Copy-2" fill="#FEFCFC"></path>
                        <use id="Rectangle-9" stroke="#8E8686" mask="url(#mask-12)" stroke-width="0.3" fill="#FFFFFF" xlink:href="#path-11"></use>
                    </g>
                    <g id="shoestring-copy-5" transform="translate(8.152005, 5.435695) rotate(90.000000) translate(-8.152005, -5.435695) translate(7.003069, 0.954157)">
                        <path d="M1.42977967,8.81693852 C1.65444082,8.81693852 1.83656466,8.46709239 1.83656466,8.03553531 C1.83656466,7.60397824 1.65444082,7.25413211 1.42977967,7.25413211 C1.20511853,7.25413211 1.02299468,7.60397824 1.02299468,8.03553531 C1.02299468,8.46709239 1.20511853,8.81693852 1.42977967,8.81693852 Z" id="Oval-3" fill="#D8D8D8" transform="translate(1.429780, 8.035535) rotate(90.000000) translate(-1.429780, -8.035535) "></path>
                        <path d="M0.877602659,8.04064737 C0.877602659,8.21283669 1.08333678,8.35242372 1.47484402,8.35242372 C1.86635127,8.35242372 2.0587008,8.21283669 2.0587008,8.04064737 C2.0587008,7.86845805 1.86635127,7.72887102 1.47484402,7.72887102 C1.08333678,7.72887102 0.877602659,7.86845805 0.877602659,8.04064737 Z" id="Oval-3-Copy" fill="#FEFCFC"></path>
                        <path d="M1.42977967,1.23279699 C1.65444082,1.23279699 1.83656466,0.88295086 1.83656466,0.451393786 C1.83656466,0.0198367121 1.65444082,-0.33000942 1.42977967,-0.33000942 C1.20511853,-0.33000942 1.02299468,0.0198367121 1.02299468,0.451393786 C1.02299468,0.88295086 1.20511853,1.23279699 1.42977967,1.23279699 Z" id="Oval-3-Copy-3" fill="#D8D8D8" transform="translate(1.429780, 0.451394) rotate(90.000000) translate(-1.429780, -0.451394) "></path>
                        <path d="M0.877602659,0.456505842 C0.877602659,0.628695166 1.08333678,0.768282192 1.47484402,0.768282192 C1.86635127,0.768282192 2.0587008,0.628695166 2.0587008,0.456505842 C2.0587008,0.284316518 1.86635127,0.144729491 1.47484402,0.144729491 C1.08333678,0.144729491 0.877602659,0.284316518 0.877602659,0.456505842 Z" id="Oval-3-Copy-2" fill="#FEFCFC"></path>
                    </g>
                    <path d="M3.04377532,5.652163 C-0.434056917,8.95309383 3.76484503,10.4633636 0.932583256,13.426135 C0.932583256,13.426135 0.611922807,13.6999794 0.72906468,13.9350403 C0.846206553,14.1701013 1.07799613,14.3638178 1.28460751,14.1325191 C1.49121889,13.9012204 1.89661129,13.3124938 2.11682275,12.7363182 C2.33703422,12.1601427 2.5830721,11.4838057 2.34994743,10.3296616 C2.11682275,9.17551755 2.11682275,8.78593904 2.11682275,8.78593904 C2.11682275,8.78593904 1.93899135,8.08536548 2.45078037,7.38775967 C2.75698592,6.92647225 3.35030917,6.30459417 3.35030917,6.30459417 C3.35030917,6.30459417 4.15394287,5.75753964 3.69888955,5.5063323 C3.24383623,5.25512496 3.04377532,5.652163 3.04377532,5.652163 Z" id="Path-5" stroke="#979797" stroke-width="0.15" fill="#FFFFFF" transform="translate(2.270874, 9.829804) rotate(7.000000) translate(-2.270874, -9.829804) "></path>
                    <path d="M15.2709714,5.98164424 C14.0339549,7.1557394 13.9881216,8.19072617 14.0454809,9.13461708 C14.0913288,9.8890792 14.5796713,11.2181495 13.8974462,12.7978469 C13.7258621,13.1951514 13.5132474,13.6725941 13.4487409,13.8507959 C13.3842344,14.0289976 13.5185863,13.9408064 13.2444649,14.2275593 C13.2444649,14.2275593 12.9238044,14.5014037 13.0409463,14.7364646 C13.1580882,14.9715256 13.3898778,15.1652421 13.5964891,14.9339434 C13.8031005,14.7026447 14.3153373,13.3034974 14.5355487,12.7273219 C14.7557602,12.1511464 15.0017981,11.4748094 14.7686734,10.3206653 C14.5355487,9.16652122 14.5355487,8.77694271 14.5355487,8.77694271 C14.5355487,8.77694271 14.3577173,8.07636915 14.8695064,7.37876334 C15.1757119,6.91747592 15.7690351,6.29559784 15.7690351,6.29559784 C15.7690351,6.29559784 16.5726688,5.74854331 16.1176155,5.49733597 C15.6625622,5.24612863 15.2709714,5.98164424 15.2709714,5.98164424 Z" id="Path-5-Copy" stroke="#979797" stroke-width="0.15" fill="#FFFFFF" transform="translate(14.636178, 10.241524) scale(-1, 1) rotate(7.000000) translate(-14.636178, -10.241524) "></path>
                </g>
                <g id="shoe-copy" transform="translate(42.382979, 139.352901)">
                    <path d="M4.66239095,3.00897152 C4.66239095,-0.243645464 8.31846243,0.00788865621 8.31846243,0.00788865621 C8.31846243,0.00788865621 12.0029719,-0.290073081 12.0029719,2.77643255 C12.0029719,5.84293818 12.4190266,12.343419 12.1826807,16.2089973 C11.9463349,20.0745757 9.22393697,20.7607699 9.22393697,20.7607699 C9.22393697,20.7607699 4.7304987,21.1808268 4.7304987,16.3115281 C4.7304987,16.3115281 4.66239095,6.26158849 4.66239095,3.00897152 Z" id="Path-4" fill="#D14747"></path>
                    <g id="Group-2" transform="translate(0.765957, 2.068402)" fill="#F55858">
                        <path d="M1.18847001,0.72896942 C1.18847001,0.72896942 1.9578766,1.48966918 1.35655369,6.31472323 C0.755230786,11.1397773 0.583023863,10.3500112 0.583023863,14.0088112 C0.583023863,17.6676112 0.919029775,18.9715225 0.919029775,18.9715225 C0.919029775,18.9715225 1.35382441,23.5921388 5.36504095,23.5921388 C9.37625749,23.5921388 10.5212528,23.6085799 10.5212528,23.6085799 C10.5212528,23.6085799 13.7128193,23.9064535 14.1864953,19.1101077 C14.4381664,16.7913355 14.4536871,14.9610739 14.4536871,14.4849425 C14.4536871,14.2990534 8.77128858,18.8211369 5.64244889,15.057092 C2.51360919,11.2930472 5.72860133,2.69557111 5.36504095,2.31061494 C2.46190843,-0.763369022 1.29233101,0.368246727 1.29233101,0.368246727" id="Path-3"></path>
                        <path d="M1.18847001,0.72896942 C1.18847001,0.72896942 1.9578766,1.48966918 1.35655369,6.31472323 C0.755230786,11.1397773 0.583023863,10.3500112 0.583023863,14.0088112 C0.583023863,17.6676112 0.919029775,18.9715225 0.919029775,18.9715225 C0.919029775,18.9715225 1.35382441,23.5921388 5.36504095,23.5921388 C9.37625749,23.5921388 10.5212528,23.6085799 10.5212528,23.6085799 C10.5212528,23.6085799 13.7128193,23.9064535 14.1864953,19.1101077 C14.4381664,16.7913355 14.4536871,14.9610739 14.4536871,14.4849425 C14.4536871,14.2990534 8.77128858,18.8211369 5.64244889,15.057092 C2.51360919,11.2930472 5.72860133,2.69557111 5.36504095,2.31061494 C2.46190843,-0.763369022 1.29233101,0.368246727 1.29233101,0.368246727" id="Path-3-Copy-2" transform="translate(7.518355, 11.888490) scale(-1, 1) translate(-7.518355, -11.888490) "></path>
                    </g>
                    <path d="M1.31355749,18.6157766 C1.31355749,22.544986 1.39451741,24.4745 2.49194216,26.0985683 C3.58936692,27.7226367 5.45951537,28.9582886 8.44250009,28.9582886 C11.7874459,28.9582886 13.0697165,28.0670363 13.9680463,26.287377 C14.8663761,24.5077178 15.3446668,22.7804449 15.3446668,18.809603 C15.6242332,17.979323 9.28491686,22.6708302 1.31355749,18.6157766 Z" id="Path-2" stroke="#E7DDDD" stroke-width="0.5" fill="#FFFFFF" transform="translate(8.333564, 23.787033) rotate(-1.000000) translate(-8.333564, -23.787033) "></path>
                    <path d="M2.09010217,18.3288674 C2.09010217,21.847553 2.16260339,23.5754713 3.14536919,25.029857 C4.128135,26.4842427 5.80289033,27.5907936 8.47421278,27.5907936 C11.4696786,27.5907936 12.6179776,26.7926594 13.4224499,25.198939 C14.2269222,23.6052186 14.655241,22.0584112 14.655241,18.5024429 C14.9055983,17.7589105 9.22861384,21.960249 2.09010217,18.3288674 Z" id="Path-2-Copy" stroke="#F55858" stroke-width="0.5" fill="#FFFFFF" transform="translate(8.376658, 22.959831) rotate(-1.000000) translate(-8.376658, -22.959831) "></path>
                    <g id="shoestring" transform="translate(8.152005, 15.777706) rotate(90.000000) translate(-8.152005, -15.777706) translate(7.003069, 11.296168)">
                        <path d="M1.42977967,8.81693852 C1.65444082,8.81693852 1.83656466,8.46709239 1.83656466,8.03553531 C1.83656466,7.60397824 1.65444082,7.25413211 1.42977967,7.25413211 C1.20511853,7.25413211 1.02299468,7.60397824 1.02299468,8.03553531 C1.02299468,8.46709239 1.20511853,8.81693852 1.42977967,8.81693852 Z" id="Oval-3" fill="#D8D8D8" transform="translate(1.429780, 8.035535) rotate(90.000000) translate(-1.429780, -8.035535) "></path>
                        <path d="M0.877602659,8.04064737 C0.877602659,8.21283669 1.08333678,8.35242372 1.47484402,8.35242372 C1.86635127,8.35242372 2.0587008,8.21283669 2.0587008,8.04064737 C2.0587008,7.86845805 1.86635127,7.72887102 1.47484402,7.72887102 C1.08333678,7.72887102 0.877602659,7.86845805 0.877602659,8.04064737 Z" id="Oval-3-Copy" fill="#FEFCFC"></path>
                        <path d="M1.42977967,1.23279699 C1.65444082,1.23279699 1.83656466,0.88295086 1.83656466,0.451393786 C1.83656466,0.0198367121 1.65444082,-0.33000942 1.42977967,-0.33000942 C1.20511853,-0.33000942 1.02299468,0.0198367121 1.02299468,0.451393786 C1.02299468,0.88295086 1.20511853,1.23279699 1.42977967,1.23279699 Z" id="Oval-3-Copy-3" fill="#D8D8D8" transform="translate(1.429780, 0.451394) rotate(90.000000) translate(-1.429780, -0.451394) "></path>
                        <path d="M0.877602659,0.456505842 C0.877602659,0.628695166 1.08333678,0.768282192 1.47484402,0.768282192 C1.86635127,0.768282192 2.0587008,0.628695166 2.0587008,0.456505842 C2.0587008,0.284316518 1.86635127,0.144729491 1.47484402,0.144729491 C1.08333678,0.144729491 0.877602659,0.284316518 0.877602659,0.456505842 Z" id="Oval-3-Copy-2" fill="#FEFCFC"></path>
                        <use id="Rectangle-9" stroke="#8E8686" mask="url(#mask-14)" stroke-width="0.3" fill="#FFFFFF" xlink:href="#path-13"></use>
                    </g>
                    <g id="shoestring-copy" transform="translate(8.152005, 13.709304) rotate(90.000000) translate(-8.152005, -13.709304) translate(7.003069, 9.227766)">
                        <path d="M1.42977967,8.81693852 C1.65444082,8.81693852 1.83656466,8.46709239 1.83656466,8.03553531 C1.83656466,7.60397824 1.65444082,7.25413211 1.42977967,7.25413211 C1.20511853,7.25413211 1.02299468,7.60397824 1.02299468,8.03553531 C1.02299468,8.46709239 1.20511853,8.81693852 1.42977967,8.81693852 Z" id="Oval-3" fill="#D8D8D8" transform="translate(1.429780, 8.035535) rotate(90.000000) translate(-1.429780, -8.035535) "></path>
                        <path d="M0.877602659,8.04064737 C0.877602659,8.21283669 1.08333678,8.35242372 1.47484402,8.35242372 C1.86635127,8.35242372 2.0587008,8.21283669 2.0587008,8.04064737 C2.0587008,7.86845805 1.86635127,7.72887102 1.47484402,7.72887102 C1.08333678,7.72887102 0.877602659,7.86845805 0.877602659,8.04064737 Z" id="Oval-3-Copy" fill="#FEFCFC"></path>
                        <path d="M1.42977967,1.23279699 C1.65444082,1.23279699 1.83656466,0.88295086 1.83656466,0.451393786 C1.83656466,0.0198367121 1.65444082,-0.33000942 1.42977967,-0.33000942 C1.20511853,-0.33000942 1.02299468,0.0198367121 1.02299468,0.451393786 C1.02299468,0.88295086 1.20511853,1.23279699 1.42977967,1.23279699 Z" id="Oval-3-Copy-3" fill="#D8D8D8" transform="translate(1.429780, 0.451394) rotate(90.000000) translate(-1.429780, -0.451394) "></path>
                        <path d="M0.877602659,0.456505842 C0.877602659,0.628695166 1.08333678,0.768282192 1.47484402,0.768282192 C1.86635127,0.768282192 2.0587008,0.628695166 2.0587008,0.456505842 C2.0587008,0.284316518 1.86635127,0.144729491 1.47484402,0.144729491 C1.08333678,0.144729491 0.877602659,0.284316518 0.877602659,0.456505842 Z" id="Oval-3-Copy-2" fill="#FEFCFC"></path>
                        <use id="Rectangle-9" stroke="#8E8686" mask="url(#mask-16)" stroke-width="0.3" fill="#FFFFFF" xlink:href="#path-15"></use>
                    </g>
                    <g id="shoestring-copy-2" transform="translate(8.152005, 11.640902) rotate(90.000000) translate(-8.152005, -11.640902) translate(7.003069, 7.159364)">
                        <path d="M1.42977967,8.81693852 C1.65444082,8.81693852 1.83656466,8.46709239 1.83656466,8.03553531 C1.83656466,7.60397824 1.65444082,7.25413211 1.42977967,7.25413211 C1.20511853,7.25413211 1.02299468,7.60397824 1.02299468,8.03553531 C1.02299468,8.46709239 1.20511853,8.81693852 1.42977967,8.81693852 Z" id="Oval-3" fill="#D8D8D8" transform="translate(1.429780, 8.035535) rotate(90.000000) translate(-1.429780, -8.035535) "></path>
                        <path d="M0.877602659,8.04064737 C0.877602659,8.21283669 1.08333678,8.35242372 1.47484402,8.35242372 C1.86635127,8.35242372 2.0587008,8.21283669 2.0587008,8.04064737 C2.0587008,7.86845805 1.86635127,7.72887102 1.47484402,7.72887102 C1.08333678,7.72887102 0.877602659,7.86845805 0.877602659,8.04064737 Z" id="Oval-3-Copy" fill="#FEFCFC"></path>
                        <path d="M1.42977967,1.23279699 C1.65444082,1.23279699 1.83656466,0.88295086 1.83656466,0.451393786 C1.83656466,0.0198367121 1.65444082,-0.33000942 1.42977967,-0.33000942 C1.20511853,-0.33000942 1.02299468,0.0198367121 1.02299468,0.451393786 C1.02299468,0.88295086 1.20511853,1.23279699 1.42977967,1.23279699 Z" id="Oval-3-Copy-3" fill="#D8D8D8" transform="translate(1.429780, 0.451394) rotate(90.000000) translate(-1.429780, -0.451394) "></path>
                        <path d="M0.877602659,0.456505842 C0.877602659,0.628695166 1.08333678,0.768282192 1.47484402,0.768282192 C1.86635127,0.768282192 2.0587008,0.628695166 2.0587008,0.456505842 C2.0587008,0.284316518 1.86635127,0.144729491 1.47484402,0.144729491 C1.08333678,0.144729491 0.877602659,0.284316518 0.877602659,0.456505842 Z" id="Oval-3-Copy-2" fill="#FEFCFC"></path>
                        <use id="Rectangle-9" stroke="#8E8686" mask="url(#mask-18)" stroke-width="0.3" fill="#FFFFFF" xlink:href="#path-17"></use>
                    </g>
                    <g id="shoestring-copy-3" transform="translate(8.152005, 9.572499) rotate(90.000000) translate(-8.152005, -9.572499) translate(7.003069, 5.090961)">
                        <path d="M1.42977967,8.81693852 C1.65444082,8.81693852 1.83656466,8.46709239 1.83656466,8.03553531 C1.83656466,7.60397824 1.65444082,7.25413211 1.42977967,7.25413211 C1.20511853,7.25413211 1.02299468,7.60397824 1.02299468,8.03553531 C1.02299468,8.46709239 1.20511853,8.81693852 1.42977967,8.81693852 Z" id="Oval-3" fill="#D8D8D8" transform="translate(1.429780, 8.035535) rotate(90.000000) translate(-1.429780, -8.035535) "></path>
                        <path d="M0.877602659,8.04064737 C0.877602659,8.21283669 1.08333678,8.35242372 1.47484402,8.35242372 C1.86635127,8.35242372 2.0587008,8.21283669 2.0587008,8.04064737 C2.0587008,7.86845805 1.86635127,7.72887102 1.47484402,7.72887102 C1.08333678,7.72887102 0.877602659,7.86845805 0.877602659,8.04064737 Z" id="Oval-3-Copy" fill="#FEFCFC"></path>
                        <path d="M1.42977967,1.23279699 C1.65444082,1.23279699 1.83656466,0.88295086 1.83656466,0.451393786 C1.83656466,0.0198367121 1.65444082,-0.33000942 1.42977967,-0.33000942 C1.20511853,-0.33000942 1.02299468,0.0198367121 1.02299468,0.451393786 C1.02299468,0.88295086 1.20511853,1.23279699 1.42977967,1.23279699 Z" id="Oval-3-Copy-3" fill="#D8D8D8" transform="translate(1.429780, 0.451394) rotate(90.000000) translate(-1.429780, -0.451394) "></path>
                        <path d="M0.877602659,0.456505842 C0.877602659,0.628695166 1.08333678,0.768282192 1.47484402,0.768282192 C1.86635127,0.768282192 2.0587008,0.628695166 2.0587008,0.456505842 C2.0587008,0.284316518 1.86635127,0.144729491 1.47484402,0.144729491 C1.08333678,0.144729491 0.877602659,0.284316518 0.877602659,0.456505842 Z" id="Oval-3-Copy-2" fill="#FEFCFC"></path>
                        <use id="Rectangle-9" stroke="#8E8686" mask="url(#mask-20)" stroke-width="0.3" fill="#FFFFFF" xlink:href="#path-19"></use>
                    </g>
                    <g id="shoestring-copy-4" transform="translate(8.152005, 7.504097) rotate(90.000000) translate(-8.152005, -7.504097) translate(7.003069, 3.022559)">
                        <path d="M1.42977967,8.81693852 C1.65444082,8.81693852 1.83656466,8.46709239 1.83656466,8.03553531 C1.83656466,7.60397824 1.65444082,7.25413211 1.42977967,7.25413211 C1.20511853,7.25413211 1.02299468,7.60397824 1.02299468,8.03553531 C1.02299468,8.46709239 1.20511853,8.81693852 1.42977967,8.81693852 Z" id="Oval-3" fill="#D8D8D8" transform="translate(1.429780, 8.035535) rotate(90.000000) translate(-1.429780, -8.035535) "></path>
                        <path d="M0.877602659,8.04064737 C0.877602659,8.21283669 1.08333678,8.35242372 1.47484402,8.35242372 C1.86635127,8.35242372 2.0587008,8.21283669 2.0587008,8.04064737 C2.0587008,7.86845805 1.86635127,7.72887102 1.47484402,7.72887102 C1.08333678,7.72887102 0.877602659,7.86845805 0.877602659,8.04064737 Z" id="Oval-3-Copy" fill="#FEFCFC"></path>
                        <path d="M1.42977967,1.23279699 C1.65444082,1.23279699 1.83656466,0.88295086 1.83656466,0.451393786 C1.83656466,0.0198367121 1.65444082,-0.33000942 1.42977967,-0.33000942 C1.20511853,-0.33000942 1.02299468,0.0198367121 1.02299468,0.451393786 C1.02299468,0.88295086 1.20511853,1.23279699 1.42977967,1.23279699 Z" id="Oval-3-Copy-3" fill="#D8D8D8" transform="translate(1.429780, 0.451394) rotate(90.000000) translate(-1.429780, -0.451394) "></path>
                        <path d="M0.877602659,0.456505842 C0.877602659,0.628695166 1.08333678,0.768282192 1.47484402,0.768282192 C1.86635127,0.768282192 2.0587008,0.628695166 2.0587008,0.456505842 C2.0587008,0.284316518 1.86635127,0.144729491 1.47484402,0.144729491 C1.08333678,0.144729491 0.877602659,0.284316518 0.877602659,0.456505842 Z" id="Oval-3-Copy-2" fill="#FEFCFC"></path>
                        <use id="Rectangle-9" stroke="#8E8686" mask="url(#mask-22)" stroke-width="0.3" fill="#FFFFFF" xlink:href="#path-21"></use>
                    </g>
                    <g id="shoestring-copy-5" transform="translate(8.152005, 5.435695) rotate(90.000000) translate(-8.152005, -5.435695) translate(7.003069, 0.954157)">
                        <path d="M1.42977967,8.81693852 C1.65444082,8.81693852 1.83656466,8.46709239 1.83656466,8.03553531 C1.83656466,7.60397824 1.65444082,7.25413211 1.42977967,7.25413211 C1.20511853,7.25413211 1.02299468,7.60397824 1.02299468,8.03553531 C1.02299468,8.46709239 1.20511853,8.81693852 1.42977967,8.81693852 Z" id="Oval-3" fill="#D8D8D8" transform="translate(1.429780, 8.035535) rotate(90.000000) translate(-1.429780, -8.035535) "></path>
                        <path d="M0.877602659,8.04064737 C0.877602659,8.21283669 1.08333678,8.35242372 1.47484402,8.35242372 C1.86635127,8.35242372 2.0587008,8.21283669 2.0587008,8.04064737 C2.0587008,7.86845805 1.86635127,7.72887102 1.47484402,7.72887102 C1.08333678,7.72887102 0.877602659,7.86845805 0.877602659,8.04064737 Z" id="Oval-3-Copy" fill="#FEFCFC"></path>
                        <path d="M1.42977967,1.23279699 C1.65444082,1.23279699 1.83656466,0.88295086 1.83656466,0.451393786 C1.83656466,0.0198367121 1.65444082,-0.33000942 1.42977967,-0.33000942 C1.20511853,-0.33000942 1.02299468,0.0198367121 1.02299468,0.451393786 C1.02299468,0.88295086 1.20511853,1.23279699 1.42977967,1.23279699 Z" id="Oval-3-Copy-3" fill="#D8D8D8" transform="translate(1.429780, 0.451394) rotate(90.000000) translate(-1.429780, -0.451394) "></path>
                        <path d="M0.877602659,0.456505842 C0.877602659,0.628695166 1.08333678,0.768282192 1.47484402,0.768282192 C1.86635127,0.768282192 2.0587008,0.628695166 2.0587008,0.456505842 C2.0587008,0.284316518 1.86635127,0.144729491 1.47484402,0.144729491 C1.08333678,0.144729491 0.877602659,0.284316518 0.877602659,0.456505842 Z" id="Oval-3-Copy-2" fill="#FEFCFC"></path>
                    </g>
                    <path d="M3.04377532,5.652163 C-0.434056917,8.95309383 3.76484503,10.4633636 0.932583256,13.426135 C0.932583256,13.426135 0.611922807,13.6999794 0.72906468,13.9350403 C0.846206553,14.1701013 1.07799613,14.3638178 1.28460751,14.1325191 C1.49121889,13.9012204 1.89661129,13.3124938 2.11682275,12.7363182 C2.33703422,12.1601427 2.5830721,11.4838057 2.34994743,10.3296616 C2.11682275,9.17551755 2.11682275,8.78593904 2.11682275,8.78593904 C2.11682275,8.78593904 1.93899135,8.08536548 2.45078037,7.38775967 C2.75698592,6.92647225 3.35030917,6.30459417 3.35030917,6.30459417 C3.35030917,6.30459417 4.15394287,5.75753964 3.69888955,5.5063323 C3.24383623,5.25512496 3.04377532,5.652163 3.04377532,5.652163 Z" id="Path-5" stroke="#979797" stroke-width="0.15" fill="#FFFFFF" transform="translate(2.270874, 9.829804) rotate(7.000000) translate(-2.270874, -9.829804) "></path>
                    <path d="M15.2709714,5.98164424 C14.0339549,7.1557394 13.9881216,8.19072617 14.0454809,9.13461708 C14.0913288,9.8890792 14.5796713,11.2181495 13.8974462,12.7978469 C13.7258621,13.1951514 13.5132474,13.6725941 13.4487409,13.8507959 C13.3842344,14.0289976 13.5185863,13.9408064 13.2444649,14.2275593 C13.2444649,14.2275593 12.9238044,14.5014037 13.0409463,14.7364646 C13.1580882,14.9715256 13.3898778,15.1652421 13.5964891,14.9339434 C13.8031005,14.7026447 14.3153373,13.3034974 14.5355487,12.7273219 C14.7557602,12.1511464 15.0017981,11.4748094 14.7686734,10.3206653 C14.5355487,9.16652122 14.5355487,8.77694271 14.5355487,8.77694271 C14.5355487,8.77694271 14.3577173,8.07636915 14.8695064,7.37876334 C15.1757119,6.91747592 15.7690351,6.29559784 15.7690351,6.29559784 C15.7690351,6.29559784 16.5726688,5.74854331 16.1176155,5.49733597 C15.6625622,5.24612863 15.2709714,5.98164424 15.2709714,5.98164424 Z" id="Path-5-Copy" stroke="#979797" stroke-width="0.15" fill="#FFFFFF" transform="translate(14.636178, 10.241524) scale(-1, 1) rotate(7.000000) translate(-14.636178, -10.241524) "></path>
                </g>
                <polygon id="Combined-Shape" fill="#292929" opacity="0.200000003" points="45.5455747 140.500483 46.6873631 143.197904 46.6873631 135.583 44.4037863 135.583"></polygon>
                <path d="M40.3728791,143.197904 L37.1082008,135.583 L40.3728791,135.583 L40.3728791,148.283 L40.3728791,143.197904 Z M53.2931698,61.6004 L31.8061457,61.6004 C31.4785897,61.0944 31.191298,60.5644 30.9508,60.0124 L54.1485155,60.0124 C53.9080175,60.5644 53.6196376,61.0944 53.2931698,61.6004 Z" id="Combined-Shape" fill="#292929" opacity="0.200000003"></path>
            </g>
        </g>
    </g>
</svg>